<svg width="53" height="48" viewBox="0 0 53 48" fill="none" xmlns="http://www.w3.org/2000/svg">
<path fill-rule="evenodd" clip-rule="evenodd" d="M16.1594 17.8861C15.0709 19.4541 14.5291 21.3387 14.5291 23.5445C14.5291 26.3257 15.3203 28.4739 16.9027 29.994C18.4851 31.5141 20.5087 32.2717 22.9686 32.2717C24.5654 32.2717 25.9081 32.1135 26.9966 31.7922C28.7229 31.3127 30.4827 30.0995 32.2713 28.1479C32.4008 28.3061 32.6214 28.6178 32.9426 29.0829C33.2639 29.548 33.4941 29.8597 33.6379 30.018C33.7818 30.1762 34.0216 30.4352 34.3572 30.7852C34.6929 31.1353 35.0861 31.5045 35.532 31.8881C36.0739 32.1135 36.539 32.0799 36.9227 31.7922C37.148 31.6004 38.5866 30.3536 41.2383 28.0519C41.4925 27.8601 41.622 27.6348 41.622 27.3806C41.622 27.1552 41.5261 26.9011 41.3342 26.6134C40.8386 25.9648 40.4816 25.4863 40.2548 25.1822L40.2314 25.1508C40.006 24.8488 39.7758 24.35 39.536 23.6643C39.2963 22.9786 39.1764 22.2162 39.1764 21.3866V9.78222C39.1764 9.65275 39.162 9.24515 39.1285 8.55944C39.0949 7.87373 39.0469 7.42298 38.9846 7.21678C38.9223 7.01059 38.8264 6.63177 38.6969 6.08991C38.5674 5.54805 38.4236 5.13087 38.2653 4.84316C38.1071 4.55544 37.8913 4.22937 37.618 3.86014C37.3446 3.49091 37.0521 3.15045 36.7309 2.82917C34.6833 0.944655 31.8397 0 28.1954 0H26.9966C24.153 0.158242 21.6643 0.925475 19.54 2.3017C17.4158 3.67792 16.0779 5.78781 15.536 8.63137C15.5025 8.76084 15.4881 8.87113 15.4881 8.96703C15.4881 9.41299 15.7614 9.7007 16.3033 9.83017L21.8178 10.5015C22.3309 10.4056 22.6473 10.0364 22.7768 9.3986C23.0022 8.37722 23.4961 7.57642 24.2633 7.001C25.0306 6.42557 25.9416 6.08991 26.9966 5.99401H27.3802C28.8188 5.99401 29.8737 6.47353 30.545 7.43257C30.991 8.13746 31.2164 9.50889 31.2164 11.5564V12.3716C29.2647 12.5299 27.8597 12.6593 26.9966 12.7552C24.4695 13.0765 22.3452 13.604 20.619 14.3377C18.7344 15.1385 17.2479 16.3181 16.1594 17.8861ZM23.7118 25.5824C23.0884 24.8296 22.7767 23.8322 22.7767 22.5854C22.7767 19.8378 24.1817 18.0635 26.9965 17.2627C27.9555 17.0086 29.3605 16.8791 31.2163 16.8791V18.0779C31.2163 19.0993 31.2067 19.8378 31.1923 20.2837C31.1779 20.7297 31.082 21.3147 30.9046 22.034C30.7272 22.7533 30.4634 23.415 30.1134 24.024C29.3797 25.4002 28.3391 26.2633 26.9965 26.6134C26.9342 26.6134 26.8143 26.6278 26.6368 26.6613C26.4594 26.6949 26.3252 26.7093 26.2293 26.7093C25.1743 26.7093 24.3352 26.3353 23.7118 25.5824Z" fill="#a4a6f1"></path>
<path fill-rule="evenodd" clip-rule="evenodd" d="M43.2047 37.6423C43.0752 37.7718 42.9793 37.8965 42.9169 38.0259C42.8834 38.0883 42.869 38.1362 42.869 38.1698C42.8354 38.2321 42.8546 38.2993 42.9169 38.3616C42.9793 38.4239 43.1087 38.4575 43.3006 38.4575C43.9719 38.3616 44.7055 38.2657 45.5063 38.1698C46.24 38.1075 46.8826 38.0739 47.4244 38.0739C48.8966 38.0739 49.7885 38.2657 50.1097 38.6493C50.2392 38.8076 50.3016 39.0665 50.3016 39.4165C50.3016 40.5051 49.7117 42.4375 48.5273 45.2187C48.4314 45.4729 48.4794 45.6503 48.6712 45.7462C48.7335 45.7798 48.8007 45.7942 48.863 45.7942C48.9925 45.7942 49.1363 45.7318 49.2946 45.6024C50.3831 44.6769 51.227 43.4541 51.836 41.934C52.445 40.4139 52.7471 39.0953 52.7471 37.978V37.6423C52.7471 37.2587 52.6848 36.971 52.5553 36.7792C52.2676 36.4291 51.4044 36.1894 49.9659 36.0599C49.6782 35.9976 49.3761 35.9784 49.0548 36.0119C47.9039 36.0455 46.7195 36.2181 45.5063 36.5394C44.7727 36.7312 44.0054 37.1005 43.2047 37.6423ZM0.863137 37.1633C0.513087 36.9379 0.254146 36.9571 0.0959041 37.2112C0.0335664 37.3071 0 37.403 0 37.499C0 37.6572 0.0959041 37.8202 0.287712 37.9785C3.8026 41.1433 7.78262 43.5985 12.2278 45.3391C16.6729 47.0798 21.3866 47.9525 26.3736 47.9525C29.6008 47.9525 32.9095 47.5065 36.2997 46.6098C39.6899 45.7131 42.7588 44.452 45.5065 42.8216C46.4032 42.2798 47.1369 41.8003 47.7123 41.3831C48.1582 41.0618 48.2493 40.7117 47.976 40.3281C47.7027 39.9445 47.3287 39.8486 46.8491 40.0404C46.7197 40.1027 46.5039 40.1987 46.2018 40.3281C45.8997 40.4576 45.6647 40.5535 45.5065 40.6158C39.4022 42.9511 33.2164 44.1163 26.949 44.1163C17.5504 44.1163 8.85674 41.8003 0.863137 37.1633Z" fill="#a4a6f1"></path>
</svg>