<svg width="40" height="48" viewBox="0 0 40 48" fill="none" xmlns="http://www.w3.org/2000/svg">
<path  d="M29.0513 0.0561523C29.0513 0.0561523 25.4912 0.142888 22.2258 3.40728C18.9604 6.67168 19.5114 11.0705 19.5114 11.0705C19.5114 11.0705 22.7433 11.6619 26.193 8.21221C29.6426 4.76252 29.0513 0.0561523 29.0513 0.0561523Z" fill="#a4a6f1"></path>
<path d="M19.8848 13.8545C17.4779 13.8378 15.9994 11.7601 11.9012 11.7601C8.213 11.7601 4.51591 14.1394 2.94384 16.4418C1.37866 18.7334 0.0244141 21.2467 0.0244141 26.3473C0.0244141 31.4479 2.4806 40.22 8.51953 46.1584C9.55345 47.1756 10.9225 47.9394 12.4847 47.9867C15.2937 48.0715 17.0186 45.9692 20.5668 45.9692C24.1151 45.9692 25.1825 47.9867 28.3858 47.9867C29.8426 47.9867 31.5033 47.3234 33.1168 45.6074C35.1866 43.4065 37.7552 39.2137 39.0631 35.1923C39.0631 35.1923 32.5116 32.6622 32.5905 25.3686C32.6565 19.3237 37.7897 16.3501 37.7897 16.3501C37.7897 16.3501 34.7914 11.5698 28.4183 11.5698C24.0165 11.6033 22.0453 13.8693 19.8848 13.8545Z" fill="#a4a6f1"></path>
</svg>