<svg width="24" height="24" viewBox="0 0 24 24">
                                            <path fill='dark'
                                                d="M23.987 11.52C23.9852 10.8588 23.6889 10.2299 23.173 9.79199L11.994 0.346547C11.3937 -0.125143 10.5122 -0.0556678 10.0001 0.503681C9.4881 1.06303 9.52958 1.91123 10.094 2.42207L18.731 9.71807C18.8085 9.78412 18.8355 9.88926 18.7989 9.98236C18.7623 10.0755 18.6696 10.1372 18.566 10.1376H1.45196C0.656673 10.1376 0.0119629 10.7565 0.0119629 11.52C0.0119629 12.2835 0.656673 12.9024 1.45196 12.9024H18.563C18.6666 12.9033 18.7589 12.9653 18.7954 13.0584C18.832 13.1515 18.8052 13.2565 18.728 13.3229L10.091 20.6189C9.67957 20.9379 9.48341 21.4477 9.58 21.9468C9.6766 22.4459 10.0504 22.8541 10.5537 23.0099C11.057 23.1658 11.6088 23.0443 11.991 22.6934L23.172 13.248C23.6885 12.8104 23.9852 12.1814 23.987 11.52Z">
                                            </path>
                                        </svg>