<svg xmlns="http://www.w3.org/2000/svg" width="24" height="24" fill="none">
<path d="M22.5 9.5h-1.86a8.95 8.95 0 0 0-.77-1.84l1.32-1.32a1.5 1.5 0 0 0 0-2.12l-1.41-1.41a1.5 1.5 0 0 0-2.12 0l-1.32 1.32a8.9 8.9 0 0 0-1.84-.77V1.5A1.5 1.5 0 0 0 13 0h-2a1.5 1.5 0 0 0-1.5 1.5v1.86c-.64.19-1.26.44-1.84.77L6.34 2.8a1.5 1.5 0 0 0-2.12 0L2.81 4.22a1.5 1.5 0 0 0 0 2.13l1.31 1.31c-.32.58-.57 1.2-.76 1.84H1.5A1.5 1.5 0 0 0 0 11v2a1.5 1.5 0 0 0 1.5 1.5h1.86c.19.64.44 1.26.77 1.84L2.8 17.66a1.5 1.5 0 0 0 0 2.12l1.41 1.41a1.54 1.54 0 0 0 2.12 0l1.32-1.31c.58.32 1.2.57 1.84.76v1.86A1.5 1.5 0 0 0 11 24h2a1.5 1.5 0 0 0 1.5-1.5v-1.86a8.97 8.97 0 0 0 1.84-.76l1.32 1.31a1.5 1.5 0 0 0 2.12 0l1.41-1.41a1.5 1.5 0 0 0 0-2.12l-1.32-1.32c.33-.58.58-1.2.77-1.84h1.86A1.5 1.5 0 0 0 24 13v-2a1.5 1.5 0 0 0-1.5-1.5ZM12 17a5 5 0 1 1 0-10 5 5 0 0 1 0 10Z" fill="#3A3DB3"></path>
</svg>
