<svg width="48" height="48" viewBox="0 0 48 48" fill="none" xmlns="http://www.w3.org/2000/svg">
<path d="M15.0305 24.0016C15.0305 28.9473 19.0542 32.9706 24 32.9706C28.9456 32.9706 32.9689 28.9472 32.9689 24.0016C32.9689 19.0559 28.9455 15.0322 24 15.0322C19.0542 15.0321 15.0305 19.0558 15.0305 24.0016Z" fill="#a4a6f1"></path>
<path d="M44.653 12.1624C44.7228 12.0395 44.7216 11.8885 44.6493 11.7668C42.5601 8.2482 39.587 5.3008 36.0513 3.24345C32.4073 1.12283 28.2399 0.00195312 23.9999 0.00195312C16.6622 0.00195312 9.8239 3.29492 5.23821 9.03645C5.13706 9.16302 5.12384 9.33842 5.20484 9.47867L11.961 21.1805C12.0318 21.3032 12.1625 21.3771 12.3016 21.3771C12.3192 21.3771 12.3371 21.3759 12.355 21.3735C12.5133 21.3519 12.6428 21.2367 12.6828 21.082C14.015 15.9202 18.6688 12.3152 23.9999 12.3152C24.3308 12.3152 24.6724 12.3303 25.0158 12.3595C25.027 12.3606 25.0383 12.3611 25.0495 12.3611H44.311C44.4525 12.3613 44.5831 12.2855 44.653 12.1624Z" fill="#a4a6f1"></path>
<path d="M27.5465 35.3995C27.4488 35.2731 27.2847 35.2188 27.13 35.2616C26.1139 35.5445 25.0609 35.688 24 35.688C19.4926 35.688 15.3382 33.0443 13.4163 28.9531C13.4116 28.9431 13.4063 28.9333 13.4008 28.9235L3.76303 12.2309C3.69281 12.1089 3.56288 12.0342 3.42234 12.0342C3.42169 12.0342 3.42094 12.0342 3.42028 12.0342C3.279 12.0349 3.14878 12.1113 3.07959 12.2343C1.065 15.8091 0 19.8781 0 24.0015C0 29.7858 2.08678 35.3732 5.87597 39.7343C9.62756 44.052 14.7923 46.8934 20.4193 47.7354C20.4388 47.7384 20.4583 47.7396 20.4777 47.7396C20.6167 47.7396 20.7473 47.6656 20.8183 47.5429L27.5763 35.8376C27.6562 35.6989 27.6443 35.5259 27.5465 35.3995Z" fill="#a4a6f1"></path>
<path d="M45.9817 14.9863H32.4513C32.2914 14.9863 32.1474 15.0831 32.0872 15.231C32.0268 15.379 32.0619 15.5489 32.176 15.6607C34.4399 17.88 35.6867 20.8421 35.6867 24.0016C35.6867 26.3935 34.965 28.6952 33.5994 30.6583C33.5931 30.6674 33.5873 30.6767 33.5818 30.6864L23.9272 47.4081C23.8565 47.5305 23.857 47.6815 23.9283 47.8036C23.999 47.9244 24.1284 47.9983 24.268 47.9983C24.2694 47.9983 24.271 47.9983 24.2724 47.9983C30.6258 47.9275 36.5876 45.3999 41.0597 40.8814C45.5352 36.3591 48.0001 30.3644 48.0001 24.0017C48.0001 20.9774 47.4442 18.0283 46.3479 15.2361C46.2888 15.0853 46.1436 14.9863 45.9817 14.9863Z" fill="#a4a6f1"></path>
</svg>