<svg width="48" height="48" viewBox="0 0 48 48" fill="none" xmlns="http://www.w3.org/2000/svg">
<path fill-rule="evenodd" clip-rule="evenodd" d="M44.4231 7.59231C44.4231 8.52692 44.1 9.40385 43.5577 10.0846C46.35 14.0077 48 18.8192 48 24C48 37.2577 37.2577 48 24 48C10.7423 48 0 37.2577 0 24C0 10.7423 10.7423 0 24 0C29.1808 0 33.9923 1.65 37.9154 4.44231C38.5962 3.9 39.4615 3.57692 40.4077 3.57692C42.6231 3.57692 44.4231 5.37692 44.4231 7.59231ZM32.6199 44.4237C35.2622 43.3045 37.6391 41.7007 39.6699 39.6699C41.7122 37.6391 43.3045 35.2622 44.4237 32.6199C45.5776 29.8853 46.166 26.9776 46.166 23.9891C46.166 20.9891 45.5776 18.093 44.4237 15.3583C43.8007 13.893 43.0276 12.5083 42.116 11.216C41.5853 11.4583 41.0084 11.5968 40.3968 11.5968C38.1814 11.5968 36.3814 9.79681 36.3814 7.58142C36.3814 6.95835 36.5199 6.38142 36.7622 5.86219C35.4699 4.95066 34.0853 4.17758 32.6199 3.5545C29.8853 2.40066 26.9776 1.81219 23.9891 1.81219C20.9891 1.81219 18.093 2.40066 15.3583 3.5545C12.716 4.67373 10.3507 6.26604 8.30835 8.30835C6.26604 10.3507 4.67373 12.716 3.5545 15.3583C2.40066 18.093 1.81219 21.0007 1.81219 23.9891C1.81219 26.9891 2.40066 29.8853 3.5545 32.6199C4.67373 35.2622 6.27758 37.6391 8.30835 39.6699C10.3507 41.7122 12.716 43.3045 15.3583 44.4237C18.093 45.5776 21.0007 46.166 23.9891 46.166C26.9891 46.166 29.8853 45.5776 32.6199 44.4237Z" fill="#a4a6f1"></path>
<path d="M24.0001 35.0885C30.1241 35.0885 35.0885 30.1241 35.0885 24.0001C35.0885 17.8761 30.1241 12.9116 24.0001 12.9116C17.8761 12.9116 12.9116 17.8761 12.9116 24.0001C12.9116 30.1241 17.8761 35.0885 24.0001 35.0885Z" fill="#a4a6f1"></path>
</svg>