<svg xmlns="http://www.w3.org/2000/svg" width="24" height="24" fill="none">
<g clip-path="url(#sacqopqool-a)" fill="#3A3DB3">
<path d="M15.18 2.45c1.2.4 2.3 1 3.27 1.8a1 1 0 0 0 1.3-1.55C18.57 1.74 17.24 1 15.8.53a1 1 0 0 0-1.27.65 1 1 0 0 0 .64 1.27ZM22.8 6.56a1 1 0 1 0-1.8.91c.57 1.13.91 2.34 1.02 3.6a1 1 0 0 0 1 .9h.08a1 1 0 0 0 .9-1.1c-.12-1.5-.53-2.96-1.2-4.31ZM22.85 14.5a1 1 0 0 0-1.27.65c-.39 1.2-1 2.3-1.8 3.27a1 1 0 1 0 1.55 1.28c.97-1.16 1.7-2.5 2.18-3.92a1 1 0 0 0-.66-1.27ZM16.56 20.98c-1.12.56-2.34.9-3.6 1a1 1 0 1 0 .1 2.02h.1c1.5-.14 2.97-.56 4.32-1.25a1 1 0 1 0-.92-1.8v.03ZM8.88 21.55c-1.2-.39-2.3-1-3.27-1.8a1 1 0 0 0-1.29 1.55c1.17.96 2.5 1.7 3.94 2.18.1.03.2.04.31.05a1.02 1.02 0 1 0 .31-2.02v.04ZM2.02 12.94a1.01 1.01 0 1 0-2.02.19c.15 1.5.57 2.97 1.26 4.32a1 1 0 0 0 .9.54 1 1 0 0 0 .45-.1 1 1 0 0 0 .44-1.36 10.13 10.13 0 0 1-1.03-3.6ZM1.21 9.5a1 1 0 0 0 1.27-.64c.4-1.2 1-2.31 1.8-3.28a1 1 0 1 0-1.55-1.29C1.77 5.46 1.03 6.8.56 8.23A1 1 0 0 0 1.2 9.5ZM7.05 3.13c.16 0 .31-.04.45-.1a9.92 9.92 0 0 1 3.6-1.01A1.01 1.01 0 0 0 10.9 0C9.4.14 7.94.55 6.6 1.23a1 1 0 0 0 .46 1.9ZM20.08 12a8.05 8.05 0 1 0-16.1 0 8.05 8.05 0 0 0 16.1 0Zm-4.47 3.28a.75.75 0 0 1-1.07 0l-3.02-2.77a.76.76 0 0 1-.24-.55V7.98a.75.75 0 1 1 1.5 0v3.69l2.78 2.55a.76.76 0 0 1 .05 1.06Z"></path>
</g>
<defs>
<clipPath id="sacqopqool-a">
<path fill="#fff" d="M0 0h24v24H0z"></path>
</clipPath>
</defs>
</svg>
