<svg width="184" height="112" fill="none" xmlns="http://www.w3.org/2000/svg">
<g fill="#FF4A2C">
<path d="M93.701 63.196c-14.077-.038-26.342-8.93-30.343-22.193-3.342-11.113-1.175-21.271 6.34-30.148C74.32 5.4 80.279 2.055 87.283.625c3.918-.8 7.954-.832 11.885-.097.44.08.444.198.272.553a2788.968 2788.968 0 0 0-5.772 12.09.61.61 0 0 1-.634.391 18.057 18.057 0 0 0-17.165 14.132c-1.93 8.596 2.72 17.488 10.926 20.64 6.512 2.5 12.572 1.504 18.084-2.77.281-.21.397-.253.598.096 2.114 3.699 4.245 7.39 6.396 11.075.188.323.12.47-.159.664a31.424 31.424 0 0 1-13.996 5.495 37.94 37.94 0 0 1-4.016.302Z"></path>
<path d="M115.567 54.044c-.173-.093-.222-.283-.31-.437a3645 3645 0 0 1-7.187-12.483.906.906 0 0 0-.921-.512c-4.773.015-9.543 0-14.316 0h-.594a.712.712 0 0 1 .186-.496l7.276-12.631a.734.734 0 0 1 .744-.423c4.885.013 9.769.013 14.651 0a.727.727 0 0 1 .738.423c2.436 4.245 4.884 8.485 7.342 12.72a.65.65 0 0 1 .022.758 5953.1 5953.1 0 0 0-7.383 12.783c-.066.108-.095.256-.248.298ZM105.279 9.333c-.875-.875-1.69-1.712-2.536-2.536-.262-.254-.078-.442.034-.634a7.608 7.608 0 0 1 4.403-3.496 8.503 8.503 0 0 1 6.858.676c3.805 2.057 3.464 6.827 1.268 8.983a12.088 12.088 0 0 1-2.8 2.014c-1.057.563-2.114 1.093-3.149 1.691-.861.493-1.531 1.173-1.841 2.158-.127.398-.051.501.374.497 2.794-.017 5.59 0 8.387-.017.422 0 .581.08.564.541a47.857 47.857 0 0 0 0 2.96c0 .312-.087.422-.408.422-4.494-.009-8.986-.009-13.476 0-.212 0-.408 0-.41-.307 0-3.11.574-6.009 3.009-8.228a16.1 16.1 0 0 1 3.866-2.536c.769-.377 1.547-.736 2.219-1.281.588-.478.994-1.057 1.036-1.839.063-1.224-.905-2.133-2.367-2.228-2.103-.15-3.621.797-4.682 2.556-.105.173-.203.35-.349.604ZM115.999 58.475v-1.017h-.364v-.211h.974v.211h-.367v1.017h-.243Zm.767 0V57.25h.37l.211.835.211-.835h.372v1.224h-.209v-.964l-.243.964h-.239l-.241-.964v.964h-.232Z"></path>
</g>
<g>
<path d="M24.06 96.73a1.51 1.51 0 0 0-1.41-1h-6.09a.5.5 0 0 1-.47-.33l-2.18-6.2a1.52 1.52 0 0 0-1.41-.95 1.49 1.49 0 0 0-1.4 1l-2.19 6.17a.5.5 0 0 1-.47.33H2.35a1.5 1.5 0 0 0-1.41 1 1.52 1.52 0 0 0 .45 1.65l5.18 4.3a.503.503 0 0 1 .16.54l-2.18 6.53a1.5 1.5 0 0 0 2.31 1.69l5.34-3.92a.49.49 0 0 1 .59 0l5.35 3.92a1.501 1.501 0 0 0 2.36-1.69l-2.18-6.53a.501.501 0 0 1 .16-.54l5.19-4.31a1.51 1.51 0 0 0 .39-1.66Z" fill="#FFA940"></path>
<path d="M64.06 96.73a1.51 1.51 0 0 0-1.41-1h-6.09a.5.5 0 0 1-.47-.33l-2.18-6.2a1.52 1.52 0 0 0-1.41-.95 1.49 1.49 0 0 0-1.4 1l-2.19 6.17a.5.5 0 0 1-.47.33h-6.09a1.5 1.5 0 0 0-1.41 1 1.52 1.52 0 0 0 .45 1.65l5.18 4.3a.503.503 0 0 1 .16.54l-2.18 6.53a1.5 1.5 0 0 0 2.31 1.69l5.34-3.92a.49.49 0 0 1 .59 0l5.35 3.92a1.501 1.501 0 0 0 2.36-1.69l-2.18-6.53a.501.501 0 0 1 .16-.54l5.19-4.31a1.51 1.51 0 0 0 .39-1.66Z" fill="#FFA940"></path>
<path d="M104.06 96.73a1.509 1.509 0 0 0-1.41-1h-6.09a.5.5 0 0 1-.47-.33l-2.18-6.2a1.52 1.52 0 0 0-1.41-.95 1.49 1.49 0 0 0-1.4 1l-2.19 6.17a.5.5 0 0 1-.47.33h-6.09a1.5 1.5 0 0 0-1.41 1 1.52 1.52 0 0 0 .45 1.65l5.18 4.3a.503.503 0 0 1 .16.54l-2.18 6.53a1.5 1.5 0 0 0 2.31 1.69l5.34-3.92a.49.49 0 0 1 .59 0l5.35 3.92a1.501 1.501 0 0 0 2.36-1.69l-2.18-6.53a.501.501 0 0 1 .16-.54l5.19-4.31a1.511 1.511 0 0 0 .39-1.66Z" fill="#FFA940"></path>
<path d="M144.06 96.73a1.509 1.509 0 0 0-1.41-1h-6.09a.498.498 0 0 1-.47-.33l-2.18-6.2a1.519 1.519 0 0 0-1.41-.95 1.491 1.491 0 0 0-1.4 1l-2.19 6.17a.501.501 0 0 1-.47.33h-6.09a1.498 1.498 0 0 0-1.439 1.894c.08.295.247.558.479.756l5.18 4.3a.497.497 0 0 1 .16.54l-2.18 6.53a1.499 1.499 0 0 0 2.31 1.69l5.34-3.92a.492.492 0 0 1 .59 0l5.35 3.92a1.5 1.5 0 0 0 2.36-1.69l-2.18-6.53a.495.495 0 0 1 .16-.54l5.19-4.31a1.511 1.511 0 0 0 .39-1.66Z" fill="#FFA940"></path>
<path d="M184.06 96.73a1.509 1.509 0 0 0-1.41-1h-6.09a.498.498 0 0 1-.47-.33l-2.18-6.2a1.519 1.519 0 0 0-1.41-.95 1.491 1.491 0 0 0-1.4 1l-2.19 6.17a.501.501 0 0 1-.47.33h-6.09a1.498 1.498 0 0 0-1.439 1.894c.08.295.247.558.479.756l5.18 4.3a.497.497 0 0 1 .16.54l-2.18 6.53a1.499 1.499 0 0 0 2.31 1.69l5.34-3.92a.492.492 0 0 1 .59 0l5.35 3.92a1.5 1.5 0 0 0 2.36-1.69l-2.18-6.53a.495.495 0 0 1 .16-.54l5.19-4.31a1.511 1.511 0 0 0 .39-1.66Z" fill="#FFA940"></path>
</g>
</svg>