  <svg width="136" height="202" xmlns="http://www.w3.org/2000/svg" viewBox="0 0 156 202"
                                fill="none">
                                <path d="M13.4116 148.851L78.8133 182.131L141.731 148.851V18.7097H13.4116V148.851Z"
                                    fill="white"></path>
                                <path d="M143.056 19.2065L12.0869 151.169L79.9722 184.78L143.056 152.493V19.2065Z"
                                    fill="#F2F3F2"></path>
                                <path
                                    d="M9.10645 62.0903V151.666L11.4245 152.825L76.8261 186.105L78.813 187.098L80.7999 186.105L143.884 152.825L146.202 151.666V14.405H9.10645V62.0903ZM13.4114 149.182V18.7099H141.897V149.182L78.813 182.462L13.4114 149.182Z"
                                    fill="#DCDEDC"></path>
                                <path
                                    d="M77.6539 20.8624C78.3162 20.8624 78.9785 20.8624 79.6408 21.028L77.6539 24.8362C74.6736 24.6706 72.0244 26.9886 71.8588 29.969C71.6933 32.9493 74.0113 35.5985 76.9916 35.764H77.6539C78.9785 35.764 80.3031 35.2673 81.2965 34.4395L83.449 38.0821C81.7933 39.2411 79.8064 39.9034 77.6539 39.9034C72.3556 40.069 67.8851 36.0952 67.7195 30.7968C67.5539 25.4985 71.5277 21.028 76.826 20.8624H77.6539ZM84.4424 28.9755L86.926 33.1149L84.4424 37.0886L82.1244 33.1149H77.3228L79.8064 28.9755H84.4424ZM80.4687 27.4854C80.4687 26.8231 80.6342 26.1608 80.9654 25.664C81.2965 25.1673 81.9588 24.6706 82.4556 24.3395L82.7867 24.1739C83.449 23.8427 83.6146 23.6772 83.6146 23.346C83.6146 23.0149 83.1178 22.6837 82.7867 22.6837C82.1244 22.6837 81.6277 23.0149 81.2965 23.6772L80.4687 22.8493C80.6342 22.5181 80.9654 22.187 81.2965 21.8558C81.7933 21.5247 82.29 21.5247 82.7867 21.5247C83.2834 21.5247 83.9457 21.6903 84.2769 22.0214C84.608 22.3526 84.9392 22.8493 84.9392 23.346C84.9392 24.1739 84.4424 24.8362 83.449 25.1673L82.9523 25.4985C82.4555 25.8296 82.1244 25.9952 81.9588 26.4919H84.9392V27.6509L80.4687 27.4854ZM77.6539 48.1821L93.3834 39.2411V14.405H61.7588V39.0755L77.6539 48.1821ZM149.347 106.795H5.96047L0.662109 118.385L5.96047 129.976H149.347L154.48 118.385L149.347 106.795Z"
                                    fill="#FF492C"></path>
                                <path
                                    d="M32.3477 99.3442C32.2484 99.3442 32.1656 99.3111 32.0993 99.2449C32.0331 99.1676 32 99.0793 32 98.98V78.8462C32 78.7468 32.0331 78.6585 32.0993 78.5813C32.1656 78.515 32.2484 78.4819 32.3477 78.4819H35.8413C35.9407 78.4819 36.0234 78.515 36.0897 78.5813C36.1669 78.6585 36.2056 78.7468 36.2056 78.8462V95.5857C36.2056 95.685 36.2552 95.7347 36.3546 95.7347H46.0903C46.1897 95.7347 46.278 95.7678 46.3552 95.8341C46.4215 95.9113 46.4546 95.9996 46.4546 96.099V98.98C46.4546 99.0793 46.4215 99.1676 46.3552 99.2449C46.278 99.3111 46.1897 99.3442 46.0903 99.3442H32.3477ZM62.3331 90.1052C62.4545 90.8558 62.4932 91.7002 62.449 92.6385C62.438 92.8813 62.311 93.0027 62.0682 93.0027H52.8623C52.7409 93.0027 52.7022 93.0524 52.7464 93.1518C52.8016 93.5491 52.9065 93.9465 53.061 94.3439C53.5798 95.4477 54.6339 95.9996 56.2234 95.9996C57.4928 95.9886 58.4973 95.4753 59.2369 94.4598C59.3142 94.3384 59.4025 94.2777 59.5018 94.2777C59.568 94.2777 59.6398 94.3163 59.717 94.3936L61.853 96.5129C61.9523 96.6123 62.002 96.7006 62.002 96.7778C62.002 96.822 61.9633 96.9048 61.8861 97.0262C61.2348 97.832 60.3904 98.4612 59.3528 98.9137C58.3262 99.3553 57.1948 99.576 55.9585 99.576C54.2476 99.576 52.8016 99.1897 51.6205 98.417C50.4394 97.6443 49.5895 96.5626 49.0707 95.1718C48.6512 94.1783 48.4415 92.8758 48.4415 91.2642C48.4415 90.1714 48.5905 89.2111 48.8885 88.3832C49.3521 86.9703 50.1524 85.8444 51.2893 85.0055C52.4373 84.1777 53.795 83.7637 55.3625 83.7637C57.3493 83.7637 58.9444 84.3377 60.1475 85.4857C61.3507 86.6337 62.0792 88.1735 62.3331 90.1052ZM55.3956 87.3898C54.1372 87.3898 53.3093 87.9748 52.912 89.1449C52.8347 89.4098 52.7685 89.7299 52.7133 90.1052C52.7133 90.2046 52.763 90.2542 52.8623 90.2542H58.0116C58.1331 90.2542 58.1717 90.2046 58.1275 90.1052C58.0282 89.5312 57.9785 89.2553 57.9785 89.2773C57.8019 88.6813 57.4928 88.2177 57.0513 87.8865C56.5987 87.5554 56.0468 87.3898 55.3956 87.3898ZM71.0092 83.7803C72.3007 83.7803 73.4542 84.0066 74.4697 84.4591C75.4852 84.9007 76.2744 85.5133 76.8374 86.297C77.4003 87.0697 77.6818 87.9307 77.6818 88.88V98.98C77.6818 99.0793 77.6487 99.1676 77.5825 99.2449C77.5162 99.3111 77.4334 99.3442 77.3341 99.3442H73.8405C73.7412 99.3442 73.6584 99.3111 73.5921 99.2449C73.5149 99.1676 73.4762 99.0793 73.4762 98.98V98.0031C73.4762 97.9479 73.4597 97.9093 73.4266 97.8872C73.3824 97.8651 73.3438 97.8817 73.3107 97.9369C72.4718 99.0296 71.1306 99.576 69.2872 99.576C67.7308 99.576 66.478 99.2007 65.5287 98.4501C64.5684 97.6995 64.0882 96.5847 64.0882 95.1055C64.0882 93.5823 64.6291 92.3956 65.7108 91.5457C66.7815 90.7068 68.3103 90.2873 70.2972 90.2873H73.3272C73.4266 90.2873 73.4762 90.2377 73.4762 90.1383V89.476C73.4762 88.8248 73.2775 88.3115 72.8802 87.9362C72.4828 87.5719 71.8867 87.3898 71.092 87.3898C70.4849 87.3898 69.9771 87.5002 69.5687 87.7209C69.1603 87.9417 68.8954 88.2508 68.7739 88.6482C68.7187 88.8689 68.5918 88.9683 68.3931 88.9462L64.7836 88.466C64.5408 88.4219 64.4304 88.3336 64.4525 88.2011C64.5297 87.3622 64.8609 86.6061 65.4459 85.9328C66.0309 85.2594 66.8091 84.7351 67.7805 84.3598C68.7408 83.9735 69.817 83.7803 71.0092 83.7803ZM70.4131 96.4467C71.2631 96.4467 71.9861 96.2204 72.5821 95.7678C73.1782 95.3153 73.4762 94.7302 73.4762 94.0127V92.9365C73.4762 92.8372 73.4266 92.7875 73.3272 92.7875H71.1913C70.2972 92.7875 69.5963 92.9586 69.0885 93.3008C68.5808 93.6319 68.3269 94.1066 68.3269 94.7247C68.3269 95.2656 68.5145 95.685 68.8898 95.9831C69.2651 96.2922 69.7729 96.4467 70.4131 96.4467ZM90.1495 78.8462C90.1495 78.7468 90.1826 78.6585 90.2489 78.5813C90.3151 78.515 90.3979 78.4819 90.4972 78.4819H93.9908C94.0902 78.4819 94.173 78.515 94.2392 78.5813C94.3054 78.6585 94.3385 78.7468 94.3385 78.8462V98.98C94.3385 99.0793 94.3054 99.1676 94.2392 99.2449C94.173 99.3111 94.0902 99.3442 93.9908 99.3442H90.4972C90.3979 99.3442 90.3151 99.3111 90.2489 99.2449C90.1826 99.1676 90.1495 99.0793 90.1495 98.98V98.0031C90.1495 97.9479 90.1274 97.9148 90.0833 97.9037C90.0391 97.8927 90.0005 97.9037 89.9674 97.9369C89.1285 99.0296 87.986 99.576 86.54 99.576C85.1492 99.576 83.9515 99.1897 82.9471 98.417C81.9426 97.6443 81.2196 96.5847 80.778 95.238C80.4469 94.2004 80.2813 92.9972 80.2813 91.6285C80.2813 90.2156 80.4579 88.9848 80.8112 87.9362C81.2748 86.6558 81.9978 85.6458 82.9802 84.9062C83.9626 84.1556 85.1768 83.7803 86.6228 83.7803C88.0578 83.7803 89.1726 84.277 89.9674 85.2705C90.0005 85.3367 90.0391 85.3588 90.0833 85.3367C90.1274 85.3146 90.1495 85.276 90.1495 85.2208V78.8462ZM89.5203 94.6916C89.9177 93.9631 90.1164 92.9586 90.1164 91.6782C90.1164 90.3536 89.8956 89.3105 89.4541 88.5488C89.0015 87.7761 88.3392 87.3898 87.4672 87.3898C86.529 87.3898 85.8225 87.7761 85.3479 88.5488C84.8512 89.3325 84.6028 90.3867 84.6028 91.7113C84.6028 92.9034 84.8125 93.8968 85.232 94.6916C85.7287 95.5526 86.4627 95.9831 87.4341 95.9831C88.3282 95.9831 89.0236 95.5526 89.5203 94.6916ZM111.061 90.1052C111.183 90.8558 111.222 91.7002 111.177 92.6385C111.166 92.8813 111.039 93.0027 110.797 93.0027H101.591C101.469 93.0027 101.431 93.0524 101.475 93.1518C101.53 93.5491 101.635 93.9465 101.789 94.3439C102.308 95.4477 103.362 95.9996 104.952 95.9996C106.221 95.9886 107.226 95.4753 107.965 94.4598C108.043 94.3384 108.131 94.2777 108.23 94.2777C108.296 94.2777 108.368 94.3163 108.445 94.3936L110.581 96.5129C110.681 96.6123 110.73 96.7006 110.73 96.7778C110.73 96.822 110.692 96.9048 110.614 97.0262C109.963 97.832 109.119 98.4612 108.081 98.9137C107.055 99.3553 105.923 99.576 104.687 99.576C102.976 99.576 101.53 99.1897 100.349 98.417C99.1678 97.6443 98.3178 96.5626 97.799 95.1718C97.3796 94.1783 97.1698 92.8758 97.1698 91.2642C97.1698 90.1714 97.3188 89.2111 97.6169 88.3832C98.0805 86.9703 98.8808 85.8444 100.018 85.0055C101.166 84.1777 102.523 83.7637 104.091 83.7637C106.078 83.7637 107.673 84.3377 108.876 85.4857C110.079 86.6337 110.808 88.1735 111.061 90.1052ZM104.124 87.3898C102.866 87.3898 102.038 87.9748 101.64 89.1449C101.563 89.4098 101.497 89.7299 101.442 90.1052C101.442 90.2046 101.491 90.2542 101.591 90.2542H106.74C106.861 90.2542 106.9 90.2046 106.856 90.1052C106.757 89.5312 106.707 89.2553 106.707 89.2773C106.53 88.6813 106.221 88.2177 105.78 87.8865C105.327 87.5554 104.775 87.3898 104.124 87.3898ZM121.41 83.8134C122.127 83.8134 122.69 83.9514 123.099 84.2273C123.264 84.3156 123.325 84.4647 123.281 84.6744L122.652 88.0852C122.641 88.317 122.503 88.3832 122.238 88.2839C121.94 88.1846 121.592 88.1349 121.195 88.1349C121.04 88.1349 120.825 88.157 120.549 88.2011C119.831 88.2563 119.224 88.5157 118.728 88.9793C118.231 89.454 117.982 90.0776 117.982 90.8503V98.98C117.982 99.0793 117.949 99.1676 117.883 99.2449C117.806 99.3111 117.718 99.3442 117.618 99.3442H114.141C114.042 99.3442 113.954 99.3111 113.876 99.2449C113.81 99.1676 113.777 99.0793 113.777 98.98V84.3764C113.777 84.277 113.81 84.1942 113.876 84.128C113.954 84.0618 114.042 84.0287 114.141 84.0287H117.618C117.718 84.0287 117.806 84.0618 117.883 84.128C117.949 84.1942 117.982 84.277 117.982 84.3764V85.5188C117.982 85.574 117.999 85.6126 118.032 85.6347C118.076 85.6568 118.109 85.6458 118.131 85.6016C118.948 84.4095 120.041 83.8134 121.41 83.8134Z"
                                    fill="#252530"></path>
                                <path
                                    d="M45.4674 113.385C45.5226 113.297 45.5998 113.252 45.6992 113.252H47.2225C47.2777 113.252 47.3218 113.274 47.3549 113.319C47.3991 113.352 47.4211 113.396 47.4211 113.451V124.644C47.4211 124.699 47.3991 124.743 47.3549 124.776C47.3218 124.82 47.2777 124.843 47.2225 124.843H45.6992C45.644 124.843 45.5943 124.82 45.5502 124.776C45.517 124.743 45.5005 124.699 45.5005 124.644V116.746C45.5005 116.713 45.4895 116.691 45.4674 116.68C45.4343 116.669 45.4122 116.68 45.4011 116.713L43.3315 119.892C43.2763 119.98 43.199 120.024 43.0997 120.024H42.338C42.2387 120.024 42.1614 119.98 42.1062 119.892L40.02 116.729C40.009 116.696 39.9924 116.685 39.9703 116.696C39.9372 116.707 39.9207 116.729 39.9207 116.763V124.644C39.9207 124.699 39.8986 124.743 39.8544 124.776C39.8213 124.82 39.7772 124.843 39.722 124.843H38.1987C38.1435 124.843 38.0993 124.82 38.0662 124.776C38.0221 124.743 38 124.699 38 124.644V113.451C38 113.396 38.0221 113.352 38.0662 113.319C38.0993 113.274 38.1435 113.252 38.1987 113.252H39.722C39.8213 113.252 39.8986 113.297 39.9538 113.385L42.6526 117.475C42.6747 117.497 42.6968 117.508 42.7189 117.508C42.7409 117.508 42.7575 117.497 42.7685 117.475L45.4674 113.385ZM50.7492 115.223C50.407 115.223 50.1255 115.112 49.9048 114.892C49.684 114.671 49.5736 114.389 49.5736 114.047C49.5736 113.705 49.684 113.424 49.9048 113.203C50.1255 112.982 50.407 112.872 50.7492 112.872C51.0914 112.872 51.3728 112.982 51.5936 113.203C51.8144 113.424 51.9248 113.705 51.9248 114.047C51.9248 114.389 51.8144 114.671 51.5936 114.892C51.3728 115.112 51.0914 115.223 50.7492 115.223ZM49.9544 124.843C49.8992 124.843 49.8551 124.82 49.822 124.776C49.7778 124.743 49.7557 124.699 49.7557 124.644V116.564C49.7557 116.509 49.7778 116.465 49.822 116.431C49.8551 116.387 49.8992 116.365 49.9544 116.365H51.4777C51.5329 116.365 51.5826 116.387 51.6267 116.431C51.6598 116.465 51.6764 116.509 51.6764 116.564V124.644C51.6764 124.699 51.6598 124.743 51.6267 124.776C51.5826 124.82 51.5329 124.843 51.4777 124.843H49.9544ZM59.1272 113.451C59.1272 113.396 59.1493 113.352 59.1934 113.319C59.2266 113.274 59.2707 113.252 59.3259 113.252H60.8492C60.9044 113.252 60.954 113.274 60.9982 113.319C61.0313 113.352 61.0479 113.396 61.0479 113.451V124.644C61.0479 124.699 61.0313 124.743 60.9982 124.776C60.954 124.82 60.9044 124.843 60.8492 124.843H59.3259C59.2707 124.843 59.2266 124.82 59.1934 124.776C59.1493 124.743 59.1272 124.699 59.1272 124.644V124.147C59.1272 124.114 59.1162 124.092 59.0941 124.081C59.072 124.07 59.0499 124.081 59.0279 124.114C58.5422 124.688 57.9075 124.975 57.1238 124.975C56.3401 124.975 55.6778 124.771 55.1369 124.362C54.596 123.954 54.2042 123.386 53.9613 122.657C53.7626 122.039 53.6633 121.349 53.6633 120.587C53.6633 119.804 53.7571 119.13 53.9448 118.567C54.1876 117.839 54.5795 117.27 55.1203 116.862C55.6612 116.454 56.3401 116.249 57.1569 116.249C57.9185 116.249 58.5422 116.525 59.0279 117.077C59.0499 117.099 59.072 117.11 59.0941 117.11C59.1162 117.099 59.1272 117.077 59.1272 117.044V113.451ZM58.7298 122.525C58.9837 122.072 59.1107 121.432 59.1107 120.604C59.1107 119.743 58.9727 119.086 58.6967 118.634C58.3987 118.148 57.9792 117.905 57.4384 117.905C56.8754 117.905 56.4339 118.137 56.1138 118.6C55.7826 119.086 55.617 119.759 55.617 120.62C55.617 121.393 55.7495 122.028 56.0144 122.525C56.3235 123.054 56.7926 123.319 57.4218 123.319C57.9848 123.319 58.4208 123.054 58.7298 122.525ZM62.8361 120.687C62.7809 120.687 62.7367 120.67 62.7036 120.637C62.6595 120.593 62.6374 120.543 62.6374 120.488V119.23C62.6374 119.174 62.6595 119.125 62.7036 119.081C62.7367 119.047 62.7809 119.031 62.8361 119.031H68.0516C68.1068 119.031 68.151 119.047 68.1841 119.081C68.2283 119.125 68.2503 119.174 68.2503 119.23V120.488C68.2503 120.543 68.2283 120.593 68.1841 120.637C68.151 120.67 68.1068 120.687 68.0516 120.687H62.8361ZM77.4728 113.385C77.528 113.297 77.6052 113.252 77.7046 113.252H79.2279C79.2831 113.252 79.3327 113.274 79.3769 113.319C79.41 113.352 79.4266 113.396 79.4266 113.451V124.644C79.4266 124.699 79.41 124.743 79.3769 124.776C79.3327 124.82 79.2831 124.843 79.2279 124.843H77.7046C77.6494 124.843 77.6052 124.82 77.5721 124.776C77.528 124.743 77.5059 124.699 77.5059 124.644V116.746C77.5059 116.713 77.4949 116.691 77.4728 116.68C77.4397 116.669 77.4176 116.68 77.4066 116.713L75.3369 119.892C75.2817 119.98 75.2044 120.024 75.1051 120.024H74.3434C74.2441 120.024 74.1668 119.98 74.1116 119.892L72.0254 116.729C72.0144 116.696 71.9978 116.685 71.9757 116.696C71.9426 116.707 71.9261 116.729 71.9261 116.763V124.644C71.9261 124.699 71.9095 124.743 71.8764 124.776C71.8322 124.82 71.7826 124.843 71.7274 124.843H70.2041C70.1489 124.843 70.1048 124.82 70.0716 124.776C70.0275 124.743 70.0054 124.699 70.0054 124.644V113.451C70.0054 113.396 70.0275 113.352 70.0716 113.319C70.1048 113.274 70.1489 113.252 70.2041 113.252H71.7274C71.8267 113.252 71.904 113.297 71.9592 113.385L74.658 117.475C74.6801 117.497 74.7022 117.508 74.7243 117.508C74.7463 117.508 74.7629 117.497 74.7739 117.475L77.4728 113.385ZM84.8905 116.249C85.5859 116.249 86.1985 116.371 86.7284 116.614C87.2582 116.856 87.6666 117.188 87.9536 117.607C88.2406 118.037 88.3841 118.523 88.3841 119.064V124.644C88.3841 124.699 88.3675 124.743 88.3344 124.776C88.2903 124.82 88.2406 124.843 88.1854 124.843H86.6621C86.6069 124.843 86.5628 124.82 86.5297 124.776C86.4855 124.743 86.4634 124.699 86.4634 124.644V124.114C86.4634 124.081 86.4524 124.059 86.4303 124.048C86.4083 124.048 86.3862 124.059 86.3641 124.081C85.8232 124.677 85.0395 124.975 84.013 124.975C83.1851 124.975 82.5062 124.765 81.9764 124.346C81.4355 123.926 81.1651 123.303 81.1651 122.475C81.1651 121.614 81.4686 120.941 82.0757 120.455C82.6718 119.98 83.5162 119.743 84.609 119.743H86.3807C86.4359 119.743 86.4634 119.715 86.4634 119.66V119.263C86.4634 118.832 86.3365 118.496 86.0826 118.253C85.8287 118.021 85.4479 117.905 84.9402 117.905C84.5207 117.905 84.184 117.982 83.9302 118.137C83.6652 118.28 83.4997 118.485 83.4334 118.749C83.4003 118.882 83.3231 118.937 83.2016 118.915L81.5956 118.716C81.5404 118.705 81.4962 118.689 81.4631 118.667C81.419 118.634 81.4024 118.595 81.4134 118.551C81.5018 117.877 81.866 117.326 82.5062 116.895C83.1354 116.465 83.9302 116.249 84.8905 116.249ZM84.4931 123.452C85.034 123.452 85.4976 123.308 85.8839 123.021C86.2703 122.734 86.4634 122.37 86.4634 121.928V121.15C86.4634 121.095 86.4359 121.067 86.3807 121.067H84.9898C84.4048 121.067 83.9467 121.178 83.6156 121.399C83.2734 121.619 83.1023 121.934 83.1023 122.342C83.1023 122.696 83.2348 122.966 83.4997 123.154C83.7536 123.352 84.0847 123.452 84.4931 123.452ZM94.2454 116.282C94.5986 116.282 94.9077 116.354 95.1726 116.498C95.2609 116.542 95.294 116.625 95.272 116.746L94.9905 118.236C94.9795 118.369 94.9022 118.407 94.7587 118.352C94.5931 118.297 94.3999 118.269 94.1792 118.269C94.0357 118.269 93.9253 118.275 93.848 118.286C93.3844 118.308 92.9981 118.468 92.689 118.766C92.3799 119.075 92.2254 119.472 92.2254 119.958V124.644C92.2254 124.699 92.2089 124.743 92.1757 124.776C92.1316 124.82 92.0819 124.843 92.0267 124.843H90.5034C90.4483 124.843 90.4041 124.82 90.371 124.776C90.3268 124.743 90.3048 124.699 90.3048 124.644V116.58C90.3048 116.525 90.3268 116.476 90.371 116.431C90.4041 116.398 90.4483 116.382 90.5034 116.382H92.0267C92.0819 116.382 92.1316 116.398 92.1757 116.431C92.2089 116.476 92.2254 116.525 92.2254 116.58V117.326C92.2254 117.37 92.2365 117.392 92.2585 117.392C92.2696 117.403 92.2861 117.392 92.3082 117.359C92.7718 116.641 93.4175 116.282 94.2454 116.282ZM96.729 124.843C96.6738 124.843 96.6297 124.82 96.5966 124.776C96.5524 124.743 96.5303 124.699 96.5303 124.644V113.451C96.5303 113.396 96.5524 113.352 96.5966 113.319C96.6297 113.274 96.6738 113.252 96.729 113.252H98.2523C98.3075 113.252 98.3516 113.274 98.3848 113.319C98.4289 113.352 98.451 113.396 98.451 113.451V119.428C98.451 119.461 98.462 119.483 98.4841 119.495C98.5062 119.506 98.5283 119.495 98.5503 119.461L101.233 116.498C101.31 116.42 101.393 116.382 101.481 116.382H103.236C103.346 116.382 103.402 116.42 103.402 116.498C103.402 116.531 103.385 116.575 103.352 116.63L101.249 119.147C101.216 119.18 101.211 119.219 101.233 119.263L103.716 124.611C103.738 124.655 103.749 124.688 103.749 124.71C103.749 124.798 103.689 124.843 103.567 124.843H101.961C101.851 124.843 101.773 124.793 101.729 124.694L99.9246 120.488C99.9136 120.466 99.8915 120.449 99.8584 120.438C99.8363 120.438 99.8197 120.449 99.8087 120.471L98.4841 121.995C98.462 122.039 98.451 122.077 98.451 122.111V124.644C98.451 124.699 98.4289 124.743 98.3848 124.776C98.3516 124.82 98.3075 124.843 98.2523 124.843H96.729ZM111.713 119.66C111.758 119.936 111.78 120.245 111.78 120.587L111.763 121.101C111.763 121.233 111.697 121.299 111.564 121.299H106.382C106.327 121.299 106.299 121.327 106.299 121.382C106.332 121.746 106.382 121.995 106.448 122.127C106.713 122.922 107.359 123.325 108.385 123.336C109.136 123.336 109.732 123.027 110.174 122.409C110.218 122.342 110.273 122.309 110.339 122.309C110.383 122.309 110.422 122.326 110.455 122.359L111.482 123.203C111.581 123.281 111.598 123.369 111.531 123.468C111.189 123.954 110.731 124.329 110.157 124.594C109.594 124.859 108.965 124.992 108.27 124.992C107.409 124.992 106.674 124.798 106.067 124.412C105.471 124.026 105.035 123.485 104.759 122.789C104.505 122.193 104.379 121.366 104.379 120.306C104.379 119.666 104.445 119.147 104.577 118.749C104.798 117.977 105.217 117.364 105.836 116.912C106.443 116.47 107.177 116.249 108.038 116.249C110.212 116.249 111.437 117.386 111.713 119.66ZM108.038 117.905C107.629 117.905 107.287 118.01 107.011 118.22C106.746 118.418 106.559 118.7 106.448 119.064C106.382 119.252 106.338 119.495 106.316 119.793C106.294 119.848 106.316 119.875 106.382 119.875H109.743C109.798 119.875 109.826 119.848 109.826 119.793C109.804 119.517 109.771 119.307 109.727 119.163C109.627 118.766 109.434 118.457 109.147 118.236C108.849 118.015 108.479 117.905 108.038 117.905ZM117.856 117.739C117.856 117.795 117.84 117.839 117.807 117.872C117.762 117.916 117.713 117.938 117.658 117.938H115.969C115.914 117.938 115.886 117.966 115.886 118.021V122.011C115.886 122.431 115.98 122.734 116.167 122.922C116.344 123.11 116.631 123.203 117.028 123.203H117.525C117.58 123.203 117.624 123.22 117.658 123.253C117.702 123.297 117.724 123.347 117.724 123.402V124.644C117.724 124.765 117.658 124.837 117.525 124.859L116.664 124.876C115.792 124.876 115.141 124.727 114.71 124.429C114.28 124.131 114.059 123.568 114.048 122.74V118.021C114.048 117.966 114.02 117.938 113.965 117.938H113.021C112.966 117.938 112.922 117.916 112.889 117.872C112.845 117.839 112.823 117.795 112.823 117.739V116.58C112.823 116.525 112.845 116.476 112.889 116.431C112.922 116.398 112.966 116.382 113.021 116.382H113.965C114.02 116.382 114.048 116.354 114.048 116.299V114.362C114.048 114.307 114.07 114.257 114.114 114.213C114.147 114.18 114.192 114.163 114.247 114.163H115.687C115.742 114.163 115.787 114.18 115.82 114.213C115.864 114.257 115.886 114.307 115.886 114.362V116.299C115.886 116.354 115.914 116.382 115.969 116.382H117.658C117.713 116.382 117.762 116.398 117.807 116.431C117.84 116.476 117.856 116.525 117.856 116.58V117.739Z"
                                    fill="white"></path>
                                <path
                                    d="M55.3877 148.321C54.5046 148.321 53.732 148.177 53.0697 147.89C52.4074 147.614 51.8996 147.212 51.5464 146.682C51.1821 146.163 51 145.556 51 144.86V144.496C51 144.441 51.0221 144.397 51.0662 144.364C51.0993 144.32 51.1435 144.297 51.1987 144.297H53.0862C53.1414 144.297 53.1911 144.32 53.2352 144.364C53.2684 144.397 53.2849 144.441 53.2849 144.496V144.745C53.2849 145.186 53.4891 145.556 53.8975 145.854C54.306 146.163 54.8579 146.317 55.5533 146.317C56.1383 146.317 56.5743 146.196 56.8613 145.953C57.1483 145.699 57.2918 145.39 57.2918 145.026C57.2918 144.761 57.2035 144.54 57.0269 144.364C56.8503 144.176 56.6074 144.016 56.2984 143.884C56.0003 143.74 55.5202 143.547 54.8579 143.304C54.1183 143.05 53.4891 142.791 52.9703 142.526C52.4626 142.261 52.0376 141.897 51.6954 141.433C51.3422 140.98 51.1656 140.418 51.1656 139.744C51.1656 139.082 51.3367 138.502 51.6789 138.006C52.021 137.509 52.4957 137.128 53.1028 136.863C53.7099 136.598 54.4108 136.466 55.2056 136.466C56.0445 136.466 56.7896 136.615 57.4408 136.913C58.1031 137.211 58.6219 137.63 58.9972 138.171C59.3615 138.701 59.5436 139.319 59.5436 140.026V140.274C59.5436 140.329 59.5271 140.373 59.4939 140.406C59.4498 140.451 59.4001 140.473 59.3449 140.473H57.4408C57.3856 140.473 57.3415 140.451 57.3084 140.406C57.2642 140.373 57.2421 140.329 57.2421 140.274V140.142C57.2421 139.678 57.0545 139.281 56.6792 138.949C56.2928 138.629 55.7685 138.469 55.1062 138.469C54.5874 138.469 54.179 138.58 53.881 138.8C53.594 139.021 53.4505 139.325 53.4505 139.711C53.4505 139.987 53.5388 140.219 53.7154 140.406C53.881 140.594 54.1349 140.76 54.477 140.903C54.8082 141.058 55.327 141.262 56.0334 141.516C56.8172 141.803 57.4298 142.057 57.8713 142.277C58.3239 142.498 58.7323 142.824 59.0966 143.254C59.4498 143.696 59.6264 144.264 59.6264 144.96C59.6264 145.997 59.2456 146.814 58.4839 147.41C57.7223 148.017 56.6902 148.321 55.3877 148.321ZM66.0507 136.582C66.7792 136.582 67.4194 136.731 67.9713 137.029C68.5232 137.327 68.9537 137.746 69.2628 138.287C69.5608 138.839 69.7098 139.468 69.7098 140.175C69.7098 140.87 69.5553 141.483 69.2462 142.013C68.9261 142.542 68.4791 142.956 67.9051 143.254C67.3421 143.541 66.6909 143.685 65.9513 143.685H63.6002C63.545 143.685 63.5174 143.712 63.5174 143.768V147.99C63.5174 148.045 63.4953 148.089 63.4511 148.122C63.418 148.166 63.3739 148.188 63.3187 148.188H61.3815C61.3263 148.188 61.2766 148.166 61.2325 148.122C61.1993 148.089 61.1828 148.045 61.1828 147.99V136.78C61.1828 136.725 61.1993 136.676 61.2325 136.631C61.2766 136.598 61.3263 136.582 61.3815 136.582H66.0507ZM65.703 141.814C66.2107 141.814 66.6191 141.665 66.9282 141.367C67.2373 141.08 67.3918 140.699 67.3918 140.224C67.3918 139.739 67.2373 139.347 66.9282 139.049C66.6191 138.751 66.2107 138.602 65.703 138.602H63.6002C63.545 138.602 63.5174 138.629 63.5174 138.685V141.731C63.5174 141.786 63.545 141.814 63.6002 141.814H65.703ZM77.5084 148.188C77.398 148.188 77.3207 148.139 77.2766 148.039L75.2069 143.453C75.1848 143.409 75.1517 143.387 75.1075 143.387H73.5677C73.5125 143.387 73.4849 143.414 73.4849 143.47V147.99C73.4849 148.045 73.4628 148.089 73.4187 148.122C73.3856 148.166 73.3414 148.188 73.2862 148.188H71.349C71.2938 148.188 71.2442 148.166 71.2 148.122C71.1669 148.089 71.1503 148.045 71.1503 147.99V136.797C71.1503 136.742 71.1669 136.698 71.2 136.665C71.2442 136.62 71.2938 136.598 71.349 136.598H76.0844C76.7909 136.598 77.409 136.742 77.9389 137.029C78.4797 137.316 78.8937 137.724 79.1807 138.254C79.4787 138.784 79.6277 139.396 79.6277 140.092C79.6277 140.842 79.4401 141.483 79.0648 142.013C78.6895 142.553 78.1651 142.934 77.4918 143.155C77.4366 143.177 77.4201 143.216 77.4421 143.271L79.6939 147.957C79.716 148.001 79.727 148.034 79.727 148.056C79.727 148.144 79.6663 148.188 79.5449 148.188H77.5084ZM73.5677 138.602C73.5125 138.602 73.4849 138.629 73.4849 138.685V141.516C73.4849 141.571 73.5125 141.599 73.5677 141.599H75.7367C76.2003 141.599 76.5756 141.461 76.8626 141.185C77.1607 140.909 77.3097 140.55 77.3097 140.108C77.3097 139.667 77.1607 139.303 76.8626 139.016C76.5756 138.74 76.2003 138.602 75.7367 138.602H73.5677ZM81.5152 148.188C81.4601 148.188 81.4159 148.166 81.3828 148.122C81.3386 148.089 81.3166 148.045 81.3166 147.99V136.797C81.3166 136.742 81.3386 136.698 81.3828 136.665C81.4159 136.62 81.4601 136.598 81.5152 136.598H83.4525C83.5076 136.598 83.5573 136.62 83.6015 136.665C83.6346 136.698 83.6511 136.742 83.6511 136.797V147.99C83.6511 148.045 83.6346 148.089 83.6015 148.122C83.5573 148.166 83.5076 148.188 83.4525 148.188H81.5152ZM92.3272 136.797C92.3272 136.742 92.3493 136.698 92.3934 136.665C92.4266 136.62 92.4707 136.598 92.5259 136.598H94.4631C94.5183 136.598 94.568 136.62 94.6121 136.665C94.6452 136.698 94.6618 136.742 94.6618 136.797V147.99C94.6618 148.045 94.6452 148.089 94.6121 148.122C94.568 148.166 94.5183 148.188 94.4631 148.188H92.5921C92.4817 148.188 92.4045 148.144 92.3603 148.056L88.072 140.969C88.0499 140.936 88.0278 140.925 88.0057 140.936C87.9837 140.936 87.9726 140.958 87.9726 141.003L88.0057 147.99C88.0057 148.045 87.9892 148.089 87.9561 148.122C87.9119 148.166 87.8622 148.188 87.807 148.188H85.8698C85.8146 148.188 85.7705 148.166 85.7374 148.122C85.6932 148.089 85.6711 148.045 85.6711 147.99V136.797C85.6711 136.742 85.6932 136.698 85.7374 136.665C85.7705 136.62 85.8146 136.598 85.8698 136.598H87.7408C87.8512 136.598 87.9285 136.642 87.9726 136.731L92.2444 143.784C92.2665 143.817 92.2886 143.828 92.3107 143.817C92.3327 143.817 92.3438 143.795 92.3438 143.751L92.3272 136.797ZM100.755 148.321C99.905 148.321 99.1544 148.15 98.5031 147.808C97.8519 147.465 97.3496 146.991 96.9964 146.384C96.6321 145.766 96.45 145.054 96.45 144.248V140.539C96.45 139.733 96.6321 139.021 96.9964 138.403C97.3496 137.785 97.8519 137.305 98.5031 136.963C99.1544 136.631 99.905 136.466 100.755 136.466C101.594 136.466 102.339 136.631 102.99 136.963C103.63 137.294 104.133 137.746 104.497 138.32C104.85 138.883 105.027 139.512 105.027 140.208V140.324C105.027 140.379 105.01 140.423 104.977 140.456C104.933 140.5 104.883 140.522 104.828 140.522H102.891C102.836 140.522 102.791 140.5 102.758 140.456C102.714 140.423 102.692 140.379 102.692 140.324V140.274C102.692 139.766 102.516 139.341 102.162 138.999C101.809 138.646 101.34 138.469 100.755 138.469C100.159 138.469 99.6842 138.651 99.331 139.016C98.9667 139.391 98.7846 139.877 98.7846 140.473V144.314C98.7846 144.91 98.9778 145.39 99.3641 145.755C99.7504 146.13 100.242 146.317 100.838 146.317C101.412 146.317 101.87 146.163 102.212 145.854C102.554 145.556 102.725 145.136 102.725 144.595V143.85C102.725 143.795 102.698 143.768 102.642 143.768H100.788C100.733 143.768 100.689 143.746 100.656 143.701C100.611 143.668 100.589 143.624 100.589 143.569V142.046C100.589 141.99 100.611 141.946 100.656 141.913C100.689 141.869 100.733 141.847 100.788 141.847H104.828C104.883 141.847 104.933 141.869 104.977 141.913C105.01 141.946 105.027 141.99 105.027 142.046V144.231C105.027 145.07 104.85 145.799 104.497 146.417C104.144 147.035 103.647 147.51 103.007 147.841C102.355 148.161 101.605 148.321 100.755 148.321ZM62.8882 161.65C62.8661 161.672 62.8606 161.694 62.8716 161.716C62.8827 161.738 62.9048 161.749 62.9379 161.749H67.4249C67.4801 161.749 67.5298 161.765 67.5739 161.799C67.607 161.843 67.6236 161.892 67.6236 161.948V163.554C67.6236 163.609 67.607 163.653 67.5739 163.686C67.5298 163.73 67.4801 163.752 67.4249 163.752H59.9741C59.9189 163.752 59.8692 163.73 59.8251 163.686C59.792 163.653 59.7754 163.609 59.7754 163.554V162.03C59.7754 161.931 59.8085 161.848 59.8748 161.782C60.4156 161.252 60.9675 160.678 61.5305 160.06C62.0934 159.431 62.4467 159.039 62.5902 158.885C62.8992 158.52 63.2138 158.173 63.5339 157.841C64.5384 156.727 65.0407 155.899 65.0407 155.358C65.0407 154.971 64.9027 154.651 64.6267 154.397C64.3508 154.155 63.992 154.033 63.5505 154.033C63.109 154.033 62.7502 154.155 62.4743 154.397C62.1983 154.651 62.0603 154.982 62.0603 155.391V155.805C62.0603 155.86 62.0382 155.91 61.9941 155.954C61.961 155.987 61.9168 156.004 61.8616 156.004H59.9079C59.8527 156.004 59.8085 155.987 59.7754 155.954C59.7313 155.91 59.7092 155.86 59.7092 155.805V155.027C59.7423 154.431 59.9299 153.901 60.2721 153.437C60.6143 152.985 61.0669 152.637 61.6298 152.394C62.2038 152.151 62.844 152.03 63.5505 152.03C64.3342 152.03 65.0186 152.173 65.6036 152.46C66.1776 152.758 66.6246 153.156 66.9448 153.652C67.2538 154.149 67.4084 154.701 67.4084 155.308C67.4084 155.772 67.2925 156.246 67.0607 156.732C66.8289 157.218 66.4811 157.742 66.0175 158.305C65.6754 158.735 65.3056 159.16 64.9082 159.58C64.5108 159.999 63.9203 160.606 63.1366 161.401L62.8882 161.65ZM73.0048 163.935C71.7905 163.935 70.8302 163.592 70.1238 162.908C69.4173 162.235 69.0641 161.313 69.0641 160.143V155.772C69.0641 154.624 69.4173 153.713 70.1238 153.04C70.8302 152.366 71.7905 152.03 73.0048 152.03C74.219 152.03 75.1848 152.366 75.9023 153.04C76.6087 153.713 76.962 154.624 76.962 155.772V160.143C76.962 161.313 76.6087 162.235 75.9023 162.908C75.1848 163.592 74.219 163.935 73.0048 163.935ZM73.0048 161.931C73.5015 161.931 73.8988 161.777 74.1969 161.467C74.4839 161.169 74.6274 160.767 74.6274 160.259V155.705C74.6274 155.198 74.4839 154.795 74.1969 154.497C73.8988 154.188 73.5015 154.033 73.0048 154.033C72.5191 154.033 72.1327 154.188 71.8457 154.497C71.5477 154.795 71.3987 155.198 71.3987 155.705V160.259C71.3987 160.767 71.5477 161.169 71.8457 161.467C72.1327 161.777 72.5191 161.931 73.0048 161.931ZM81.598 161.65C81.576 161.672 81.5704 161.694 81.5815 161.716C81.5925 161.738 81.6146 161.749 81.6477 161.749H86.1348C86.1899 161.749 86.2396 161.765 86.2838 161.799C86.3169 161.843 86.3334 161.892 86.3334 161.948V163.554C86.3334 163.609 86.3169 163.653 86.2838 163.686C86.2396 163.73 86.1899 163.752 86.1348 163.752H78.6839C78.6287 163.752 78.5846 163.73 78.5515 163.686C78.5073 163.653 78.4852 163.609 78.4852 163.554V162.03C78.4852 161.931 78.5184 161.848 78.5846 161.782C79.1255 161.252 79.6774 160.678 80.2403 160.06C80.8033 159.431 81.1565 159.039 81.3 158.885C81.6091 158.52 81.9237 158.173 82.2438 157.841C83.2482 156.727 83.7505 155.899 83.7505 155.358C83.7505 154.971 83.6125 154.651 83.3366 154.397C83.0606 154.155 82.7019 154.033 82.2603 154.033C81.8188 154.033 81.4601 154.155 81.1841 154.397C80.9081 154.651 80.7702 154.982 80.7702 155.391V155.805C80.7702 155.86 80.7536 155.91 80.7205 155.954C80.6763 155.987 80.6267 156.004 80.5715 156.004H78.6177C78.5625 156.004 78.5184 155.987 78.4852 155.954C78.4411 155.91 78.419 155.86 78.419 155.805V155.027C78.4521 154.431 78.6398 153.901 78.982 153.437C79.3242 152.985 79.7822 152.637 80.3562 152.394C80.9192 152.151 81.5539 152.03 82.2603 152.03C83.044 152.03 83.7284 152.173 84.3134 152.46C84.8874 152.758 85.3345 153.156 85.6546 153.652C85.9637 154.149 86.1182 154.701 86.1182 155.308C86.1182 155.772 86.0023 156.246 85.7705 156.732C85.5387 157.218 85.191 157.742 84.7274 158.305C84.3852 158.735 84.0154 159.16 83.618 159.58C83.2207 159.999 82.6301 160.606 81.8464 161.401L81.598 161.65ZM96.0526 158.702C96.1078 158.702 96.1575 158.719 96.2016 158.752C96.2348 158.796 96.2513 158.846 96.2513 158.901V160.573C96.2513 160.629 96.2348 160.678 96.2016 160.722C96.1575 160.755 96.1078 160.772 96.0526 160.772H95.3407C95.2855 160.772 95.2579 160.8 95.2579 160.855V163.554C95.2579 163.609 95.2413 163.653 95.2082 163.686C95.164 163.73 95.1144 163.752 95.0592 163.752H93.122C93.0668 163.752 93.0226 163.73 92.9895 163.686C92.9454 163.653 92.9233 163.609 92.9233 163.554V160.855C92.9233 160.8 92.8957 160.772 92.8405 160.772H87.7574C87.7022 160.772 87.658 160.755 87.6249 160.722C87.5808 160.678 87.5587 160.629 87.5587 160.573V159.249C87.5587 159.183 87.5752 159.1 87.6084 159L90.5887 152.311C90.6328 152.212 90.7101 152.162 90.8205 152.162H92.8902C92.9674 152.162 93.0226 152.184 93.0557 152.228C93.0778 152.262 93.0723 152.317 93.0392 152.394L90.2741 158.603C90.2631 158.625 90.2631 158.647 90.2741 158.669C90.2851 158.691 90.3017 158.702 90.3238 158.702H92.8405C92.8957 158.702 92.9233 158.675 92.9233 158.62V156.566C92.9233 156.511 92.9454 156.467 92.9895 156.434C93.0226 156.39 93.0668 156.368 93.122 156.368H95.0592C95.1144 156.368 95.164 156.39 95.2082 156.434C95.2413 156.467 95.2579 156.511 95.2579 156.566V158.62C95.2579 158.675 95.2855 158.702 95.3407 158.702H96.0526Z"
                                    fill="#252530"></path>
                            </svg>