<svg width="136" height="202" xmlns="http://www.w3.org/2000/svg" viewBox="0 0 156 202"
                                fill="none">
                                <path d="M13.4116 148.851L78.8133 182.131L141.731 148.851V18.7097H13.4116V148.851Z"
                                    fill="white"></path>
                                <path d="M143.056 19.2065L12.0869 151.169L79.9722 184.78L143.056 152.493V19.2065Z"
                                    fill="#F2F3F2"></path>
                                <path
                                    d="M9.10645 62.0903V151.666L11.4245 152.825L76.8261 186.105L78.813 187.098L80.7999 186.105L143.884 152.825L146.202 151.666V14.405H9.10645V62.0903ZM13.4114 149.182V18.7099H141.897V149.182L78.813 182.462L13.4114 149.182Z"
                                    fill="#DCDEDC"></path>
                                <path
                                    d="M77.6539 20.8624C78.3162 20.8624 78.9785 20.8624 79.6408 21.028L77.6539 24.8362C74.6735 24.6706 72.0244 26.9886 71.8588 29.969C71.6932 32.9493 74.0112 35.5985 76.9916 35.764H77.6539C78.9785 35.764 80.303 35.2673 81.2965 34.4395L83.449 38.0821C81.7932 39.2411 79.8063 39.9034 77.6539 39.9034C72.3555 40.069 67.885 36.0952 67.7194 30.7968C67.5539 25.4985 71.5276 21.028 76.826 20.8624H77.6539ZM84.4424 28.9755L86.926 33.1149L84.4424 37.0886L82.1244 33.1149H77.3227L79.8063 28.9755H84.4424ZM80.4686 27.4854C80.4686 26.8231 80.6342 26.1608 80.9653 25.664C81.2965 25.1673 81.9588 24.6706 82.4555 24.3395L82.7867 24.1739C83.449 23.8427 83.6145 23.6772 83.6145 23.346C83.6145 23.0149 83.1178 22.6837 82.7867 22.6837C82.1244 22.6837 81.6276 23.0149 81.2965 23.6772L80.4686 22.8493C80.6342 22.5181 80.9653 22.187 81.2965 21.8558C81.7932 21.5247 82.2899 21.5247 82.7867 21.5247C83.2834 21.5247 83.9457 21.6903 84.2768 22.0214C84.608 22.3526 84.9391 22.8493 84.9391 23.346C84.9391 24.1739 84.4424 24.8362 83.449 25.1673L82.9522 25.4985C82.4555 25.8296 82.1244 25.9952 81.9588 26.4919H84.9391V27.6509L80.4686 27.4854ZM77.6539 48.1821L93.3834 39.2411V14.405H61.7588V39.0755L77.6539 48.1821Z"
                                    fill="#FF492C"></path>
                                <path
                                    d="M149.347 106.795H5.96047L0.662109 118.385L5.96047 129.975H149.347L154.48 118.385L149.347 106.795Z"
                                    fill="#5A39A2"></path>
                                <path
                                    d="M34.9872 99.3444C34.8768 99.3444 34.794 99.2892 34.7389 99.1788L32.4705 94.1288C32.4374 94.0846 32.3987 94.0626 32.3546 94.0626H30.6657C30.5995 94.0626 30.5664 94.0957 30.5664 94.1619V99.1291C30.5664 99.1843 30.5443 99.234 30.5002 99.2781C30.467 99.3223 30.4174 99.3444 30.3511 99.3444H28.2152C28.1601 99.3444 28.1104 99.3223 28.0662 99.2781C28.0221 99.234 28 99.1843 28 99.1291V86.8104C28 86.7552 28.0221 86.7056 28.0662 86.6614C28.1104 86.6173 28.1601 86.5952 28.2152 86.5952H33.4308C34.2035 86.5952 34.8879 86.7552 35.4839 87.0753C36.069 87.3844 36.5215 87.8315 36.8416 88.4165C37.1617 89.0015 37.3218 89.6748 37.3218 90.4365C37.3218 91.2644 37.1176 91.9708 36.7092 92.5558C36.2897 93.1519 35.7102 93.5714 34.9707 93.8142C34.9155 93.8363 34.8989 93.8749 34.921 93.9301L37.4046 99.096C37.4267 99.1401 37.4377 99.1733 37.4377 99.1953C37.4377 99.2947 37.3715 99.3444 37.239 99.3444H34.9872ZM30.6657 88.7973C30.5995 88.7973 30.5664 88.8304 30.5664 88.8967V92.0094C30.5664 92.0646 30.5995 92.0922 30.6657 92.0922H33.05C33.5578 92.0922 33.9717 91.9432 34.2918 91.6452C34.6119 91.3361 34.772 90.9387 34.772 90.453C34.772 89.9674 34.6119 89.57 34.2918 89.2609C33.9717 88.9518 33.5578 88.7973 33.05 88.7973H30.6657ZM47.1734 93.6983C47.2507 94.1619 47.2783 94.6807 47.2562 95.2547C47.2452 95.3982 47.1624 95.4699 47.0079 95.4699H41.3949C41.3177 95.4699 41.2901 95.4975 41.3121 95.5527C41.3452 95.7956 41.4115 96.0384 41.5108 96.2812C41.8309 96.9656 42.4767 97.3078 43.448 97.3078C44.2207 97.2968 44.8333 96.9822 45.2859 96.364C45.3301 96.2868 45.3852 96.2481 45.4515 96.2481C45.4846 96.2481 45.5287 96.2702 45.5839 96.3144L46.892 97.6224C46.9472 97.6776 46.9748 97.7273 46.9748 97.7714C46.9748 97.8045 46.9527 97.8542 46.9085 97.9204C46.5111 98.4171 45.9923 98.8035 45.3521 99.0794C44.723 99.3554 44.0331 99.4934 43.2825 99.4934C42.2338 99.4934 41.3508 99.2561 40.6333 98.7814C39.9048 98.3068 39.386 97.6445 39.0769 96.7945C38.823 96.1874 38.6961 95.3927 38.6961 94.4103C38.6961 93.7369 38.7844 93.1464 38.961 92.6386C39.248 91.7776 39.7392 91.0933 40.4346 90.5855C41.13 90.0777 41.9579 89.8239 42.9182 89.8239C44.1324 89.8239 45.1093 90.1771 45.8489 90.8835C46.5774 91.5789 47.0189 92.5172 47.1734 93.6983ZM42.9348 92.0426C42.1731 92.0426 41.6709 92.4013 41.428 93.1188C41.3728 93.2733 41.3287 93.4665 41.2956 93.6983C41.2956 93.7645 41.3287 93.7976 41.3949 93.7976H44.5408C44.607 93.7976 44.6291 93.7645 44.607 93.6983C44.5519 93.3451 44.5243 93.174 44.5243 93.185C44.4139 92.8207 44.2207 92.5393 43.9448 92.3406C43.6688 92.1419 43.3321 92.0426 42.9348 92.0426ZM52.952 99.4934C51.9806 99.4934 51.1417 99.2505 50.4352 98.7649C49.7178 98.2792 49.21 97.6114 48.912 96.7614C48.7022 96.1543 48.5974 95.4368 48.5974 94.6089C48.5974 93.7921 48.7022 93.0857 48.912 92.4896C49.199 91.6728 49.7012 91.027 50.4187 90.5524C51.1362 90.0777 51.9806 89.8404 52.952 89.8404C53.9233 89.8404 54.7788 90.0833 55.5184 90.5689C56.2469 91.0546 56.7326 91.6673 56.9754 92.4068C57.0748 92.6938 57.1244 92.9146 57.1244 93.0691V93.1022C57.1244 93.2126 57.0637 93.2788 56.9423 93.3009L54.8395 93.6155H54.8064C54.696 93.6155 54.6243 93.5548 54.5911 93.4334L54.5415 93.1353C54.4532 92.8152 54.2655 92.5558 53.9785 92.3571C53.6805 92.1474 53.3328 92.0426 52.9354 92.0426C52.5491 92.0426 52.2234 92.1419 51.9585 92.3406C51.6826 92.5282 51.4894 92.7932 51.379 93.1353C51.2466 93.4996 51.1803 93.9963 51.1803 94.6255C51.1803 95.2547 51.241 95.7514 51.3625 96.1157C51.4728 96.4799 51.666 96.7669 51.942 96.9767C52.2179 97.1864 52.5491 97.2912 52.9354 97.2912C53.3107 97.2912 53.6419 97.1919 53.9288 96.9932C54.2158 96.7835 54.4145 96.5075 54.5249 96.1653C54.536 96.1322 54.5415 96.0936 54.5415 96.0494C54.5525 96.0384 54.558 96.0218 54.558 95.9998C54.5691 95.8452 54.6519 95.7845 54.8064 95.8176L56.9092 96.1322C57.0306 96.1653 57.0913 96.2371 57.0913 96.3475C57.0913 96.4358 57.0527 96.6179 56.9754 96.8939C56.7215 97.6997 56.2303 98.3344 55.5018 98.798C54.7622 99.2616 53.9123 99.4934 52.952 99.4934ZM62.638 99.4934C61.6225 99.4934 60.7505 99.2229 60.022 98.6821C59.2934 98.1522 58.7967 97.4237 58.5318 96.4965C58.3552 95.9335 58.2669 95.3154 58.2669 94.6421C58.2669 93.9246 58.3552 93.2844 58.5318 92.7214C58.8078 91.8163 59.31 91.1098 60.0385 90.6021C60.7671 90.0943 61.6391 89.8404 62.6546 89.8404C63.6591 89.8404 64.509 90.0888 65.2044 90.5855C65.9109 91.0933 66.4131 91.7997 66.7111 92.7049C66.8988 93.312 66.9926 93.9467 66.9926 94.6089C66.9926 95.2602 66.9098 95.8728 66.7443 96.4468C66.4793 97.3961 65.9826 98.1412 65.2541 98.6821C64.5366 99.2229 63.6646 99.4934 62.638 99.4934ZM62.638 97.2912C63.0464 97.2912 63.3886 97.1698 63.6646 96.927C63.9405 96.6841 64.1392 96.3475 64.2607 95.917C64.36 95.5306 64.4097 95.1057 64.4097 94.6421C64.4097 94.1343 64.36 93.7038 64.2607 93.3506C64.1282 92.9422 63.924 92.6221 63.648 92.3903C63.3721 92.1585 63.0299 92.0426 62.6215 92.0426C62.2131 92.0426 61.8709 92.1585 61.5949 92.3903C61.319 92.6221 61.1203 92.9422 60.9989 93.3506C60.9105 93.6486 60.8664 94.0791 60.8664 94.6421C60.8664 95.194 60.905 95.6189 60.9823 95.917C61.1037 96.3475 61.3079 96.6841 61.5949 96.927C61.8819 97.1698 62.2296 97.2912 62.638 97.2912ZM79.0298 89.8404C79.9791 89.8404 80.7242 90.1274 81.2651 90.7014C81.7949 91.2644 82.0598 92.0646 82.0598 93.1022V99.1291C82.0598 99.1843 82.0378 99.234 81.9936 99.2781C81.9495 99.3223 81.8998 99.3444 81.8446 99.3444H79.7087C79.6425 99.3444 79.5928 99.3223 79.5597 99.2781C79.5155 99.234 79.4934 99.1843 79.4934 99.1291V93.6652C79.4934 93.1685 79.3665 92.7711 79.1126 92.473C78.8587 92.186 78.5166 92.0426 78.0861 92.0426C77.6666 92.0426 77.3189 92.186 77.043 92.473C76.778 92.7711 76.6456 93.1629 76.6456 93.6486V99.1291C76.6456 99.1843 76.6235 99.234 76.5793 99.2781C76.5462 99.3223 76.4966 99.3444 76.4303 99.3444H74.311C74.2558 99.3444 74.2061 99.3223 74.162 99.2781C74.1178 99.234 74.0957 99.1843 74.0957 99.1291V93.6652C74.0957 93.1795 73.9633 92.7876 73.6984 92.4896C73.4334 92.1916 73.0857 92.0426 72.6552 92.0426C72.2689 92.0426 71.9433 92.1585 71.6784 92.3903C71.4245 92.6221 71.2699 92.9422 71.2148 93.3506V99.1291C71.2148 99.1843 71.1982 99.234 71.1651 99.2781C71.1209 99.3223 71.0657 99.3444 70.9995 99.3444H68.8802C68.8139 99.3444 68.7587 99.3223 68.7146 99.2781C68.6704 99.234 68.6484 99.1843 68.6484 99.1291V90.2047C68.6484 90.1385 68.6704 90.0833 68.7146 90.0391C68.7587 90.006 68.8139 89.9894 68.8802 89.9894H70.9995C71.0657 89.9894 71.1209 90.006 71.1651 90.0391C71.1982 90.0833 71.2148 90.1385 71.2148 90.2047V90.9167C71.2148 90.9498 71.2313 90.9718 71.2644 90.9829C71.2865 90.9939 71.3086 90.9829 71.3307 90.9498C71.8274 90.2102 72.6001 89.8404 73.6487 89.8404C74.2558 89.8404 74.7856 89.9674 75.2382 90.2212C75.6908 90.4751 76.0385 90.8394 76.2813 91.314C76.3144 91.3803 76.3586 91.3803 76.4138 91.314C76.6787 90.8173 77.0374 90.4475 77.49 90.2047C77.9536 89.9618 78.4669 89.8404 79.0298 89.8404ZM94.2461 89.8404C95.1954 89.8404 95.9349 90.1274 96.4648 90.7014C96.9946 91.2644 97.2595 92.0646 97.2595 93.1022V99.1291C97.2595 99.1843 97.243 99.234 97.2098 99.2781C97.1657 99.3223 97.1105 99.3444 97.0443 99.3444H94.9249C94.8587 99.3444 94.8035 99.3223 94.7593 99.2781C94.7152 99.234 94.6931 99.1843 94.6931 99.1291V93.6652C94.6931 93.1685 94.5662 92.7711 94.3123 92.473C94.0584 92.186 93.7218 92.0426 93.3023 92.0426C92.8718 92.0426 92.5241 92.186 92.2592 92.473C91.9943 92.7711 91.8618 93.1629 91.8618 93.6486V99.1291C91.8618 99.1843 91.8397 99.234 91.7956 99.2781C91.7514 99.3223 91.6962 99.3444 91.63 99.3444H89.5272C89.461 99.3444 89.4113 99.3223 89.3782 99.2781C89.334 99.234 89.312 99.1843 89.312 99.1291V93.6652C89.312 93.1795 89.174 92.7876 88.898 92.4896C88.6331 92.1916 88.2909 92.0426 87.8715 92.0426C87.4851 92.0426 87.1595 92.1585 86.8946 92.3903C86.6297 92.6221 86.4751 92.9422 86.431 93.3506V99.1291C86.431 99.1843 86.4089 99.234 86.3648 99.2781C86.3206 99.3223 86.2709 99.3444 86.2157 99.3444H84.0798C84.0136 99.3444 83.9639 99.3223 83.9308 99.2781C83.8867 99.234 83.8646 99.1843 83.8646 99.1291V90.2047C83.8646 90.1385 83.8867 90.0833 83.9308 90.0391C83.9639 90.006 84.0136 89.9894 84.0798 89.9894H86.2157C86.2709 89.9894 86.3206 90.006 86.3648 90.0391C86.4089 90.0833 86.431 90.1385 86.431 90.2047V90.9167C86.431 90.9498 86.442 90.9718 86.4641 90.9829C86.4862 90.9939 86.5083 90.9829 86.5303 90.9498C87.0381 90.2102 87.8108 89.8404 88.8484 89.8404C89.4555 89.8404 89.9853 89.9674 90.4379 90.2212C90.9015 90.4751 91.2547 90.8394 91.4975 91.314C91.5307 91.3803 91.5693 91.3803 91.6134 91.314C91.8894 90.8173 92.2537 90.4475 92.7062 90.2047C93.1588 89.9618 93.6721 89.8404 94.2461 89.8404ZM107.293 93.6983C107.371 94.1619 107.398 94.6807 107.376 95.2547C107.365 95.3982 107.288 95.4699 107.144 95.4699H101.515C101.437 95.4699 101.41 95.4975 101.432 95.5527C101.476 95.7956 101.542 96.0384 101.631 96.2812C101.951 96.9656 102.597 97.3078 103.568 97.3078C104.341 97.2968 104.953 96.9822 105.406 96.364C105.45 96.2868 105.505 96.2481 105.571 96.2481C105.604 96.2481 105.649 96.2702 105.704 96.3144L107.012 97.6224C107.067 97.6776 107.095 97.7273 107.095 97.7714C107.095 97.8045 107.073 97.8542 107.028 97.9204C106.631 98.4171 106.112 98.8035 105.472 99.0794C104.843 99.3554 104.153 99.4934 103.402 99.4934C102.365 99.4934 101.482 99.2561 100.753 98.7814C100.036 98.3068 99.5168 97.6445 99.1967 96.7945C98.9428 96.1874 98.8159 95.3927 98.8159 94.4103C98.8159 93.7369 98.9042 93.1464 99.0808 92.6386C99.3678 91.7776 99.859 91.0933 100.554 90.5855C101.25 90.0777 102.078 89.8239 103.038 89.8239C104.252 89.8239 105.229 90.1771 105.969 90.8835C106.697 91.5789 107.139 92.5172 107.293 93.6983ZM103.055 92.0426C102.293 92.0426 101.791 92.4013 101.548 93.1188C101.504 93.2733 101.46 93.4665 101.415 93.6983C101.415 93.7645 101.449 93.7976 101.515 93.7976H104.661C104.738 93.7976 104.76 93.7645 104.727 93.6983C104.672 93.3451 104.644 93.174 104.644 93.185C104.534 92.8207 104.341 92.5393 104.065 92.3406C103.8 92.1419 103.463 92.0426 103.055 92.0426ZM113.833 89.8404C114.805 89.8404 115.589 90.1385 116.185 90.7345C116.781 91.3306 117.079 92.1364 117.079 93.1519V99.1291C117.079 99.1843 117.057 99.234 117.012 99.2781C116.968 99.3223 116.919 99.3444 116.863 99.3444H114.728C114.672 99.3444 114.623 99.3223 114.579 99.2781C114.534 99.234 114.512 99.1843 114.512 99.1291V93.6817C114.512 93.1961 114.374 92.7987 114.098 92.4896C113.833 92.1916 113.475 92.0426 113.022 92.0426C112.57 92.0426 112.205 92.1916 111.929 92.4896C111.664 92.7987 111.532 93.1961 111.532 93.6817V99.1291C111.532 99.1843 111.51 99.234 111.466 99.2781C111.422 99.3223 111.366 99.3444 111.3 99.3444H109.181C109.115 99.3444 109.059 99.3223 109.015 99.2781C108.982 99.234 108.966 99.1843 108.966 99.1291V90.2047C108.966 90.1385 108.982 90.0833 109.015 90.0391C109.059 90.006 109.115 89.9894 109.181 89.9894H111.3C111.366 89.9894 111.422 90.006 111.466 90.0391C111.51 90.0833 111.532 90.1385 111.532 90.2047V90.8339C111.532 90.878 111.543 90.9056 111.565 90.9167C111.587 90.9277 111.604 90.9222 111.615 90.9001C112.111 90.1936 112.851 89.8404 113.833 89.8404ZM124.679 86.8104C124.679 86.7552 124.701 86.7056 124.745 86.6614C124.789 86.6173 124.839 86.5952 124.894 86.5952H127.03C127.085 86.5952 127.135 86.6173 127.179 86.6614C127.223 86.7056 127.245 86.7552 127.245 86.8104V99.1291C127.245 99.1843 127.223 99.234 127.179 99.2781C127.135 99.3223 127.085 99.3444 127.03 99.3444H124.894C124.839 99.3444 124.789 99.3223 124.745 99.2781C124.701 99.234 124.679 99.1843 124.679 99.1291V98.533C124.679 98.4889 124.667 98.4668 124.645 98.4668C124.612 98.4558 124.585 98.4613 124.563 98.4834C124.055 99.1567 123.359 99.4934 122.476 99.4934C121.626 99.4934 120.892 99.2561 120.274 98.7814C119.667 98.3068 119.226 97.6555 118.95 96.8276C118.751 96.1985 118.652 95.4644 118.652 94.6255C118.652 93.7645 118.762 93.0139 118.983 92.3737C119.259 91.59 119.695 90.9718 120.291 90.5193C120.898 90.0667 121.643 89.8404 122.526 89.8404C123.398 89.8404 124.077 90.144 124.563 90.7511C124.585 90.7842 124.612 90.7952 124.645 90.7842C124.667 90.7732 124.679 90.7511 124.679 90.718V86.8104ZM124.298 96.4965C124.541 96.055 124.662 95.4423 124.662 94.6586C124.662 93.8528 124.53 93.2181 124.265 92.7545C123.978 92.2799 123.569 92.0426 123.039 92.0426C122.465 92.0426 122.035 92.2799 121.748 92.7545C121.439 93.2292 121.284 93.8694 121.284 94.6752C121.284 95.4037 121.411 96.0108 121.665 96.4965C121.974 97.0263 122.427 97.2912 123.023 97.2912C123.564 97.2912 123.989 97.0263 124.298 96.4965ZM43.5474 81.1312C43.4922 81.1312 43.4425 81.1092 43.3984 81.065C43.3542 81.0209 43.3321 80.9712 43.3321 80.916V68.5973C43.3321 68.5421 43.3542 68.4924 43.3984 68.4483C43.4425 68.4041 43.4922 68.3821 43.5474 68.3821H45.6833C45.7495 68.3821 45.7992 68.4041 45.8323 68.4483C45.8764 68.4924 45.8985 68.5421 45.8985 68.5973V78.8298C45.8985 78.896 45.9316 78.9291 45.9979 78.9291H51.942C52.0082 78.9291 52.0634 78.9512 52.1075 78.9953C52.1517 79.0395 52.1738 79.0892 52.1738 79.1444V80.916C52.1738 80.9712 52.1517 81.0209 52.1075 81.065C52.0634 81.1092 52.0082 81.1312 51.942 81.1312H43.5474ZM54.972 70.7167C54.5636 70.7167 54.2214 70.5787 53.9454 70.3027C53.6695 70.0268 53.5315 69.6846 53.5315 69.2762C53.5315 68.8457 53.6639 68.498 53.9288 68.233C54.1938 67.9681 54.5415 67.8357 54.972 67.8357C55.3914 67.8357 55.7391 67.9681 56.0151 68.233C56.28 68.498 56.4125 68.8457 56.4125 69.2762C56.4125 69.6846 56.2745 70.0268 55.9985 70.3027C55.7226 70.5787 55.3804 70.7167 54.972 70.7167ZM53.8792 81.1312C53.813 81.1312 53.7633 81.1092 53.7302 81.065C53.686 81.0209 53.6639 80.9712 53.6639 80.916V71.975C53.6639 71.9088 53.686 71.8536 53.7302 71.8094C53.7633 71.7653 53.813 71.7432 53.8792 71.7432H56.0151C56.0703 71.7432 56.1199 71.7653 56.1641 71.8094C56.2083 71.8536 56.2303 71.9088 56.2303 71.975V80.916C56.2303 80.9712 56.2083 81.0209 56.1641 81.065C56.1199 81.1092 56.0703 81.1312 56.0151 81.1312H53.8792ZM58.449 81.1312C58.3938 81.1312 58.3442 81.1092 58.3 81.065C58.2558 81.0209 58.2338 80.9712 58.2338 80.916V68.5973C58.2338 68.5421 58.2558 68.4924 58.3 68.4483C58.3442 68.4041 58.3938 68.3821 58.449 68.3821H60.5849C60.6401 68.3821 60.6898 68.4041 60.7339 68.4483C60.7781 68.4924 60.8002 68.5421 60.8002 68.5973V74.7401C60.8002 74.7732 60.8112 74.7953 60.8333 74.8063C60.8554 74.8063 60.883 74.7953 60.9161 74.7732L63.3831 71.8922C63.4714 71.815 63.5652 71.7763 63.6646 71.7763H66.082C66.2034 71.7763 66.2641 71.815 66.2641 71.8922C66.2641 71.9364 66.2475 71.986 66.2144 72.0412L63.8964 74.9719C63.8743 75.0271 63.8688 75.0712 63.8798 75.1044L66.5952 80.8829C66.6173 80.927 66.6284 80.9601 66.6284 80.9822C66.6284 81.0816 66.5621 81.1312 66.4297 81.1312H64.1944C64.073 81.1312 63.9847 81.0761 63.9295 80.9657L62.1248 76.7104C62.1137 76.6883 62.0916 76.6718 62.0585 76.6607C62.0364 76.6497 62.0199 76.6608 62.0089 76.6939L60.8333 78.1509C60.8112 78.1951 60.8002 78.2282 60.8002 78.2503V80.916C60.8002 80.9712 60.7781 81.0209 60.7339 81.065C60.6898 81.1092 60.6401 81.1312 60.5849 81.1312H58.449ZM75.3872 75.4852C75.4645 75.9488 75.4866 76.4676 75.4534 77.0416C75.4424 77.1851 75.3651 77.2568 75.2216 77.2568H69.5921C69.5259 77.2568 69.5038 77.2844 69.5259 77.3396C69.559 77.5824 69.6252 77.8253 69.7246 78.0681C70.0447 78.7525 70.6904 79.0947 71.6618 79.0947C72.4345 79.0836 73.0471 78.7691 73.4997 78.1509C73.5438 78.0736 73.599 78.035 73.6652 78.035C73.6984 78.035 73.737 78.0571 73.7811 78.1012L75.0892 79.4093C75.1554 79.4645 75.1885 79.5141 75.1885 79.5583C75.1885 79.5914 75.1665 79.6411 75.1223 79.7073C74.7139 80.204 74.1951 80.5904 73.5659 80.8663C72.9367 81.1423 72.2468 81.2803 71.4962 81.2803C70.4476 81.2803 69.5645 81.0429 68.8471 80.5683C68.1185 80.0936 67.5997 79.4314 67.2907 78.5814C67.0257 77.9743 66.8933 77.1795 66.8933 76.1971C66.8933 75.5238 66.9871 74.9333 67.1748 74.4255C67.4507 73.5645 67.9419 72.8801 68.6484 72.3724C69.3438 71.8646 70.1716 71.6108 71.132 71.6108C72.3462 71.6108 73.3175 71.964 74.0461 72.6704C74.7856 73.3658 75.2327 74.3041 75.3872 75.4852ZM71.1485 73.8294C70.3758 73.8294 69.8681 74.1882 69.6252 74.9057C69.5811 75.0602 69.5425 75.2534 69.5093 75.4852C69.5093 75.5514 69.5369 75.5845 69.5921 75.5845H72.7546C72.8208 75.5845 72.8429 75.5514 72.8208 75.4852C72.7546 75.132 72.7215 74.9609 72.7215 74.9719C72.6221 74.6076 72.4345 74.3262 72.1585 74.1275C71.8826 73.9288 71.5459 73.8294 71.1485 73.8294ZM77.2582 81.1312C77.203 81.1312 77.1533 81.1092 77.1092 81.065C77.065 81.0209 77.043 80.9712 77.043 80.916V68.5973C77.043 68.5421 77.065 68.4924 77.1092 68.4483C77.1533 68.4041 77.203 68.3821 77.2582 68.3821H79.3941C79.4603 68.3821 79.51 68.4041 79.5431 68.4483C79.5873 68.4924 79.6093 68.5421 79.6093 68.5973V80.916C79.6093 80.9712 79.5873 81.0209 79.5431 81.065C79.51 81.1092 79.4603 81.1312 79.3941 81.1312H77.2582ZM81.4307 84.7573C81.3975 84.7573 81.3699 84.7352 81.3479 84.6911C81.3258 84.6469 81.3148 84.5973 81.3148 84.5421V82.8532C81.3148 82.798 81.3313 82.7483 81.3644 82.7042C81.4086 82.66 81.4638 82.638 81.53 82.638C82.0378 82.6269 82.4407 82.5883 82.7387 82.5221C83.0367 82.4448 83.274 82.3013 83.4507 82.0916C83.6273 81.8929 83.7652 81.5893 83.8646 81.1809C83.8756 81.1588 83.8756 81.1257 83.8646 81.0816L80.8677 72.0081C80.8567 71.9861 80.8511 71.9529 80.8511 71.9088C80.8511 71.7984 80.9174 71.7432 81.0498 71.7432H83.3348C83.4672 71.7432 83.55 71.8094 83.5831 71.9419L85.1064 77.8363C85.1285 77.8694 85.1505 77.886 85.1726 77.886C85.1947 77.886 85.2113 77.8694 85.2223 77.8363L86.7456 71.9419C86.7897 71.8094 86.878 71.7432 87.0105 71.7432H89.2292C89.3064 71.7432 89.3561 71.7653 89.3782 71.8094C89.4113 71.8536 89.4168 71.9198 89.3948 72.0081L86.2489 81.4789C85.9398 82.362 85.6307 83.0243 85.3216 83.4658C85.0015 83.9074 84.5545 84.233 83.9805 84.4427C83.4175 84.6524 82.6117 84.7573 81.5631 84.7573H81.4307ZM103.27 68.3821C103.336 68.3821 103.391 68.4041 103.435 68.4483C103.469 68.4924 103.485 68.5421 103.485 68.5973V70.3855C103.485 70.4517 103.469 70.5014 103.435 70.5345C103.391 70.5787 103.336 70.6007 103.27 70.6007H100.008C99.9528 70.6007 99.9253 70.6339 99.9253 70.7001V80.916C99.9253 80.9712 99.9032 81.0209 99.859 81.065C99.8149 81.1092 99.7652 81.1312 99.71 81.1312H97.5741C97.5079 81.1312 97.4582 81.1092 97.4251 81.065C97.3809 81.0209 97.3589 80.9712 97.3589 80.916V70.7001C97.3589 70.6339 97.3257 70.6007 97.2595 70.6007H94.097C94.0308 70.6007 93.9756 70.5787 93.9315 70.5345C93.8984 70.5014 93.8818 70.4517 93.8818 70.3855V68.5973C93.8818 68.5421 93.8984 68.4924 93.9315 68.4483C93.9756 68.4041 94.0308 68.3821 94.097 68.3821H103.27ZM107.575 81.2803C106.548 81.2803 105.671 81.0098 104.942 80.4689C104.214 79.9391 103.717 79.2106 103.452 78.2834C103.286 77.7204 103.204 77.1023 103.204 76.4289C103.204 75.7115 103.286 75.0712 103.452 74.5083C103.728 73.6032 104.236 72.8967 104.975 72.3889C105.693 71.8812 106.565 71.6273 107.591 71.6273C108.585 71.6273 109.435 71.8757 110.141 72.3724C110.848 72.8801 111.344 73.5866 111.631 74.4917C111.83 75.0988 111.929 75.7335 111.929 76.3958C111.929 77.0471 111.841 77.6597 111.664 78.2337C111.4 79.183 110.908 79.9281 110.191 80.4689C109.462 81.0098 108.59 81.2803 107.575 81.2803ZM107.575 79.0781C107.972 79.0781 108.309 78.9567 108.585 78.7139C108.872 78.471 109.076 78.1344 109.197 77.7039C109.297 77.3175 109.346 76.8926 109.346 76.4289C109.346 75.9212 109.297 75.4907 109.197 75.1375C109.065 74.7291 108.855 74.4089 108.568 74.1771C108.292 73.9453 107.956 73.8294 107.558 73.8294C107.139 73.8294 106.797 73.9453 106.532 74.1771C106.256 74.4089 106.057 74.7291 105.936 75.1375C105.836 75.4355 105.787 75.866 105.787 76.4289C105.787 76.9809 105.831 77.4058 105.919 77.7039C106.04 78.1344 106.245 78.471 106.532 78.7139C106.808 78.9567 107.155 79.0781 107.575 79.0781ZM38.5139 63.0671C37.5867 63.0671 36.7644 62.885 36.0469 62.5207C35.3404 62.1565 34.7885 61.6432 34.3911 60.9809C34.0048 60.3186 33.8116 59.557 33.8116 58.696V50.3842C33.8116 50.329 33.8282 50.2793 33.8613 50.2352C33.9055 50.191 33.9607 50.1689 34.0269 50.1689H36.1462C36.2125 50.1689 36.2676 50.191 36.3118 50.2352C36.356 50.2793 36.378 50.329 36.378 50.3842V58.7126C36.378 59.3528 36.5712 59.8716 36.9575 60.2689C37.3549 60.6663 37.8737 60.865 38.5139 60.865C39.1652 60.865 39.6895 60.6663 40.0869 60.2689C40.4732 59.8716 40.6664 59.3528 40.6664 58.7126V50.3842C40.6664 50.329 40.6885 50.2793 40.7326 50.2352C40.7768 50.191 40.8264 50.1689 40.8816 50.1689H43.0175C43.0838 50.1689 43.139 50.191 43.1831 50.2352C43.2162 50.2793 43.2328 50.329 43.2328 50.3842V58.696C43.2328 59.557 43.0396 60.3186 42.6533 60.9809C42.2559 61.6432 41.704 62.1565 40.9975 62.5207C40.2801 62.885 39.4522 63.0671 38.5139 63.0671ZM48.9285 63.0506C48.1117 63.0506 47.3997 62.9347 46.7926 62.7029C46.1855 62.4711 45.7164 62.151 45.3852 61.7426C45.0431 61.3231 44.872 60.854 44.872 60.3352V60.153C44.872 60.0868 44.894 60.0316 44.9382 59.9875C44.9823 59.9544 45.0375 59.9378 45.1038 59.9378H47.1238C47.179 59.9378 47.2286 59.9544 47.2728 59.9875C47.3169 60.0316 47.339 60.0868 47.339 60.153V60.1696C47.339 60.4345 47.488 60.6608 47.7861 60.8485C48.0841 61.0361 48.4539 61.1299 48.8954 61.1299C49.3149 61.1299 49.6515 61.0471 49.9054 60.8816C50.1593 60.716 50.2862 60.5173 50.2862 60.2855C50.2862 60.0647 50.1758 59.8992 49.9551 59.7888C49.7343 59.6784 49.3756 59.5625 48.8789 59.4411C48.3159 59.2976 47.8689 59.1596 47.5377 59.0271C46.765 58.7512 46.1469 58.42 45.6833 58.0337C45.2197 57.6474 44.9879 57.0899 44.9879 56.3614C44.9879 55.4673 45.3356 54.7553 46.031 54.2255C46.7264 53.6957 47.6536 53.4308 48.8126 53.4308C49.5853 53.4308 50.2642 53.5522 50.8492 53.795C51.4342 54.0489 51.8868 54.4021 52.2069 54.8547C52.527 55.2962 52.687 55.804 52.687 56.378C52.687 56.4442 52.665 56.4939 52.6208 56.527C52.5877 56.5711 52.538 56.5932 52.4718 56.5932H50.518C50.4628 56.5932 50.4132 56.5711 50.369 56.527C50.3249 56.4939 50.3028 56.4442 50.3028 56.378C50.3028 56.113 50.1648 55.8868 49.8889 55.6991C49.6239 55.5225 49.2652 55.4342 48.8126 55.4342C48.4152 55.4342 48.0896 55.5059 47.8357 55.6494C47.5819 55.7929 47.4549 55.9916 47.4549 56.2455C47.4549 56.4883 47.5763 56.6705 47.8192 56.7919C48.0731 56.9133 48.487 57.0458 49.061 57.1893C49.2045 57.2224 49.359 57.261 49.5246 57.3052L50.071 57.4542C50.932 57.7081 51.6108 58.0337 52.1075 58.4311C52.6043 58.8395 52.8526 59.4245 52.8526 60.1862C52.8526 61.0803 52.4994 61.7812 51.7929 62.2889C51.0755 62.7967 50.1207 63.0506 48.9285 63.0506ZM62.6215 57.2721C62.6877 57.7357 62.7098 58.2545 62.6877 58.8285C62.6767 58.972 62.5994 59.0437 62.4559 59.0437H56.8264C56.7491 59.0437 56.7271 59.0713 56.7602 59.1265C56.7933 59.3693 56.8595 59.6122 56.9589 59.855C57.2679 60.5394 57.9081 60.8816 58.8795 60.8816C59.6632 60.8705 60.2758 60.5559 60.7174 59.9378C60.7726 59.8605 60.8278 59.8219 60.8829 59.8219C60.9271 59.8219 60.9713 59.844 61.0154 59.8881L62.3234 61.1962C62.3897 61.2513 62.4228 61.301 62.4228 61.3452C62.4228 61.3783 62.3952 61.428 62.34 61.4942C61.9426 61.9909 61.4293 62.3773 60.8002 62.6532C60.171 62.9292 59.4756 63.0671 58.7139 63.0671C57.6763 63.0671 56.7933 62.8298 56.0648 62.3552C55.3473 61.8805 54.8285 61.2182 54.5084 60.3683C54.2545 59.7612 54.1275 58.9664 54.1275 57.984C54.1275 57.3107 54.2214 56.7202 54.409 56.2124C54.685 55.3514 55.1707 54.667 55.8661 54.1593C56.5615 53.6515 57.3893 53.3976 58.3497 53.3976C59.5639 53.3976 60.5408 53.7509 61.2803 54.4573C62.0199 55.1527 62.4669 56.091 62.6215 57.2721ZM58.3662 55.6163C57.6046 55.6163 57.1023 55.9751 56.8595 56.6926C56.8154 56.8471 56.7712 57.0403 56.7271 57.2721C56.7271 57.3383 56.7602 57.3714 56.8264 57.3714H59.9723C60.0496 57.3714 60.0772 57.3383 60.0551 57.2721C59.9889 56.9188 59.9557 56.7477 59.9557 56.7588C59.8454 56.3945 59.6577 56.113 59.3928 55.9144C59.1168 55.7157 58.7746 55.6163 58.3662 55.6163ZM68.9464 53.4308C69.3769 53.4308 69.7191 53.5135 69.973 53.6791C70.0723 53.7343 70.1109 53.8281 70.0889 53.9606L69.708 56.0303C69.697 56.1738 69.6087 56.2179 69.4431 56.1627C69.2665 56.0965 69.0568 56.0634 68.8139 56.0634C68.7146 56.0634 68.5821 56.0799 68.4166 56.113C67.975 56.1462 67.5997 56.3062 67.2907 56.5932C66.9926 56.8802 66.8436 57.261 66.8436 57.7357V62.7029C66.8436 62.7581 66.8215 62.8077 66.7774 62.8519C66.7332 62.896 66.6836 62.9181 66.6284 62.9181H64.4925C64.4373 62.9181 64.3876 62.896 64.3434 62.8519C64.2993 62.8077 64.2772 62.7581 64.2772 62.7029V53.7785C64.2772 53.7122 64.2993 53.657 64.3434 53.6129C64.3876 53.5798 64.4373 53.5632 64.4925 53.5632H66.6284C66.6836 53.5632 66.7332 53.5798 66.7774 53.6129C66.8215 53.657 66.8436 53.7122 66.8436 53.7785V54.4739C66.8436 54.507 66.8546 54.5291 66.8767 54.5401C66.8988 54.5511 66.9209 54.5456 66.9429 54.5235C67.4397 53.795 68.1075 53.4308 68.9464 53.4308ZM74.8408 63.0506C74.024 63.0506 73.312 62.9347 72.7049 62.7029C72.0978 62.4711 71.6287 62.151 71.2975 61.7426C70.9664 61.3231 70.8008 60.854 70.8008 60.3352V60.153C70.8008 60.0868 70.8229 60.0316 70.8671 59.9875C70.9002 59.9544 70.9498 59.9378 71.0161 59.9378H73.0361C73.0913 59.9378 73.1409 59.9544 73.1851 59.9875C73.2292 60.0316 73.2513 60.0868 73.2513 60.153V60.1696C73.2513 60.4345 73.4003 60.6608 73.6984 60.8485C73.9964 61.0361 74.3717 61.1299 74.8243 61.1299C75.2327 61.1299 75.5638 61.0471 75.8177 60.8816C76.0716 60.716 76.1985 60.5173 76.1985 60.2855C76.1985 60.0647 76.0937 59.8992 75.8839 59.7888C75.6632 59.6784 75.3044 59.5625 74.8077 59.4411C74.2337 59.2976 73.7811 59.1596 73.45 59.0271C72.6773 58.7512 72.0592 58.42 71.5956 58.0337C71.132 57.6474 70.9002 57.0899 70.9002 56.3614C70.9002 55.4673 71.2534 54.7553 71.9598 54.2255C72.6552 53.6957 73.5769 53.4308 74.7249 53.4308C75.5086 53.4308 76.1875 53.5522 76.7615 53.795C77.3465 54.0489 77.7991 54.4021 78.1192 54.8547C78.4503 55.2962 78.6159 55.804 78.6159 56.378C78.6159 56.4442 78.5938 56.4939 78.5497 56.527C78.5055 56.5711 78.4503 56.5932 78.3841 56.5932H76.4469C76.3807 56.5932 76.3255 56.5711 76.2813 56.527C76.2372 56.4939 76.2151 56.4442 76.2151 56.378C76.2151 56.113 76.0826 55.8868 75.8177 55.6991C75.5417 55.5225 75.1775 55.4342 74.7249 55.4342C74.3275 55.4342 74.0019 55.5059 73.748 55.6494C73.4942 55.7929 73.3672 55.9916 73.3672 56.2455C73.3672 56.4883 73.4886 56.6705 73.7315 56.7919C73.9854 56.9133 74.4048 57.0458 74.9898 57.1893C75.1223 57.2224 75.2713 57.261 75.4369 57.3052C75.6135 57.3493 75.7956 57.399 75.9833 57.4542C76.8443 57.7081 77.5231 58.0337 78.0198 58.4311C78.5166 58.8395 78.7649 59.4245 78.7649 60.1862C78.7649 61.0803 78.4117 61.7812 77.7052 62.2889C76.9988 62.7967 76.044 63.0506 74.8408 63.0506ZM92.2426 50.318C92.3089 50.2186 92.3972 50.1689 92.5075 50.1689H94.6434C94.6986 50.1689 94.7483 50.191 94.7925 50.2352C94.8366 50.2793 94.8587 50.329 94.8587 50.3842V62.7029C94.8587 62.7581 94.8366 62.8077 94.7925 62.8519C94.7483 62.896 94.6986 62.9181 94.6434 62.9181H92.5075C92.4413 62.9181 92.3916 62.896 92.3585 62.8519C92.3144 62.8077 92.2923 62.7581 92.2923 62.7029V54.6726C92.2923 54.6174 92.2757 54.5898 92.2426 54.5898C92.2206 54.5898 92.1985 54.6118 92.1764 54.656L90.2392 57.6694C90.184 57.7688 90.1012 57.8185 89.9908 57.8185H88.9146C88.8042 57.8185 88.7214 57.7688 88.6662 57.6694L86.729 54.656C86.7069 54.6118 86.6849 54.5953 86.6628 54.6063C86.6407 54.6063 86.6297 54.6339 86.6297 54.6891V62.7029C86.6297 62.7581 86.6076 62.8077 86.5634 62.8519C86.5193 62.896 86.4641 62.9181 86.3979 62.9181H84.2785C84.2123 62.9181 84.1571 62.896 84.113 62.8519C84.0688 62.8077 84.0467 62.7581 84.0467 62.7029V50.3842C84.0467 50.329 84.0688 50.2793 84.113 50.2352C84.1571 50.191 84.2123 50.1689 84.2785 50.1689H86.3979C86.5082 50.1689 86.5966 50.2186 86.6628 50.318L89.3948 54.5567C89.4279 54.6339 89.461 54.6339 89.4941 54.5567L92.2426 50.318ZM101.051 63.0671C100.025 63.0671 99.147 62.7967 98.4185 62.2558C97.69 61.726 97.1933 60.9975 96.9284 60.0703C96.7628 59.5073 96.68 58.8892 96.68 58.2158C96.68 57.4983 96.7628 56.8581 96.9284 56.2952C97.2043 55.39 97.7121 54.6836 98.4516 54.1758C99.1691 53.6681 100.041 53.4142 101.068 53.4142C102.061 53.4142 102.911 53.6626 103.618 54.1593C104.324 54.667 104.821 55.3735 105.108 56.2786C105.306 56.8857 105.406 57.5204 105.406 58.1827C105.406 58.834 105.317 59.4466 105.141 60.0206C104.876 60.9699 104.385 61.715 103.667 62.2558C102.939 62.7967 102.067 63.0671 101.051 63.0671ZM101.051 60.865C101.449 60.865 101.785 60.7436 102.061 60.5008C102.348 60.2579 102.552 59.9212 102.674 59.4908C102.773 59.1044 102.823 58.6794 102.823 58.2158C102.823 57.7081 102.773 57.2776 102.674 56.9244C102.541 56.5159 102.332 56.1958 102.045 55.964C101.769 55.7322 101.432 55.6163 101.035 55.6163C100.615 55.6163 100.273 55.7322 100.008 55.964C99.7321 56.1958 99.5334 56.5159 99.412 56.9244C99.3126 57.2224 99.263 57.6529 99.263 58.2158C99.263 58.7677 99.3071 59.1927 99.3954 59.4908C99.5168 59.9212 99.721 60.2579 100.008 60.5008C100.284 60.7436 100.632 60.865 101.051 60.865ZM110.787 63.0506C109.981 63.0506 109.275 62.9347 108.668 62.7029C108.06 62.4711 107.586 62.151 107.244 61.7426C106.912 61.3231 106.747 60.854 106.747 60.3352V60.153C106.747 60.0868 106.769 60.0316 106.813 59.9875C106.857 59.9544 106.907 59.9378 106.962 59.9378H108.982C109.048 59.9378 109.104 59.9544 109.148 59.9875C109.192 60.0316 109.214 60.0868 109.214 60.153V60.1696C109.214 60.4345 109.363 60.6608 109.661 60.8485C109.959 61.0361 110.329 61.1299 110.77 61.1299C111.19 61.1299 111.526 61.0471 111.78 60.8816C112.034 60.716 112.161 60.5173 112.161 60.2855C112.161 60.0647 112.051 59.8992 111.83 59.7888C111.609 59.6784 111.25 59.5625 110.754 59.4411C110.18 59.2976 109.733 59.1596 109.413 59.0271C108.629 58.7512 108.011 58.42 107.558 58.0337C107.095 57.6474 106.863 57.0899 106.863 56.3614C106.863 55.4673 107.21 54.7553 107.906 54.2255C108.601 53.6957 109.529 53.4308 110.688 53.4308C111.46 53.4308 112.139 53.5522 112.724 53.795C113.309 54.0489 113.762 54.4021 114.082 54.8547C114.402 55.2962 114.562 55.804 114.562 56.378C114.562 56.4442 114.54 56.4939 114.496 56.527C114.452 56.5711 114.402 56.5932 114.347 56.5932H112.393C112.338 56.5932 112.288 56.5711 112.244 56.527C112.2 56.4939 112.178 56.4442 112.178 56.378C112.178 56.113 112.04 55.8868 111.764 55.6991C111.488 55.5225 111.129 55.4342 110.688 55.4342C110.279 55.4342 109.948 55.5059 109.694 55.6494C109.44 55.7929 109.313 55.9916 109.313 56.2455C109.313 56.4883 109.44 56.6705 109.694 56.7919C109.937 56.9133 110.351 57.0458 110.936 57.1893L111.4 57.3052L111.946 57.4542C112.807 57.7081 113.486 58.0337 113.982 58.4311C114.479 58.8395 114.728 59.4245 114.728 60.1862C114.728 61.0803 114.374 61.7812 113.668 62.2889C112.95 62.7967 111.99 63.0506 110.787 63.0506ZM121.549 55.4011C121.549 55.4563 121.533 55.5059 121.5 55.5501C121.455 55.5942 121.4 55.6163 121.334 55.6163H119.595C119.529 55.6163 119.496 55.6439 119.496 55.6991V59.5735C119.496 59.9709 119.579 60.2689 119.744 60.4676C119.91 60.6553 120.175 60.7491 120.539 60.7491H121.135C121.201 60.7491 121.251 60.7712 121.284 60.8153C121.328 60.8595 121.35 60.9092 121.35 60.9644V62.7029C121.35 62.8353 121.279 62.9126 121.135 62.9347C120.627 62.9568 120.263 62.9678 120.042 62.9678C119.038 62.9678 118.287 62.8022 117.791 62.4711C117.294 62.1399 117.04 61.5108 117.029 60.5835V55.6991C117.029 55.6439 116.996 55.6163 116.93 55.6163H115.887C115.831 55.6163 115.782 55.5942 115.738 55.5501C115.693 55.5059 115.671 55.4563 115.671 55.4011V53.7785C115.671 53.7122 115.693 53.657 115.738 53.6129C115.782 53.5798 115.831 53.5632 115.887 53.5632H116.93C116.996 53.5632 117.029 53.5301 117.029 53.4639V51.2948C117.029 51.2397 117.046 51.19 117.079 51.1458C117.123 51.1017 117.178 51.0796 117.244 51.0796H119.281C119.336 51.0796 119.386 51.1017 119.43 51.1458C119.474 51.19 119.496 51.2397 119.496 51.2948V53.4639C119.496 53.5301 119.529 53.5632 119.595 53.5632H121.334C121.4 53.5632 121.455 53.5798 121.5 53.6129C121.533 53.657 121.549 53.7122 121.549 53.7785V55.4011Z"
                                    fill="#252530"></path>
                                <path
                                    d="M47.8482 114.709C47.8482 114.765 47.8316 114.809 47.7985 114.842C47.7544 114.886 47.7047 114.908 47.6495 114.908H42.0034C41.9482 114.908 41.9207 114.936 41.9207 114.991V118.087C41.9207 118.142 41.9482 118.17 42.0034 118.17H45.7951C45.8503 118.17 45.8999 118.187 45.9441 118.22C45.9772 118.264 45.9938 118.313 45.9938 118.369V119.627C45.9938 119.682 45.9772 119.732 45.9441 119.776C45.8999 119.809 45.8503 119.826 45.7951 119.826H42.0034C41.9482 119.826 41.9207 119.853 41.9207 119.908V123.104C41.9207 123.159 41.9482 123.187 42.0034 123.187H47.6495C47.7047 123.187 47.7544 123.209 47.7985 123.253C47.8316 123.286 47.8482 123.33 47.8482 123.386V124.644C47.8482 124.699 47.8316 124.743 47.7985 124.776C47.7544 124.82 47.7047 124.843 47.6495 124.843H40.1987C40.1435 124.843 40.0993 124.82 40.0662 124.776C40.0221 124.743 40 124.699 40 124.644V113.451C40 113.396 40.0221 113.352 40.0662 113.319C40.0993 113.274 40.1435 113.252 40.1987 113.252H47.6495C47.7047 113.252 47.7544 113.274 47.7985 113.319C47.8316 113.352 47.8482 113.396 47.8482 113.451V114.709ZM53.6764 116.249C54.5705 116.249 55.288 116.514 55.8289 117.044C56.3587 117.574 56.6236 118.297 56.6236 119.213V124.644C56.6236 124.699 56.6015 124.743 56.5574 124.776C56.5243 124.82 56.4801 124.843 56.4249 124.843H54.9016C54.8464 124.843 54.7968 124.82 54.7526 124.776C54.7195 124.743 54.703 124.699 54.703 124.644V119.61C54.703 119.103 54.5595 118.689 54.2725 118.369C53.9855 118.06 53.6046 117.905 53.13 117.905C52.6554 117.905 52.269 118.06 51.971 118.369C51.684 118.678 51.5405 119.086 51.5405 119.594V124.644C51.5405 124.699 51.5239 124.743 51.4908 124.776C51.4467 124.82 51.397 124.843 51.3418 124.843H49.8185C49.7633 124.843 49.7192 124.82 49.6861 124.776C49.6419 124.743 49.6198 124.699 49.6198 124.644V116.58C49.6198 116.525 49.6419 116.476 49.6861 116.431C49.7192 116.398 49.7633 116.382 49.8185 116.382H51.3418C51.397 116.382 51.4467 116.398 51.4908 116.431C51.5239 116.476 51.5405 116.525 51.5405 116.58V117.11C51.5405 117.143 51.5515 117.165 51.5736 117.176C51.5957 117.188 51.6122 117.177 51.6233 117.143C52.0758 116.547 52.7602 116.249 53.6764 116.249ZM63.1141 117.739C63.1141 117.795 63.092 117.839 63.0479 117.872C63.0148 117.916 62.9706 117.938 62.9154 117.938H61.2266C61.1714 117.938 61.1438 117.966 61.1438 118.021V122.011C61.1438 122.431 61.2321 122.734 61.4087 122.922C61.5963 123.11 61.8889 123.203 62.2862 123.203H62.7829C62.8381 123.203 62.8823 123.22 62.9154 123.253C62.9596 123.297 62.9816 123.347 62.9816 123.402V124.644C62.9816 124.765 62.9154 124.837 62.7829 124.859L61.922 124.876C61.0499 124.876 60.3987 124.727 59.9682 124.429C59.5377 124.131 59.3169 123.568 59.3059 122.74V118.021C59.3059 117.966 59.2783 117.938 59.2231 117.938H58.2793C58.2242 117.938 58.1745 117.916 58.1303 117.872C58.0972 117.839 58.0807 117.795 58.0807 117.739V116.58C58.0807 116.525 58.0972 116.476 58.1303 116.431C58.1745 116.398 58.2242 116.382 58.2793 116.382H59.2231C59.2783 116.382 59.3059 116.354 59.3059 116.299V114.362C59.3059 114.307 59.3225 114.257 59.3556 114.213C59.3997 114.18 59.4494 114.163 59.5046 114.163H60.9451C61.0003 114.163 61.0444 114.18 61.0775 114.213C61.1217 114.257 61.1438 114.307 61.1438 114.362V116.299C61.1438 116.354 61.1714 116.382 61.2266 116.382H62.9154C62.9706 116.382 63.0148 116.398 63.0479 116.431C63.092 116.476 63.1141 116.525 63.1141 116.58V117.739ZM71.7902 119.66C71.8343 119.936 71.8564 120.245 71.8564 120.587L71.8398 121.101C71.8398 121.233 71.7736 121.299 71.6411 121.299H66.4587C66.4035 121.299 66.3759 121.327 66.3759 121.382C66.409 121.746 66.4587 121.995 66.5249 122.127C66.7898 122.922 67.4356 123.325 68.4621 123.336C69.2127 123.336 69.8088 123.027 70.2503 122.409C70.2945 122.342 70.3497 122.309 70.4159 122.309C70.4601 122.309 70.4987 122.326 70.5318 122.359L71.5584 123.203C71.6577 123.281 71.6743 123.369 71.608 123.468C71.2658 123.954 70.8133 124.329 70.2503 124.594C69.6763 124.859 69.0416 124.992 68.3462 124.992C67.4852 124.992 66.7512 124.798 66.1441 124.412C65.548 124.026 65.112 123.485 64.8361 122.789C64.5822 122.193 64.4552 121.366 64.4552 120.306C64.4552 119.666 64.5215 119.147 64.6539 118.749C64.8747 117.977 65.2942 117.364 65.9123 116.912C66.5194 116.47 67.2534 116.249 68.1144 116.249C70.289 116.249 71.5142 117.386 71.7902 119.66ZM68.1144 117.905C67.706 117.905 67.3638 118.01 67.0879 118.22C66.823 118.418 66.6353 118.7 66.5249 119.064C66.4587 119.252 66.4145 119.495 66.3925 119.793C66.3704 119.848 66.3925 119.875 66.4587 119.875H69.8198C69.875 119.875 69.9026 119.848 69.9026 119.793C69.8805 119.517 69.8474 119.307 69.8033 119.163C69.7039 118.766 69.5108 118.457 69.2238 118.236C68.9257 118.015 68.556 117.905 68.1144 117.905ZM77.5521 116.282C77.9054 116.282 78.2144 116.354 78.4793 116.498C78.5677 116.542 78.6008 116.625 78.5787 116.746L78.2972 118.236C78.2862 118.369 78.2089 118.407 78.0654 118.352C77.8998 118.297 77.7067 118.269 77.4859 118.269C77.3424 118.269 77.232 118.275 77.1548 118.286C76.6911 118.308 76.3048 118.468 75.9957 118.766C75.6867 119.075 75.5321 119.472 75.5321 119.958V124.644C75.5321 124.699 75.5156 124.743 75.4825 124.776C75.4383 124.82 75.3886 124.843 75.3334 124.843H73.8102C73.755 124.843 73.7108 124.82 73.6777 124.776C73.6336 124.743 73.6115 124.699 73.6115 124.644V116.58C73.6115 116.525 73.6336 116.476 73.6777 116.431C73.7108 116.398 73.755 116.382 73.8102 116.382H75.3334C75.3886 116.382 75.4383 116.398 75.4825 116.431C75.5156 116.476 75.5321 116.525 75.5321 116.58V117.326C75.5321 117.37 75.5377 117.392 75.5487 117.392C75.5708 117.403 75.5928 117.392 75.6149 117.359C76.0785 116.641 76.7243 116.282 77.5521 116.282ZM87.0064 118.567C87.2051 119.13 87.3044 119.82 87.3044 120.637C87.3044 121.421 87.2106 122.094 87.023 122.657C86.7801 123.386 86.3938 123.954 85.8639 124.362C85.3231 124.771 84.6442 124.975 83.8274 124.975C83.0437 124.975 82.4145 124.694 81.9398 124.131C81.9178 124.109 81.8957 124.103 81.8736 124.114C81.8515 124.125 81.8405 124.147 81.8405 124.18V127.773C81.8405 127.828 81.8239 127.873 81.7908 127.906C81.7467 127.95 81.697 127.972 81.6418 127.972H80.1185C80.0633 127.972 80.0192 127.95 79.9861 127.906C79.9419 127.873 79.9198 127.828 79.9198 127.773V116.58C79.9198 116.525 79.9419 116.476 79.9861 116.431C80.0192 116.398 80.0633 116.382 80.1185 116.382H81.6418C81.697 116.382 81.7467 116.398 81.7908 116.431C81.8239 116.476 81.8405 116.525 81.8405 116.58V117.077C81.8405 117.11 81.8515 117.132 81.8736 117.143C81.8957 117.154 81.9178 117.143 81.9398 117.11C82.4255 116.536 83.0602 116.249 83.8439 116.249C84.6277 116.249 85.2899 116.454 85.8308 116.862C86.3717 117.27 86.7636 117.839 87.0064 118.567ZM84.8539 122.624C85.1851 122.116 85.3507 121.443 85.3507 120.604C85.3507 119.798 85.2182 119.163 84.9533 118.7C84.6442 118.159 84.1751 117.888 83.5459 117.888C82.9719 117.888 82.5414 118.153 82.2544 118.683C82.0005 119.114 81.8736 119.754 81.8736 120.604C81.8736 121.476 82.0116 122.138 82.2875 122.591C82.5745 123.076 82.9885 123.319 83.5293 123.319C84.1144 123.319 84.5559 123.087 84.8539 122.624ZM93.0995 116.282C93.4527 116.282 93.7618 116.354 94.0267 116.498C94.115 116.542 94.1481 116.625 94.1261 116.746L93.8446 118.236C93.8336 118.369 93.7563 118.407 93.6128 118.352C93.4472 118.297 93.254 118.269 93.0333 118.269C92.8898 118.269 92.7794 118.275 92.7021 118.286C92.2385 118.308 91.8522 118.468 91.5431 118.766C91.234 119.075 91.0795 119.472 91.0795 119.958V124.644C91.0795 124.699 91.063 124.743 91.0298 124.776C90.9857 124.82 90.936 124.843 90.8808 124.843H89.3575C89.3024 124.843 89.2582 124.82 89.2251 124.776C89.1809 124.743 89.1589 124.699 89.1589 124.644V116.58C89.1589 116.525 89.1809 116.476 89.2251 116.431C89.2582 116.398 89.3024 116.382 89.3575 116.382H90.8808C90.936 116.382 90.9857 116.398 91.0298 116.431C91.063 116.476 91.0795 116.525 91.0795 116.58V117.326C91.0795 117.37 91.085 117.392 91.0961 117.392C91.1181 117.403 91.1402 117.392 91.1623 117.359C91.6259 116.641 92.2716 116.282 93.0995 116.282ZM96.4772 115.223C96.135 115.223 95.8536 115.112 95.6328 114.892C95.412 114.671 95.3016 114.389 95.3016 114.047C95.3016 113.705 95.412 113.424 95.6328 113.203C95.8536 112.982 96.135 112.872 96.4772 112.872C96.8194 112.872 97.1009 112.982 97.3216 113.203C97.5424 113.424 97.6528 113.705 97.6528 114.047C97.6528 114.389 97.5424 114.671 97.3216 114.892C97.1009 115.112 96.8194 115.223 96.4772 115.223ZM95.6825 124.843C95.6273 124.843 95.5831 124.82 95.55 124.776C95.5058 124.743 95.4838 124.699 95.4838 124.644V116.564C95.4838 116.509 95.5058 116.465 95.55 116.431C95.5831 116.387 95.6273 116.365 95.6825 116.365H97.2057C97.2609 116.365 97.3106 116.387 97.3548 116.431C97.3879 116.465 97.4044 116.509 97.4044 116.564V124.644C97.4044 124.699 97.3879 124.743 97.3548 124.776C97.3106 124.82 97.2609 124.843 97.2057 124.843H95.6825ZM102.752 124.942C102.057 124.942 101.444 124.837 100.915 124.627C100.396 124.429 99.9929 124.147 99.7059 123.783C99.4189 123.43 99.2754 123.032 99.2754 122.591V122.442C99.2754 122.387 99.292 122.337 99.3251 122.293C99.3692 122.26 99.4189 122.243 99.4741 122.243H100.931C100.986 122.243 101.036 122.26 101.08 122.293C101.113 122.337 101.13 122.387 101.13 122.442V122.475C101.13 122.751 101.279 122.994 101.577 123.203C101.886 123.402 102.272 123.501 102.736 123.501C103.177 123.501 103.536 123.413 103.812 123.237C104.088 123.049 104.226 122.817 104.226 122.541C104.226 122.287 104.11 122.094 103.878 121.962C103.658 121.84 103.293 121.708 102.786 121.564L102.156 121.366C101.593 121.2 101.119 121.023 100.732 120.836C100.346 120.648 100.02 120.389 99.7556 120.057C99.4907 119.737 99.3582 119.323 99.3582 118.816C99.3582 118.043 99.6618 117.43 100.269 116.978C100.876 116.514 101.676 116.282 102.67 116.282C103.343 116.282 103.934 116.387 104.441 116.597C104.949 116.818 105.341 117.116 105.617 117.491C105.893 117.877 106.031 118.313 106.031 118.799C106.031 118.854 106.014 118.904 105.981 118.948C105.937 118.981 105.887 118.998 105.832 118.998H104.425C104.37 118.998 104.32 118.981 104.276 118.948C104.243 118.904 104.226 118.854 104.226 118.799C104.226 118.512 104.088 118.275 103.812 118.087C103.525 117.888 103.139 117.789 102.653 117.789C102.223 117.789 101.875 117.866 101.61 118.021C101.334 118.187 101.196 118.413 101.196 118.7C101.196 118.965 101.323 119.163 101.577 119.296C101.842 119.439 102.278 119.594 102.885 119.759L103.249 119.859C103.834 120.035 104.325 120.212 104.723 120.389C105.12 120.576 105.457 120.83 105.733 121.15C106.009 121.481 106.147 121.906 106.147 122.425C106.147 123.209 105.838 123.822 105.22 124.263C104.601 124.716 103.779 124.942 102.752 124.942ZM114.906 119.66C114.95 119.936 114.972 120.245 114.972 120.587L114.955 121.101C114.955 121.233 114.889 121.299 114.757 121.299H109.574C109.519 121.299 109.491 121.327 109.491 121.382C109.524 121.746 109.574 121.995 109.64 122.127C109.905 122.922 110.551 123.325 111.578 123.336C112.328 123.336 112.924 123.027 113.366 122.409C113.41 122.342 113.465 122.309 113.531 122.309C113.575 122.309 113.614 122.326 113.647 122.359L114.674 123.203C114.773 123.281 114.79 123.369 114.723 123.468C114.381 123.954 113.923 124.329 113.349 124.594C112.786 124.859 112.157 124.992 111.462 124.992C110.601 124.992 109.867 124.798 109.26 124.412C108.663 124.026 108.227 123.485 107.951 122.789C107.698 122.193 107.571 121.366 107.571 120.306C107.571 119.666 107.637 119.147 107.769 118.749C107.99 117.977 108.404 117.364 109.011 116.912C109.629 116.47 110.369 116.249 111.23 116.249C113.404 116.249 114.63 117.386 114.906 119.66ZM111.23 117.905C110.821 117.905 110.479 118.01 110.203 118.22C109.938 118.418 109.751 118.7 109.64 119.064C109.574 119.252 109.53 119.495 109.508 119.793C109.486 119.848 109.508 119.875 109.574 119.875H112.935C112.99 119.875 113.018 119.848 113.018 119.793C112.996 119.517 112.963 119.307 112.919 119.163C112.819 118.766 112.621 118.457 112.323 118.236C112.036 118.015 111.671 117.905 111.23 117.905Z"
                                    fill="white"></path>
                                <path
                                    d="M55.3877 148.321C54.5046 148.321 53.732 148.177 53.0697 147.89C52.4074 147.614 51.8996 147.212 51.5464 146.682C51.1821 146.163 51 145.556 51 144.86V144.496C51 144.441 51.0221 144.397 51.0662 144.364C51.0993 144.32 51.1435 144.297 51.1987 144.297H53.0862C53.1414 144.297 53.1911 144.32 53.2352 144.364C53.2684 144.397 53.2849 144.441 53.2849 144.496V144.745C53.2849 145.186 53.4891 145.556 53.8975 145.854C54.306 146.163 54.8579 146.317 55.5533 146.317C56.1383 146.317 56.5743 146.196 56.8613 145.953C57.1483 145.699 57.2918 145.39 57.2918 145.026C57.2918 144.761 57.2035 144.54 57.0269 144.364C56.8503 144.176 56.6074 144.016 56.2984 143.884C56.0003 143.74 55.5202 143.547 54.8579 143.304C54.1183 143.05 53.4891 142.791 52.9703 142.526C52.4626 142.261 52.0376 141.897 51.6954 141.433C51.3422 140.98 51.1656 140.418 51.1656 139.744C51.1656 139.082 51.3367 138.502 51.6789 138.006C52.021 137.509 52.4957 137.128 53.1028 136.863C53.7099 136.598 54.4108 136.466 55.2056 136.466C56.0445 136.466 56.7896 136.615 57.4408 136.913C58.1031 137.211 58.6219 137.63 58.9972 138.171C59.3615 138.701 59.5436 139.319 59.5436 140.026V140.274C59.5436 140.329 59.5271 140.373 59.4939 140.406C59.4498 140.451 59.4001 140.473 59.3449 140.473H57.4408C57.3856 140.473 57.3415 140.451 57.3084 140.406C57.2642 140.373 57.2421 140.329 57.2421 140.274V140.142C57.2421 139.678 57.0545 139.281 56.6792 138.949C56.2928 138.629 55.7685 138.469 55.1062 138.469C54.5874 138.469 54.179 138.58 53.881 138.8C53.594 139.021 53.4505 139.325 53.4505 139.711C53.4505 139.987 53.5388 140.219 53.7154 140.406C53.881 140.594 54.1349 140.76 54.477 140.903C54.8082 141.058 55.327 141.262 56.0334 141.516C56.8172 141.803 57.4298 142.057 57.8713 142.277C58.3239 142.498 58.7323 142.824 59.0966 143.254C59.4498 143.696 59.6264 144.264 59.6264 144.96C59.6264 145.997 59.2456 146.814 58.4839 147.41C57.7223 148.017 56.6902 148.321 55.3877 148.321ZM66.0507 136.582C66.7792 136.582 67.4194 136.731 67.9713 137.029C68.5232 137.327 68.9537 137.746 69.2628 138.287C69.5608 138.839 69.7098 139.468 69.7098 140.175C69.7098 140.87 69.5553 141.483 69.2462 142.013C68.9261 142.542 68.4791 142.956 67.9051 143.254C67.3421 143.541 66.6909 143.685 65.9513 143.685H63.6002C63.545 143.685 63.5174 143.712 63.5174 143.768V147.99C63.5174 148.045 63.4953 148.089 63.4511 148.122C63.418 148.166 63.3739 148.188 63.3187 148.188H61.3815C61.3263 148.188 61.2766 148.166 61.2325 148.122C61.1993 148.089 61.1828 148.045 61.1828 147.99V136.78C61.1828 136.725 61.1993 136.676 61.2325 136.631C61.2766 136.598 61.3263 136.582 61.3815 136.582H66.0507ZM65.703 141.814C66.2107 141.814 66.6191 141.665 66.9282 141.367C67.2373 141.08 67.3918 140.699 67.3918 140.224C67.3918 139.739 67.2373 139.347 66.9282 139.049C66.6191 138.751 66.2107 138.602 65.703 138.602H63.6002C63.545 138.602 63.5174 138.629 63.5174 138.685V141.731C63.5174 141.786 63.545 141.814 63.6002 141.814H65.703ZM77.5084 148.188C77.398 148.188 77.3207 148.139 77.2766 148.039L75.2069 143.453C75.1848 143.409 75.1517 143.387 75.1075 143.387H73.5677C73.5125 143.387 73.4849 143.414 73.4849 143.47V147.99C73.4849 148.045 73.4628 148.089 73.4187 148.122C73.3856 148.166 73.3414 148.188 73.2862 148.188H71.349C71.2938 148.188 71.2442 148.166 71.2 148.122C71.1669 148.089 71.1503 148.045 71.1503 147.99V136.797C71.1503 136.742 71.1669 136.698 71.2 136.665C71.2442 136.62 71.2938 136.598 71.349 136.598H76.0844C76.7909 136.598 77.409 136.742 77.9389 137.029C78.4797 137.316 78.8937 137.724 79.1807 138.254C79.4787 138.784 79.6277 139.396 79.6277 140.092C79.6277 140.842 79.4401 141.483 79.0648 142.013C78.6895 142.553 78.1651 142.934 77.4918 143.155C77.4366 143.177 77.4201 143.216 77.4421 143.271L79.6939 147.957C79.716 148.001 79.727 148.034 79.727 148.056C79.727 148.144 79.6663 148.188 79.5449 148.188H77.5084ZM73.5677 138.602C73.5125 138.602 73.4849 138.629 73.4849 138.685V141.516C73.4849 141.571 73.5125 141.599 73.5677 141.599H75.7367C76.2003 141.599 76.5756 141.461 76.8626 141.185C77.1607 140.909 77.3097 140.55 77.3097 140.108C77.3097 139.667 77.1607 139.303 76.8626 139.016C76.5756 138.74 76.2003 138.602 75.7367 138.602H73.5677ZM81.5152 148.188C81.4601 148.188 81.4159 148.166 81.3828 148.122C81.3386 148.089 81.3166 148.045 81.3166 147.99V136.797C81.3166 136.742 81.3386 136.698 81.3828 136.665C81.4159 136.62 81.4601 136.598 81.5152 136.598H83.4525C83.5076 136.598 83.5573 136.62 83.6015 136.665C83.6346 136.698 83.6511 136.742 83.6511 136.797V147.99C83.6511 148.045 83.6346 148.089 83.6015 148.122C83.5573 148.166 83.5076 148.188 83.4525 148.188H81.5152ZM92.3272 136.797C92.3272 136.742 92.3493 136.698 92.3934 136.665C92.4266 136.62 92.4707 136.598 92.5259 136.598H94.4631C94.5183 136.598 94.568 136.62 94.6121 136.665C94.6452 136.698 94.6618 136.742 94.6618 136.797V147.99C94.6618 148.045 94.6452 148.089 94.6121 148.122C94.568 148.166 94.5183 148.188 94.4631 148.188H92.5921C92.4817 148.188 92.4045 148.144 92.3603 148.056L88.072 140.969C88.0499 140.936 88.0278 140.925 88.0057 140.936C87.9837 140.936 87.9726 140.958 87.9726 141.003L88.0057 147.99C88.0057 148.045 87.9892 148.089 87.9561 148.122C87.9119 148.166 87.8622 148.188 87.807 148.188H85.8698C85.8146 148.188 85.7705 148.166 85.7374 148.122C85.6932 148.089 85.6711 148.045 85.6711 147.99V136.797C85.6711 136.742 85.6932 136.698 85.7374 136.665C85.7705 136.62 85.8146 136.598 85.8698 136.598H87.7408C87.8512 136.598 87.9285 136.642 87.9726 136.731L92.2444 143.784C92.2665 143.817 92.2886 143.828 92.3107 143.817C92.3327 143.817 92.3438 143.795 92.3438 143.751L92.3272 136.797ZM100.755 148.321C99.905 148.321 99.1544 148.15 98.5031 147.808C97.8519 147.465 97.3496 146.991 96.9964 146.384C96.6321 145.766 96.45 145.054 96.45 144.248V140.539C96.45 139.733 96.6321 139.021 96.9964 138.403C97.3496 137.785 97.8519 137.305 98.5031 136.963C99.1544 136.631 99.905 136.466 100.755 136.466C101.594 136.466 102.339 136.631 102.99 136.963C103.63 137.294 104.133 137.746 104.497 138.32C104.85 138.883 105.027 139.512 105.027 140.208V140.324C105.027 140.379 105.01 140.423 104.977 140.456C104.933 140.5 104.883 140.522 104.828 140.522H102.891C102.836 140.522 102.791 140.5 102.758 140.456C102.714 140.423 102.692 140.379 102.692 140.324V140.274C102.692 139.766 102.516 139.341 102.162 138.999C101.809 138.646 101.34 138.469 100.755 138.469C100.159 138.469 99.6842 138.651 99.331 139.016C98.9667 139.391 98.7846 139.877 98.7846 140.473V144.314C98.7846 144.91 98.9778 145.39 99.3641 145.755C99.7504 146.13 100.242 146.317 100.838 146.317C101.412 146.317 101.87 146.163 102.212 145.854C102.554 145.556 102.725 145.136 102.725 144.595V143.85C102.725 143.795 102.698 143.768 102.642 143.768H100.788C100.733 143.768 100.689 143.746 100.656 143.701C100.611 143.668 100.589 143.624 100.589 143.569V142.046C100.589 141.99 100.611 141.946 100.656 141.913C100.689 141.869 100.733 141.847 100.788 141.847H104.828C104.883 141.847 104.933 141.869 104.977 141.913C105.01 141.946 105.027 141.99 105.027 142.046V144.231C105.027 145.07 104.85 145.799 104.497 146.417C104.144 147.035 103.647 147.51 103.007 147.841C102.355 148.161 101.605 148.321 100.755 148.321ZM62.8882 161.65C62.8661 161.672 62.8606 161.694 62.8716 161.716C62.8827 161.738 62.9048 161.749 62.9379 161.749H67.4249C67.4801 161.749 67.5298 161.765 67.5739 161.799C67.607 161.843 67.6236 161.892 67.6236 161.948V163.554C67.6236 163.609 67.607 163.653 67.5739 163.686C67.5298 163.73 67.4801 163.752 67.4249 163.752H59.9741C59.9189 163.752 59.8692 163.73 59.8251 163.686C59.792 163.653 59.7754 163.609 59.7754 163.554V162.03C59.7754 161.931 59.8085 161.848 59.8748 161.782C60.4156 161.252 60.9675 160.678 61.5305 160.06C62.0934 159.431 62.4467 159.039 62.5902 158.885C62.8992 158.52 63.2138 158.173 63.5339 157.841C64.5384 156.727 65.0407 155.899 65.0407 155.358C65.0407 154.971 64.9027 154.651 64.6267 154.397C64.3508 154.155 63.992 154.033 63.5505 154.033C63.109 154.033 62.7502 154.155 62.4743 154.397C62.1983 154.651 62.0603 154.982 62.0603 155.391V155.805C62.0603 155.86 62.0382 155.91 61.9941 155.954C61.961 155.987 61.9168 156.004 61.8616 156.004H59.9079C59.8527 156.004 59.8085 155.987 59.7754 155.954C59.7313 155.91 59.7092 155.86 59.7092 155.805V155.027C59.7423 154.431 59.9299 153.901 60.2721 153.437C60.6143 152.985 61.0669 152.637 61.6298 152.394C62.2038 152.151 62.844 152.03 63.5505 152.03C64.3342 152.03 65.0186 152.173 65.6036 152.46C66.1776 152.758 66.6246 153.156 66.9448 153.652C67.2538 154.149 67.4084 154.701 67.4084 155.308C67.4084 155.772 67.2925 156.246 67.0607 156.732C66.8289 157.218 66.4811 157.742 66.0175 158.305C65.6754 158.735 65.3056 159.16 64.9082 159.58C64.5108 159.999 63.9203 160.606 63.1366 161.401L62.8882 161.65ZM73.0048 163.935C71.7905 163.935 70.8302 163.592 70.1238 162.908C69.4173 162.235 69.0641 161.313 69.0641 160.143V155.772C69.0641 154.624 69.4173 153.713 70.1238 153.04C70.8302 152.366 71.7905 152.03 73.0048 152.03C74.219 152.03 75.1848 152.366 75.9023 153.04C76.6087 153.713 76.962 154.624 76.962 155.772V160.143C76.962 161.313 76.6087 162.235 75.9023 162.908C75.1848 163.592 74.219 163.935 73.0048 163.935ZM73.0048 161.931C73.5015 161.931 73.8988 161.777 74.1969 161.467C74.4839 161.169 74.6274 160.767 74.6274 160.259V155.705C74.6274 155.198 74.4839 154.795 74.1969 154.497C73.8988 154.188 73.5015 154.033 73.0048 154.033C72.5191 154.033 72.1327 154.188 71.8457 154.497C71.5477 154.795 71.3987 155.198 71.3987 155.705V160.259C71.3987 160.767 71.5477 161.169 71.8457 161.467C72.1327 161.777 72.5191 161.931 73.0048 161.931ZM81.598 161.65C81.576 161.672 81.5704 161.694 81.5815 161.716C81.5925 161.738 81.6146 161.749 81.6477 161.749H86.1348C86.1899 161.749 86.2396 161.765 86.2838 161.799C86.3169 161.843 86.3334 161.892 86.3334 161.948V163.554C86.3334 163.609 86.3169 163.653 86.2838 163.686C86.2396 163.73 86.1899 163.752 86.1348 163.752H78.6839C78.6287 163.752 78.5846 163.73 78.5515 163.686C78.5073 163.653 78.4852 163.609 78.4852 163.554V162.03C78.4852 161.931 78.5184 161.848 78.5846 161.782C79.1255 161.252 79.6774 160.678 80.2403 160.06C80.8033 159.431 81.1565 159.039 81.3 158.885C81.6091 158.52 81.9237 158.173 82.2438 157.841C83.2482 156.727 83.7505 155.899 83.7505 155.358C83.7505 154.971 83.6125 154.651 83.3366 154.397C83.0606 154.155 82.7019 154.033 82.2603 154.033C81.8188 154.033 81.4601 154.155 81.1841 154.397C80.9081 154.651 80.7702 154.982 80.7702 155.391V155.805C80.7702 155.86 80.7536 155.91 80.7205 155.954C80.6763 155.987 80.6267 156.004 80.5715 156.004H78.6177C78.5625 156.004 78.5184 155.987 78.4852 155.954C78.4411 155.91 78.419 155.86 78.419 155.805V155.027C78.4521 154.431 78.6398 153.901 78.982 153.437C79.3242 152.985 79.7822 152.637 80.3562 152.394C80.9192 152.151 81.5539 152.03 82.2603 152.03C83.044 152.03 83.7284 152.173 84.3134 152.46C84.8874 152.758 85.3345 153.156 85.6546 153.652C85.9637 154.149 86.1182 154.701 86.1182 155.308C86.1182 155.772 86.0023 156.246 85.7705 156.732C85.5387 157.218 85.191 157.742 84.7274 158.305C84.3852 158.735 84.0154 159.16 83.618 159.58C83.2207 159.999 82.6301 160.606 81.8464 161.401L81.598 161.65ZM96.0526 158.702C96.1078 158.702 96.1575 158.719 96.2016 158.752C96.2348 158.796 96.2513 158.846 96.2513 158.901V160.573C96.2513 160.629 96.2348 160.678 96.2016 160.722C96.1575 160.755 96.1078 160.772 96.0526 160.772H95.3407C95.2855 160.772 95.2579 160.8 95.2579 160.855V163.554C95.2579 163.609 95.2413 163.653 95.2082 163.686C95.164 163.73 95.1144 163.752 95.0592 163.752H93.122C93.0668 163.752 93.0226 163.73 92.9895 163.686C92.9454 163.653 92.9233 163.609 92.9233 163.554V160.855C92.9233 160.8 92.8957 160.772 92.8405 160.772H87.7574C87.7022 160.772 87.658 160.755 87.6249 160.722C87.5808 160.678 87.5587 160.629 87.5587 160.573V159.249C87.5587 159.183 87.5752 159.1 87.6084 159L90.5887 152.311C90.6328 152.212 90.7101 152.162 90.8205 152.162H92.8902C92.9674 152.162 93.0226 152.184 93.0557 152.228C93.0778 152.262 93.0723 152.317 93.0392 152.394L90.2741 158.603C90.2631 158.625 90.2631 158.647 90.2741 158.669C90.2851 158.691 90.3017 158.702 90.3238 158.702H92.8405C92.8957 158.702 92.9233 158.675 92.9233 158.62V156.566C92.9233 156.511 92.9454 156.467 92.9895 156.434C93.0226 156.39 93.0668 156.368 93.122 156.368H95.0592C95.1144 156.368 95.164 156.39 95.2082 156.434C95.2413 156.467 95.2579 156.511 95.2579 156.566V158.62C95.2579 158.675 95.2855 158.702 95.3407 158.702H96.0526Z"
                                    fill="#252530"></path>
                            </svg>