<svg width="136" height="202" xmlns="http://www.w3.org/2000/svg" viewBox="0 0 156 202"
                                fill="none">
                                <path d="M13.4116 148.851L78.8133 182.131L141.731 148.851V18.7097H13.4116V148.851Z"
                                    fill="white"></path>
                                <path d="M143.056 19.2065L12.0869 151.169L79.9722 184.78L143.056 152.493V19.2065Z"
                                    fill="#F2F3F2"></path>
                                <path
                                    d="M9.10645 62.0903V151.666L11.4245 152.825L76.8261 186.105L78.813 187.098L80.7999 186.105L143.884 152.825L146.202 151.666V14.405H9.10645V62.0903ZM13.4114 149.182V18.7099H141.897V149.182L78.813 182.462L13.4114 149.182Z"
                                    fill="#DCDEDC"></path>
                                <path
                                    d="M77.9918 20.8624C78.6541 20.8624 79.3164 20.8624 79.9787 21.028L77.9918 24.8362C75.0115 24.6706 72.3623 26.9886 72.1967 29.969C72.0311 32.9493 74.3492 35.5985 77.3295 35.764H77.9918C79.3164 35.764 80.641 35.2673 81.6344 34.4395L83.7869 38.0821C82.1312 39.2411 80.1443 39.9034 77.9918 39.9034C72.6934 40.069 68.223 36.0952 68.0574 30.7968C67.8918 25.4985 71.8656 21.028 77.1639 20.8624H77.9918ZM84.7803 28.9755L87.2639 33.1149L84.7803 37.0886L82.4623 33.1149H77.6607L80.1443 28.9755H84.7803ZM80.8066 27.4854C80.8066 26.8231 80.9721 26.1608 81.3033 25.664C81.6344 25.1673 82.2967 24.6706 82.7934 24.3395L83.1246 24.1739C83.7869 23.8427 83.9525 23.6772 83.9525 23.346C83.9525 23.0149 83.4557 22.6837 83.1246 22.6837C82.4623 22.6837 81.9656 23.0149 81.6344 23.6772L80.8066 22.8493C80.9721 22.5181 81.3033 22.187 81.6344 21.8558C82.1311 21.5247 82.6279 21.5247 83.1246 21.5247C83.6213 21.5247 84.2836 21.6903 84.6148 22.0214C84.9459 22.3526 85.277 22.8493 85.277 23.346C85.277 24.1739 84.7803 24.8362 83.7869 25.1673L83.2902 25.4985C82.7934 25.8296 82.4623 25.9952 82.2967 26.4919H85.277V27.6509L80.8066 27.4854ZM77.9918 48.1821L93.7213 39.2411V14.405H62.0967V39.0755L77.9918 48.1821ZM149.685 106.795H6.29836L1 118.385L6.29836 129.976H149.685L154.818 118.385L149.685 106.795Z"
                                    fill="#FF492C"></path>
                                <path
                                    d="M32.3477 99.3442C32.2484 99.3442 32.1656 99.3111 32.0993 99.2449C32.0331 99.1676 32 99.0793 32 98.98V78.8462C32 78.7468 32.0331 78.6585 32.0993 78.5813C32.1656 78.515 32.2484 78.4819 32.3477 78.4819H35.8413C35.9407 78.4819 36.0234 78.515 36.0897 78.5813C36.1669 78.6585 36.2056 78.7468 36.2056 78.8462V95.5857C36.2056 95.685 36.2552 95.7347 36.3546 95.7347H46.0903C46.1897 95.7347 46.278 95.7678 46.3552 95.8341C46.4215 95.9113 46.4546 95.9996 46.4546 96.099V98.98C46.4546 99.0793 46.4215 99.1676 46.3552 99.2449C46.278 99.3111 46.1897 99.3442 46.0903 99.3442H32.3477ZM62.3331 90.1052C62.4545 90.8558 62.4932 91.7002 62.449 92.6385C62.438 92.8813 62.311 93.0027 62.0682 93.0027H52.8623C52.7409 93.0027 52.7022 93.0524 52.7464 93.1518C52.8016 93.5491 52.9065 93.9465 53.061 94.3439C53.5798 95.4477 54.6339 95.9996 56.2234 95.9996C57.4928 95.9886 58.4973 95.4753 59.2369 94.4598C59.3142 94.3384 59.4025 94.2777 59.5018 94.2777C59.568 94.2777 59.6398 94.3163 59.717 94.3936L61.853 96.5129C61.9523 96.6123 62.002 96.7006 62.002 96.7778C62.002 96.822 61.9633 96.9048 61.8861 97.0262C61.2348 97.832 60.3904 98.4612 59.3528 98.9137C58.3262 99.3553 57.1948 99.576 55.9585 99.576C54.2476 99.576 52.8016 99.1897 51.6205 98.417C50.4394 97.6443 49.5895 96.5626 49.0707 95.1718C48.6512 94.1783 48.4415 92.8758 48.4415 91.2642C48.4415 90.1714 48.5905 89.2111 48.8885 88.3832C49.3521 86.9703 50.1524 85.8444 51.2893 85.0055C52.4373 84.1777 53.795 83.7637 55.3625 83.7637C57.3493 83.7637 58.9444 84.3377 60.1475 85.4857C61.3507 86.6337 62.0792 88.1735 62.3331 90.1052ZM55.3956 87.3898C54.1372 87.3898 53.3093 87.9748 52.912 89.1449C52.8347 89.4098 52.7685 89.7299 52.7133 90.1052C52.7133 90.2046 52.763 90.2542 52.8623 90.2542H58.0116C58.1331 90.2542 58.1717 90.2046 58.1275 90.1052C58.0282 89.5312 57.9785 89.2553 57.9785 89.2773C57.8019 88.6813 57.4928 88.2177 57.0513 87.8865C56.5987 87.5554 56.0468 87.3898 55.3956 87.3898ZM71.0092 83.7803C72.3007 83.7803 73.4542 84.0066 74.4697 84.4591C75.4852 84.9007 76.2744 85.5133 76.8374 86.297C77.4003 87.0697 77.6818 87.9307 77.6818 88.88V98.98C77.6818 99.0793 77.6487 99.1676 77.5825 99.2449C77.5162 99.3111 77.4334 99.3442 77.3341 99.3442H73.8405C73.7412 99.3442 73.6584 99.3111 73.5921 99.2449C73.5149 99.1676 73.4762 99.0793 73.4762 98.98V98.0031C73.4762 97.9479 73.4597 97.9093 73.4266 97.8872C73.3824 97.8651 73.3438 97.8817 73.3107 97.9369C72.4718 99.0296 71.1306 99.576 69.2872 99.576C67.7308 99.576 66.478 99.2007 65.5287 98.4501C64.5684 97.6995 64.0882 96.5847 64.0882 95.1055C64.0882 93.5823 64.6291 92.3956 65.7108 91.5457C66.7815 90.7068 68.3103 90.2873 70.2972 90.2873H73.3272C73.4266 90.2873 73.4762 90.2377 73.4762 90.1383V89.476C73.4762 88.8248 73.2775 88.3115 72.8802 87.9362C72.4828 87.5719 71.8867 87.3898 71.092 87.3898C70.4849 87.3898 69.9771 87.5002 69.5687 87.7209C69.1603 87.9417 68.8954 88.2508 68.7739 88.6482C68.7187 88.8689 68.5918 88.9683 68.3931 88.9462L64.7836 88.466C64.5408 88.4219 64.4304 88.3336 64.4525 88.2011C64.5297 87.3622 64.8609 86.6061 65.4459 85.9328C66.0309 85.2594 66.8091 84.7351 67.7805 84.3598C68.7408 83.9735 69.817 83.7803 71.0092 83.7803ZM70.4131 96.4467C71.2631 96.4467 71.9861 96.2204 72.5821 95.7678C73.1782 95.3153 73.4762 94.7302 73.4762 94.0127V92.9365C73.4762 92.8372 73.4266 92.7875 73.3272 92.7875H71.1913C70.2972 92.7875 69.5963 92.9586 69.0885 93.3008C68.5808 93.6319 68.3269 94.1066 68.3269 94.7247C68.3269 95.2656 68.5145 95.685 68.8898 95.9831C69.2651 96.2922 69.7729 96.4467 70.4131 96.4467ZM90.1495 78.8462C90.1495 78.7468 90.1826 78.6585 90.2489 78.5813C90.3151 78.515 90.3979 78.4819 90.4972 78.4819H93.9908C94.0902 78.4819 94.173 78.515 94.2392 78.5813C94.3054 78.6585 94.3385 78.7468 94.3385 78.8462V98.98C94.3385 99.0793 94.3054 99.1676 94.2392 99.2449C94.173 99.3111 94.0902 99.3442 93.9908 99.3442H90.4972C90.3979 99.3442 90.3151 99.3111 90.2489 99.2449C90.1826 99.1676 90.1495 99.0793 90.1495 98.98V98.0031C90.1495 97.9479 90.1274 97.9148 90.0833 97.9037C90.0391 97.8927 90.0005 97.9037 89.9674 97.9369C89.1285 99.0296 87.986 99.576 86.54 99.576C85.1492 99.576 83.9515 99.1897 82.9471 98.417C81.9426 97.6443 81.2196 96.5847 80.778 95.238C80.4469 94.2004 80.2813 92.9972 80.2813 91.6285C80.2813 90.2156 80.4579 88.9848 80.8112 87.9362C81.2748 86.6558 81.9978 85.6458 82.9802 84.9062C83.9626 84.1556 85.1768 83.7803 86.6228 83.7803C88.0578 83.7803 89.1726 84.277 89.9674 85.2705C90.0005 85.3367 90.0391 85.3588 90.0833 85.3367C90.1274 85.3146 90.1495 85.276 90.1495 85.2208V78.8462ZM89.5203 94.6916C89.9177 93.9631 90.1164 92.9586 90.1164 91.6782C90.1164 90.3536 89.8956 89.3105 89.4541 88.5488C89.0015 87.7761 88.3392 87.3898 87.4672 87.3898C86.529 87.3898 85.8225 87.7761 85.3479 88.5488C84.8512 89.3325 84.6028 90.3867 84.6028 91.7113C84.6028 92.9034 84.8125 93.8968 85.232 94.6916C85.7287 95.5526 86.4627 95.9831 87.4341 95.9831C88.3282 95.9831 89.0236 95.5526 89.5203 94.6916ZM111.061 90.1052C111.183 90.8558 111.222 91.7002 111.177 92.6385C111.166 92.8813 111.039 93.0027 110.797 93.0027H101.591C101.469 93.0027 101.431 93.0524 101.475 93.1518C101.53 93.5491 101.635 93.9465 101.789 94.3439C102.308 95.4477 103.362 95.9996 104.952 95.9996C106.221 95.9886 107.226 95.4753 107.965 94.4598C108.043 94.3384 108.131 94.2777 108.23 94.2777C108.296 94.2777 108.368 94.3163 108.445 94.3936L110.581 96.5129C110.681 96.6123 110.73 96.7006 110.73 96.7778C110.73 96.822 110.692 96.9048 110.614 97.0262C109.963 97.832 109.119 98.4612 108.081 98.9137C107.055 99.3553 105.923 99.576 104.687 99.576C102.976 99.576 101.53 99.1897 100.349 98.417C99.1678 97.6443 98.3178 96.5626 97.799 95.1718C97.3796 94.1783 97.1698 92.8758 97.1698 91.2642C97.1698 90.1714 97.3188 89.2111 97.6169 88.3832C98.0805 86.9703 98.8808 85.8444 100.018 85.0055C101.166 84.1777 102.523 83.7637 104.091 83.7637C106.078 83.7637 107.673 84.3377 108.876 85.4857C110.079 86.6337 110.808 88.1735 111.061 90.1052ZM104.124 87.3898C102.866 87.3898 102.038 87.9748 101.64 89.1449C101.563 89.4098 101.497 89.7299 101.442 90.1052C101.442 90.2046 101.491 90.2542 101.591 90.2542H106.74C106.861 90.2542 106.9 90.2046 106.856 90.1052C106.757 89.5312 106.707 89.2553 106.707 89.2773C106.53 88.6813 106.221 88.2177 105.78 87.8865C105.327 87.5554 104.775 87.3898 104.124 87.3898ZM121.41 83.8134C122.127 83.8134 122.69 83.9514 123.099 84.2273C123.264 84.3156 123.325 84.4647 123.281 84.6744L122.652 88.0852C122.641 88.317 122.503 88.3832 122.238 88.2839C121.94 88.1846 121.592 88.1349 121.195 88.1349C121.04 88.1349 120.825 88.157 120.549 88.2011C119.831 88.2563 119.224 88.5157 118.728 88.9793C118.231 89.454 117.982 90.0776 117.982 90.8503V98.98C117.982 99.0793 117.949 99.1676 117.883 99.2449C117.806 99.3111 117.718 99.3442 117.618 99.3442H114.141C114.042 99.3442 113.954 99.3111 113.876 99.2449C113.81 99.1676 113.777 99.0793 113.777 98.98V84.3764C113.777 84.277 113.81 84.1942 113.876 84.128C113.954 84.0618 114.042 84.0287 114.141 84.0287H117.618C117.718 84.0287 117.806 84.0618 117.883 84.128C117.949 84.1942 117.982 84.277 117.982 84.3764V85.5188C117.982 85.574 117.999 85.6126 118.032 85.6347C118.076 85.6568 118.109 85.6458 118.131 85.6016C118.948 84.4095 120.041 83.8134 121.41 83.8134Z"
                                    fill="#252530"></path>
                                <path
                                    d="M28.2552 124.975C27.3943 124.975 26.6437 124.837 26.0034 124.561C25.3632 124.285 24.8665 123.899 24.5133 123.402C24.1711 122.905 24 122.32 24 121.647V121.233C24 121.178 24.0221 121.128 24.0662 121.084C24.0993 121.051 24.1435 121.034 24.1987 121.034H25.6723C25.7275 121.034 25.7772 121.051 25.8213 121.084C25.8544 121.128 25.871 121.178 25.871 121.233V121.548C25.871 122.055 26.0973 122.475 26.5498 122.806C27.0024 123.148 27.6205 123.319 28.4043 123.319C29.0776 123.319 29.5854 123.176 29.9275 122.889C30.2697 122.602 30.4408 122.232 30.4408 121.779C30.4408 121.47 30.347 121.205 30.1593 120.985C29.9717 120.775 29.7068 120.582 29.3646 120.405C29.0114 120.229 28.4871 120.008 27.7916 119.743C27.0079 119.456 26.3732 119.185 25.8875 118.932C25.4019 118.678 24.999 118.33 24.6789 117.888C24.3477 117.458 24.1821 116.917 24.1821 116.266C24.1821 115.294 24.5354 114.527 25.2418 113.964C25.9483 113.401 26.892 113.12 28.0731 113.12C28.901 113.12 29.635 113.263 30.2752 113.55C30.9044 113.837 31.3956 114.24 31.7489 114.759C32.1021 115.267 32.2787 115.857 32.2787 116.531V116.812C32.2787 116.867 32.2566 116.917 32.2125 116.961C32.1793 116.994 32.1352 117.011 32.08 117.011H30.5898C30.5346 117.011 30.4905 116.994 30.4574 116.961C30.4132 116.917 30.3911 116.867 30.3911 116.812V116.63C30.3911 116.111 30.1814 115.675 29.762 115.322C29.3315 114.958 28.7409 114.776 27.9903 114.776C27.3832 114.776 26.9141 114.903 26.583 115.157C26.2408 115.41 26.0697 115.769 26.0697 116.233C26.0697 116.564 26.158 116.834 26.3346 117.044C26.5112 117.254 26.7761 117.441 27.1293 117.607C27.4826 117.784 28.029 118.004 28.7685 118.269C29.5522 118.567 30.1814 118.838 30.6561 119.081C31.1197 119.323 31.5226 119.66 31.8648 120.091C32.1959 120.532 32.3615 121.079 32.3615 121.73C32.3615 122.723 31.9917 123.512 31.2521 124.097C30.5236 124.683 29.5246 124.975 28.2552 124.975ZM43.1734 116.249C44.0234 116.249 44.6912 116.503 45.1769 117.011C45.6515 117.53 45.8889 118.247 45.8889 119.163V124.644C45.8889 124.699 45.8723 124.743 45.8392 124.776C45.795 124.82 45.7454 124.843 45.6902 124.843H44.1834C44.1283 124.843 44.0841 124.82 44.051 124.776C44.0068 124.743 43.9848 124.699 43.9848 124.644V119.561C43.9848 119.053 43.8523 118.65 43.5874 118.352C43.3114 118.054 42.9472 117.905 42.4946 117.905C42.042 117.905 41.6722 118.054 41.3852 118.352C41.0983 118.65 40.9548 119.047 40.9548 119.544V124.644C40.9548 124.699 40.9382 124.743 40.9051 124.776C40.8609 124.82 40.8113 124.843 40.7561 124.843H39.2493C39.1942 124.843 39.1445 124.82 39.1003 124.776C39.0672 124.743 39.0507 124.699 39.0507 124.644V119.561C39.0507 119.053 38.9127 118.65 38.6367 118.352C38.3608 118.054 37.9965 117.905 37.5439 117.905C37.1245 117.905 36.7768 118.026 36.5008 118.269C36.2359 118.512 36.0814 118.843 36.0372 119.263V124.644C36.0372 124.699 36.0207 124.743 35.9875 124.776C35.9434 124.82 35.8937 124.843 35.8385 124.843H34.3152C34.2601 124.843 34.2159 124.82 34.1828 124.776C34.1386 124.743 34.1166 124.699 34.1166 124.644V116.58C34.1166 116.525 34.1386 116.476 34.1828 116.431C34.2159 116.398 34.2601 116.382 34.3152 116.382H35.8385C35.8937 116.382 35.9434 116.398 35.9875 116.431C36.0207 116.476 36.0372 116.525 36.0372 116.58V117.127C36.0372 117.16 36.0483 117.182 36.0703 117.193C36.0924 117.204 36.1145 117.193 36.1366 117.16C36.3794 116.851 36.6774 116.625 37.0307 116.481C37.3949 116.327 37.7978 116.249 38.2393 116.249C38.7802 116.249 39.2549 116.36 39.6633 116.58C40.0717 116.801 40.3863 117.121 40.6071 117.541C40.6402 117.585 40.6788 117.585 40.723 117.541C40.9658 117.099 41.3025 116.774 41.733 116.564C42.1634 116.354 42.6436 116.249 43.1734 116.249ZM51.0713 116.249C51.7667 116.249 52.3793 116.371 52.9092 116.614C53.439 116.856 53.8474 117.188 54.1344 117.607C54.4214 118.037 54.5649 118.523 54.5649 119.064V124.644C54.5649 124.699 54.5484 124.743 54.5152 124.776C54.4711 124.82 54.4214 124.843 54.3662 124.843H52.843C52.7878 124.843 52.7436 124.82 52.7105 124.776C52.6663 124.743 52.6443 124.699 52.6443 124.644V124.114C52.6443 124.081 52.6332 124.059 52.6111 124.048C52.5891 124.048 52.567 124.059 52.5449 124.081C52.004 124.677 51.2203 124.975 50.1938 124.975C49.3659 124.975 48.6871 124.765 48.1572 124.346C47.6163 123.926 47.3459 123.303 47.3459 122.475C47.3459 121.614 47.6495 120.941 48.2566 120.455C48.8526 119.98 49.6971 119.743 50.7898 119.743H52.5615C52.6167 119.743 52.6443 119.715 52.6443 119.66V119.263C52.6443 118.832 52.5173 118.496 52.2634 118.253C52.0096 118.021 51.6287 117.905 51.121 117.905C50.7015 117.905 50.3649 117.982 50.111 118.137C49.8461 118.28 49.6805 118.485 49.6143 118.749C49.5811 118.882 49.5039 118.937 49.3825 118.915L47.7764 118.716C47.7212 118.705 47.6771 118.689 47.6439 118.667C47.5998 118.634 47.5832 118.595 47.5943 118.551C47.6826 117.877 48.0468 117.326 48.687 116.895C49.3162 116.465 50.111 116.249 51.0713 116.249ZM50.6739 123.452C51.2148 123.452 51.6784 123.308 52.0648 123.021C52.4511 122.734 52.6443 122.37 52.6443 121.928V121.15C52.6443 121.095 52.6167 121.067 52.5615 121.067H51.1707C50.5856 121.067 50.1275 121.178 49.7964 121.399C49.4542 121.619 49.2831 121.934 49.2831 122.342C49.2831 122.696 49.4156 122.966 49.6805 123.154C49.9344 123.352 50.2655 123.452 50.6739 123.452ZM56.6843 124.843C56.6291 124.843 56.5849 124.82 56.5518 124.776C56.5077 124.743 56.4856 124.699 56.4856 124.644V113.451C56.4856 113.396 56.5077 113.352 56.5518 113.319C56.5849 113.274 56.6291 113.252 56.6843 113.252H58.2075C58.2627 113.252 58.3124 113.274 58.3566 113.319C58.3897 113.352 58.4062 113.396 58.4062 113.451V124.644C58.4062 124.699 58.3897 124.743 58.3566 124.776C58.3124 124.82 58.2627 124.843 58.2075 124.843H56.6843ZM60.6415 124.843C60.5863 124.843 60.5421 124.82 60.509 124.776C60.4649 124.743 60.4428 124.699 60.4428 124.644V113.451C60.4428 113.396 60.4649 113.352 60.509 113.319C60.5421 113.274 60.5863 113.252 60.6415 113.252H62.1648C62.2199 113.252 62.2696 113.274 62.3138 113.319C62.3469 113.352 62.3634 113.396 62.3634 113.451V124.644C62.3634 124.699 62.3469 124.743 62.3138 124.776C62.2696 124.82 62.2199 124.843 62.1648 124.843H60.6415ZM74.3675 118.799C74.3013 118.832 74.3013 118.865 74.3675 118.898C75.4934 119.428 76.0564 120.339 76.0564 121.63C76.0564 122.679 75.7087 123.479 75.0133 124.031C74.3068 124.572 73.3907 124.843 72.2648 124.843H68.0923C68.0371 124.843 67.993 124.82 67.9598 124.776C67.9157 124.743 67.8936 124.699 67.8936 124.644V113.451C67.8936 113.396 67.9157 113.352 67.9598 113.319C67.993 113.274 68.0371 113.252 68.0923 113.252H72.1323C73.3355 113.252 74.2627 113.512 74.9139 114.031C75.5652 114.549 75.8908 115.333 75.8908 116.382C75.8908 117.541 75.3831 118.347 74.3675 118.799ZM69.897 114.908C69.8419 114.908 69.8143 114.936 69.8143 114.991V118.054C69.8143 118.109 69.8419 118.137 69.897 118.137H72.1323C72.7173 118.137 73.1809 117.999 73.5231 117.723C73.8543 117.436 74.0198 117.044 74.0198 116.547C74.0198 116.04 73.8543 115.637 73.5231 115.339C73.1809 115.052 72.7173 114.908 72.1323 114.908H69.897ZM72.2648 123.17C72.8387 123.17 73.2968 123.016 73.639 122.707C73.9702 122.398 74.1357 121.978 74.1357 121.448C74.1357 120.907 73.9646 120.488 73.6225 120.19C73.2803 119.881 72.8167 119.726 72.2316 119.726H69.897C69.8419 119.726 69.8143 119.754 69.8143 119.809V123.087C69.8143 123.143 69.8419 123.17 69.897 123.17H72.2648ZM82.8615 116.58C82.8615 116.525 82.878 116.476 82.9112 116.431C82.9553 116.398 83.005 116.382 83.0602 116.382H84.5669C84.6221 116.382 84.6717 116.398 84.7159 116.431C84.749 116.476 84.7656 116.525 84.7656 116.58V124.644C84.7656 124.699 84.749 124.743 84.7159 124.776C84.6717 124.82 84.6221 124.843 84.5669 124.843H83.0602C83.005 124.843 82.9553 124.82 82.9112 124.776C82.878 124.743 82.8615 124.699 82.8615 124.644V124.114C82.8615 124.081 82.8504 124.059 82.8284 124.048C82.8063 124.037 82.7842 124.048 82.7621 124.081C82.3096 124.666 81.6307 124.958 80.7256 124.958C79.8867 124.958 79.1857 124.716 78.6228 124.23C78.0488 123.744 77.7618 123.054 77.7618 122.16V116.58C77.7618 116.525 77.7784 116.476 77.8115 116.431C77.8556 116.398 77.9053 116.382 77.9605 116.382H79.4838C79.539 116.382 79.5886 116.398 79.6328 116.431C79.6659 116.476 79.6825 116.525 79.6825 116.58V121.614C79.6825 122.133 79.8204 122.547 80.0964 122.856C80.3613 123.165 80.7366 123.319 81.2223 123.319C81.719 123.319 82.1164 123.165 82.4144 122.856C82.7125 122.547 82.8615 122.133 82.8615 121.614V116.58ZM89.9646 124.942C89.2692 124.942 88.6566 124.837 88.1267 124.627C87.6079 124.429 87.205 124.147 86.918 123.783C86.631 123.43 86.4875 123.032 86.4875 122.591V122.442C86.4875 122.387 86.5041 122.337 86.5372 122.293C86.5814 122.26 86.631 122.243 86.6862 122.243H88.1433C88.1985 122.243 88.2426 122.26 88.2757 122.293C88.3199 122.337 88.342 122.387 88.342 122.442V122.475C88.342 122.751 88.491 122.994 88.789 123.203C89.0981 123.402 89.4844 123.501 89.948 123.501C90.3896 123.501 90.7483 123.413 91.0243 123.237C91.3002 123.049 91.4382 122.817 91.4382 122.541C91.4382 122.287 91.3223 122.094 91.0905 121.962C90.8697 121.84 90.5055 121.708 89.9977 121.564L89.3685 121.366C88.8056 121.2 88.3309 121.023 87.9446 120.836C87.5583 120.648 87.2326 120.389 86.9677 120.057C86.7028 119.737 86.5703 119.323 86.5703 118.816C86.5703 118.043 86.8739 117.43 87.481 116.978C88.0881 116.514 88.8884 116.282 89.8818 116.282C90.5551 116.282 91.1457 116.387 91.6534 116.597C92.1612 116.818 92.5531 117.116 92.829 117.491C93.105 117.877 93.243 118.313 93.243 118.799C93.243 118.854 93.2209 118.904 93.1767 118.948C93.1436 118.981 93.0995 118.998 93.0443 118.998H91.6369C91.5817 118.998 91.532 118.981 91.4879 118.948C91.4548 118.904 91.4382 118.854 91.4382 118.799C91.4382 118.512 91.2947 118.275 91.0077 118.087C90.7318 117.888 90.3509 117.789 89.8652 117.789C89.4348 117.789 89.0815 117.866 88.8056 118.021C88.5407 118.187 88.4082 118.413 88.4082 118.7C88.4082 118.965 88.5351 119.163 88.789 119.296C89.0539 119.439 89.4899 119.594 90.097 119.759L90.4613 119.859C91.0463 120.035 91.5375 120.212 91.9349 120.389C92.3323 120.576 92.669 120.83 92.9449 121.15C93.2209 121.481 93.3589 121.906 93.3589 122.425C93.3589 123.209 93.0498 123.822 92.4316 124.263C91.8135 124.716 90.9911 124.942 89.9646 124.942ZM96.0743 115.223C95.7321 115.223 95.4506 115.112 95.2298 114.892C95.0091 114.671 94.8987 114.389 94.8987 114.047C94.8987 113.705 95.0091 113.424 95.2298 113.203C95.4506 112.982 95.7321 112.872 96.0743 112.872C96.4164 112.872 96.6979 112.982 96.9187 113.203C97.1395 113.424 97.2498 113.705 97.2498 114.047C97.2498 114.389 97.1395 114.671 96.9187 114.892C96.6979 115.112 96.4164 115.223 96.0743 115.223ZM95.2795 124.843C95.2243 124.843 95.1746 124.82 95.1305 124.776C95.0974 124.743 95.0808 124.699 95.0808 124.644V116.564C95.0808 116.509 95.0974 116.465 95.1305 116.431C95.1746 116.387 95.2243 116.365 95.2795 116.365H96.8028C96.858 116.365 96.9021 116.387 96.9353 116.431C96.9794 116.465 97.0015 116.509 97.0015 116.564V124.644C97.0015 124.699 96.9794 124.743 96.9353 124.776C96.9021 124.82 96.858 124.843 96.8028 124.843H95.2795ZM103.26 116.249C104.154 116.249 104.866 116.514 105.396 117.044C105.937 117.574 106.207 118.297 106.207 119.213V124.644C106.207 124.699 106.185 124.743 106.141 124.776C106.108 124.82 106.064 124.843 106.009 124.843H104.485C104.43 124.843 104.381 124.82 104.336 124.776C104.303 124.743 104.287 124.699 104.287 124.644V119.61C104.287 119.103 104.143 118.689 103.856 118.369C103.569 118.06 103.188 117.905 102.714 117.905C102.239 117.905 101.853 118.06 101.555 118.369C101.268 118.678 101.124 119.086 101.124 119.594V124.644C101.124 124.699 101.102 124.743 101.058 124.776C101.025 124.82 100.981 124.843 100.926 124.843H99.4023C99.3471 124.843 99.2974 124.82 99.2533 124.776C99.2202 124.743 99.2036 124.699 99.2036 124.644V116.58C99.2036 116.525 99.2202 116.476 99.2533 116.431C99.2974 116.398 99.3471 116.382 99.4023 116.382H100.926C100.981 116.382 101.025 116.398 101.058 116.431C101.102 116.476 101.124 116.525 101.124 116.58V117.11C101.124 117.143 101.135 117.165 101.157 117.176C101.179 117.188 101.196 117.177 101.207 117.143C101.66 116.547 102.344 116.249 103.26 116.249ZM115.281 119.66C115.325 119.936 115.347 120.245 115.347 120.587L115.33 121.101C115.33 121.233 115.264 121.299 115.132 121.299H109.949C109.894 121.299 109.867 121.327 109.867 121.382C109.9 121.746 109.949 121.995 110.016 122.127C110.28 122.922 110.926 123.325 111.953 123.336C112.703 123.336 113.299 123.027 113.741 122.409C113.785 122.342 113.84 122.309 113.907 122.309C113.951 122.309 113.989 122.326 114.022 122.359L115.049 123.203C115.148 123.281 115.165 123.369 115.099 123.468C114.757 123.954 114.298 124.329 113.724 124.594C113.161 124.859 112.532 124.992 111.837 124.992C110.976 124.992 110.242 124.798 109.635 124.412C109.039 124.026 108.603 123.485 108.327 122.789C108.073 122.193 107.946 121.366 107.946 120.306C107.946 119.666 108.012 119.147 108.145 118.749C108.365 117.977 108.779 117.364 109.386 116.912C110.005 116.47 110.744 116.249 111.605 116.249C113.78 116.249 115.005 117.386 115.281 119.66ZM111.605 117.905C111.197 117.905 110.854 118.01 110.579 118.22C110.314 118.418 110.126 118.7 110.016 119.064C109.949 119.252 109.905 119.495 109.883 119.793C109.861 119.848 109.883 119.875 109.949 119.875H113.31C113.366 119.875 113.393 119.848 113.393 119.793C113.371 119.517 113.338 119.307 113.294 119.163C113.195 118.766 112.996 118.457 112.698 118.236C112.411 118.015 112.047 117.905 111.605 117.905ZM120.116 124.942C119.42 124.942 118.808 124.837 118.278 124.627C117.759 124.429 117.356 124.147 117.069 123.783C116.782 123.43 116.639 123.032 116.639 122.591V122.442C116.639 122.387 116.655 122.337 116.688 122.293C116.732 122.26 116.782 122.243 116.837 122.243H118.294C118.349 122.243 118.394 122.26 118.427 122.293C118.471 122.337 118.493 122.387 118.493 122.442V122.475C118.493 122.751 118.642 122.994 118.94 123.203C119.249 123.402 119.635 123.501 120.099 123.501C120.541 123.501 120.899 123.413 121.175 123.237C121.451 123.049 121.589 122.817 121.589 122.541C121.589 122.287 121.473 122.094 121.241 121.962C121.021 121.84 120.656 121.708 120.149 121.564L119.52 121.366C118.957 121.2 118.482 121.023 118.096 120.836C117.709 120.648 117.384 120.389 117.119 120.057C116.854 119.737 116.721 119.323 116.721 118.816C116.721 118.043 117.025 117.43 117.632 116.978C118.239 116.514 119.039 116.282 120.033 116.282C120.706 116.282 121.297 116.387 121.804 116.597C122.312 116.818 122.704 117.116 122.98 117.491C123.256 117.877 123.394 118.313 123.394 118.799C123.394 118.854 123.372 118.904 123.328 118.948C123.295 118.981 123.25 118.998 123.195 118.998H121.788C121.733 118.998 121.683 118.981 121.639 118.948C121.606 118.904 121.589 118.854 121.589 118.799C121.589 118.512 121.446 118.275 121.159 118.087C120.883 117.888 120.502 117.789 120.016 117.789C119.586 117.789 119.233 117.866 118.957 118.021C118.692 118.187 118.559 118.413 118.559 118.7C118.559 118.965 118.686 119.163 118.94 119.296C119.205 119.439 119.641 119.594 120.248 119.759L120.612 119.859C121.197 120.035 121.689 120.212 122.086 120.389C122.483 120.576 122.82 120.83 123.096 121.15C123.372 121.481 123.51 121.906 123.51 122.425C123.51 123.209 123.201 123.822 122.583 124.263C121.964 124.716 121.142 124.942 120.116 124.942ZM128.113 124.942C127.417 124.942 126.805 124.837 126.275 124.627C125.756 124.429 125.353 124.147 125.066 123.783C124.779 123.43 124.636 123.032 124.636 122.591V122.442C124.636 122.387 124.652 122.337 124.685 122.293C124.73 122.26 124.779 122.243 124.834 122.243H126.291C126.347 122.243 126.391 122.26 126.424 122.293C126.468 122.337 126.49 122.387 126.49 122.442V122.475C126.49 122.751 126.639 122.994 126.937 123.203C127.246 123.402 127.633 123.501 128.096 123.501C128.538 123.501 128.897 123.413 129.172 123.237C129.448 123.049 129.586 122.817 129.586 122.541C129.586 122.287 129.47 122.094 129.239 121.962C129.018 121.84 128.654 121.708 128.146 121.564L127.517 121.366C126.954 121.2 126.479 121.023 126.093 120.836C125.706 120.648 125.381 120.389 125.116 120.057C124.851 119.737 124.719 119.323 124.719 118.816C124.719 118.043 125.022 117.43 125.629 116.978C126.236 116.514 127.037 116.282 128.03 116.282C128.703 116.282 129.294 116.387 129.802 116.597C130.309 116.818 130.701 117.116 130.977 117.491C131.253 117.877 131.391 118.313 131.391 118.799C131.391 118.854 131.369 118.904 131.325 118.948C131.292 118.981 131.248 118.998 131.192 118.998H129.785C129.73 118.998 129.68 118.981 129.636 118.948C129.603 118.904 129.586 118.854 129.586 118.799C129.586 118.512 129.443 118.275 129.156 118.087C128.88 117.888 128.499 117.789 128.013 117.789C127.583 117.789 127.23 117.866 126.954 118.021C126.689 118.187 126.556 118.413 126.556 118.7C126.556 118.965 126.683 119.163 126.937 119.296C127.202 119.439 127.638 119.594 128.245 119.759L128.61 119.859C129.195 120.035 129.686 120.212 130.083 120.389C130.48 120.576 130.817 120.83 131.093 121.15C131.369 121.481 131.507 121.906 131.507 122.425C131.507 123.209 131.198 123.822 130.58 124.263C129.962 124.716 129.139 124.942 128.113 124.942Z"
                                    fill="white"></path>
                                <path
                                    d="M55.3877 148.321C54.5046 148.321 53.732 148.177 53.0697 147.89C52.4074 147.614 51.8996 147.212 51.5464 146.682C51.1821 146.163 51 145.556 51 144.86V144.496C51 144.441 51.0221 144.397 51.0662 144.364C51.0993 144.32 51.1435 144.297 51.1987 144.297H53.0862C53.1414 144.297 53.1911 144.32 53.2352 144.364C53.2684 144.397 53.2849 144.441 53.2849 144.496V144.745C53.2849 145.186 53.4891 145.556 53.8975 145.854C54.306 146.163 54.8579 146.317 55.5533 146.317C56.1383 146.317 56.5743 146.196 56.8613 145.953C57.1483 145.699 57.2918 145.39 57.2918 145.026C57.2918 144.761 57.2035 144.54 57.0269 144.364C56.8503 144.176 56.6074 144.016 56.2984 143.884C56.0003 143.74 55.5202 143.547 54.8579 143.304C54.1183 143.05 53.4891 142.791 52.9703 142.526C52.4626 142.261 52.0376 141.897 51.6954 141.433C51.3422 140.98 51.1656 140.418 51.1656 139.744C51.1656 139.082 51.3367 138.502 51.6789 138.006C52.021 137.509 52.4957 137.128 53.1028 136.863C53.7099 136.598 54.4108 136.466 55.2056 136.466C56.0445 136.466 56.7896 136.615 57.4408 136.913C58.1031 137.211 58.6219 137.63 58.9972 138.171C59.3615 138.701 59.5436 139.319 59.5436 140.026V140.274C59.5436 140.329 59.5271 140.373 59.4939 140.406C59.4498 140.451 59.4001 140.473 59.3449 140.473H57.4408C57.3856 140.473 57.3415 140.451 57.3084 140.406C57.2642 140.373 57.2421 140.329 57.2421 140.274V140.142C57.2421 139.678 57.0545 139.281 56.6792 138.949C56.2928 138.629 55.7685 138.469 55.1062 138.469C54.5874 138.469 54.179 138.58 53.881 138.8C53.594 139.021 53.4505 139.325 53.4505 139.711C53.4505 139.987 53.5388 140.219 53.7154 140.406C53.881 140.594 54.1349 140.76 54.477 140.903C54.8082 141.058 55.327 141.262 56.0334 141.516C56.8172 141.803 57.4298 142.057 57.8713 142.277C58.3239 142.498 58.7323 142.824 59.0966 143.254C59.4498 143.696 59.6264 144.264 59.6264 144.96C59.6264 145.997 59.2456 146.814 58.4839 147.41C57.7223 148.017 56.6902 148.321 55.3877 148.321ZM66.0507 136.582C66.7792 136.582 67.4194 136.731 67.9713 137.029C68.5232 137.327 68.9537 137.746 69.2628 138.287C69.5608 138.839 69.7098 139.468 69.7098 140.175C69.7098 140.87 69.5553 141.483 69.2462 142.013C68.9261 142.542 68.4791 142.956 67.9051 143.254C67.3421 143.541 66.6909 143.685 65.9513 143.685H63.6002C63.545 143.685 63.5174 143.712 63.5174 143.768V147.99C63.5174 148.045 63.4953 148.089 63.4511 148.122C63.418 148.166 63.3739 148.188 63.3187 148.188H61.3815C61.3263 148.188 61.2766 148.166 61.2325 148.122C61.1993 148.089 61.1828 148.045 61.1828 147.99V136.78C61.1828 136.725 61.1993 136.676 61.2325 136.631C61.2766 136.598 61.3263 136.582 61.3815 136.582H66.0507ZM65.703 141.814C66.2107 141.814 66.6191 141.665 66.9282 141.367C67.2373 141.08 67.3918 140.699 67.3918 140.224C67.3918 139.739 67.2373 139.347 66.9282 139.049C66.6191 138.751 66.2107 138.602 65.703 138.602H63.6002C63.545 138.602 63.5174 138.629 63.5174 138.685V141.731C63.5174 141.786 63.545 141.814 63.6002 141.814H65.703ZM77.5084 148.188C77.398 148.188 77.3207 148.139 77.2766 148.039L75.2069 143.453C75.1848 143.409 75.1517 143.387 75.1075 143.387H73.5677C73.5125 143.387 73.4849 143.414 73.4849 143.47V147.99C73.4849 148.045 73.4628 148.089 73.4187 148.122C73.3856 148.166 73.3414 148.188 73.2862 148.188H71.349C71.2938 148.188 71.2442 148.166 71.2 148.122C71.1669 148.089 71.1503 148.045 71.1503 147.99V136.797C71.1503 136.742 71.1669 136.698 71.2 136.665C71.2442 136.62 71.2938 136.598 71.349 136.598H76.0844C76.7909 136.598 77.409 136.742 77.9389 137.029C78.4797 137.316 78.8937 137.724 79.1807 138.254C79.4787 138.784 79.6277 139.396 79.6277 140.092C79.6277 140.842 79.4401 141.483 79.0648 142.013C78.6895 142.553 78.1651 142.934 77.4918 143.155C77.4366 143.177 77.4201 143.216 77.4421 143.271L79.6939 147.957C79.716 148.001 79.727 148.034 79.727 148.056C79.727 148.144 79.6663 148.188 79.5449 148.188H77.5084ZM73.5677 138.602C73.5125 138.602 73.4849 138.629 73.4849 138.685V141.516C73.4849 141.571 73.5125 141.599 73.5677 141.599H75.7367C76.2003 141.599 76.5756 141.461 76.8626 141.185C77.1607 140.909 77.3097 140.55 77.3097 140.108C77.3097 139.667 77.1607 139.303 76.8626 139.016C76.5756 138.74 76.2003 138.602 75.7367 138.602H73.5677ZM81.5152 148.188C81.4601 148.188 81.4159 148.166 81.3828 148.122C81.3386 148.089 81.3166 148.045 81.3166 147.99V136.797C81.3166 136.742 81.3386 136.698 81.3828 136.665C81.4159 136.62 81.4601 136.598 81.5152 136.598H83.4525C83.5076 136.598 83.5573 136.62 83.6015 136.665C83.6346 136.698 83.6511 136.742 83.6511 136.797V147.99C83.6511 148.045 83.6346 148.089 83.6015 148.122C83.5573 148.166 83.5076 148.188 83.4525 148.188H81.5152ZM92.3272 136.797C92.3272 136.742 92.3493 136.698 92.3934 136.665C92.4266 136.62 92.4707 136.598 92.5259 136.598H94.4631C94.5183 136.598 94.568 136.62 94.6121 136.665C94.6452 136.698 94.6618 136.742 94.6618 136.797V147.99C94.6618 148.045 94.6452 148.089 94.6121 148.122C94.568 148.166 94.5183 148.188 94.4631 148.188H92.5921C92.4817 148.188 92.4045 148.144 92.3603 148.056L88.072 140.969C88.0499 140.936 88.0278 140.925 88.0057 140.936C87.9837 140.936 87.9726 140.958 87.9726 141.003L88.0057 147.99C88.0057 148.045 87.9892 148.089 87.9561 148.122C87.9119 148.166 87.8622 148.188 87.807 148.188H85.8698C85.8146 148.188 85.7705 148.166 85.7374 148.122C85.6932 148.089 85.6711 148.045 85.6711 147.99V136.797C85.6711 136.742 85.6932 136.698 85.7374 136.665C85.7705 136.62 85.8146 136.598 85.8698 136.598H87.7408C87.8512 136.598 87.9285 136.642 87.9726 136.731L92.2444 143.784C92.2665 143.817 92.2886 143.828 92.3107 143.817C92.3327 143.817 92.3438 143.795 92.3438 143.751L92.3272 136.797ZM100.755 148.321C99.905 148.321 99.1544 148.15 98.5031 147.808C97.8519 147.465 97.3496 146.991 96.9964 146.384C96.6321 145.766 96.45 145.054 96.45 144.248V140.539C96.45 139.733 96.6321 139.021 96.9964 138.403C97.3496 137.785 97.8519 137.305 98.5031 136.963C99.1544 136.631 99.905 136.466 100.755 136.466C101.594 136.466 102.339 136.631 102.99 136.963C103.63 137.294 104.133 137.746 104.497 138.32C104.85 138.883 105.027 139.512 105.027 140.208V140.324C105.027 140.379 105.01 140.423 104.977 140.456C104.933 140.5 104.883 140.522 104.828 140.522H102.891C102.836 140.522 102.791 140.5 102.758 140.456C102.714 140.423 102.692 140.379 102.692 140.324V140.274C102.692 139.766 102.516 139.341 102.162 138.999C101.809 138.646 101.34 138.469 100.755 138.469C100.159 138.469 99.6842 138.651 99.331 139.016C98.9667 139.391 98.7846 139.877 98.7846 140.473V144.314C98.7846 144.91 98.9778 145.39 99.3641 145.755C99.7504 146.13 100.242 146.317 100.838 146.317C101.412 146.317 101.87 146.163 102.212 145.854C102.554 145.556 102.725 145.136 102.725 144.595V143.85C102.725 143.795 102.698 143.768 102.642 143.768H100.788C100.733 143.768 100.689 143.746 100.656 143.701C100.611 143.668 100.589 143.624 100.589 143.569V142.046C100.589 141.99 100.611 141.946 100.656 141.913C100.689 141.869 100.733 141.847 100.788 141.847H104.828C104.883 141.847 104.933 141.869 104.977 141.913C105.01 141.946 105.027 141.99 105.027 142.046V144.231C105.027 145.07 104.85 145.799 104.497 146.417C104.144 147.035 103.647 147.51 103.007 147.841C102.355 148.161 101.605 148.321 100.755 148.321ZM62.8882 161.65C62.8661 161.672 62.8606 161.694 62.8716 161.716C62.8827 161.738 62.9048 161.749 62.9379 161.749H67.4249C67.4801 161.749 67.5298 161.765 67.5739 161.799C67.607 161.843 67.6236 161.892 67.6236 161.948V163.554C67.6236 163.609 67.607 163.653 67.5739 163.686C67.5298 163.73 67.4801 163.752 67.4249 163.752H59.9741C59.9189 163.752 59.8692 163.73 59.8251 163.686C59.792 163.653 59.7754 163.609 59.7754 163.554V162.03C59.7754 161.931 59.8085 161.848 59.8748 161.782C60.4156 161.252 60.9675 160.678 61.5305 160.06C62.0934 159.431 62.4467 159.039 62.5902 158.885C62.8992 158.52 63.2138 158.173 63.5339 157.841C64.5384 156.727 65.0407 155.899 65.0407 155.358C65.0407 154.971 64.9027 154.651 64.6267 154.397C64.3508 154.155 63.992 154.033 63.5505 154.033C63.109 154.033 62.7502 154.155 62.4743 154.397C62.1983 154.651 62.0603 154.982 62.0603 155.391V155.805C62.0603 155.86 62.0382 155.91 61.9941 155.954C61.961 155.987 61.9168 156.004 61.8616 156.004H59.9079C59.8527 156.004 59.8085 155.987 59.7754 155.954C59.7313 155.91 59.7092 155.86 59.7092 155.805V155.027C59.7423 154.431 59.9299 153.901 60.2721 153.437C60.6143 152.985 61.0669 152.637 61.6298 152.394C62.2038 152.151 62.844 152.03 63.5505 152.03C64.3342 152.03 65.0186 152.173 65.6036 152.46C66.1776 152.758 66.6246 153.156 66.9448 153.652C67.2538 154.149 67.4084 154.701 67.4084 155.308C67.4084 155.772 67.2925 156.246 67.0607 156.732C66.8289 157.218 66.4811 157.742 66.0175 158.305C65.6754 158.735 65.3056 159.16 64.9082 159.58C64.5108 159.999 63.9203 160.606 63.1366 161.401L62.8882 161.65ZM73.0048 163.935C71.7905 163.935 70.8302 163.592 70.1238 162.908C69.4173 162.235 69.0641 161.313 69.0641 160.143V155.772C69.0641 154.624 69.4173 153.713 70.1238 153.04C70.8302 152.366 71.7905 152.03 73.0048 152.03C74.219 152.03 75.1848 152.366 75.9023 153.04C76.6087 153.713 76.962 154.624 76.962 155.772V160.143C76.962 161.313 76.6087 162.235 75.9023 162.908C75.1848 163.592 74.219 163.935 73.0048 163.935ZM73.0048 161.931C73.5015 161.931 73.8988 161.777 74.1969 161.467C74.4839 161.169 74.6274 160.767 74.6274 160.259V155.705C74.6274 155.198 74.4839 154.795 74.1969 154.497C73.8988 154.188 73.5015 154.033 73.0048 154.033C72.5191 154.033 72.1327 154.188 71.8457 154.497C71.5477 154.795 71.3987 155.198 71.3987 155.705V160.259C71.3987 160.767 71.5477 161.169 71.8457 161.467C72.1327 161.777 72.5191 161.931 73.0048 161.931ZM81.598 161.65C81.576 161.672 81.5704 161.694 81.5815 161.716C81.5925 161.738 81.6146 161.749 81.6477 161.749H86.1348C86.1899 161.749 86.2396 161.765 86.2838 161.799C86.3169 161.843 86.3334 161.892 86.3334 161.948V163.554C86.3334 163.609 86.3169 163.653 86.2838 163.686C86.2396 163.73 86.1899 163.752 86.1348 163.752H78.6839C78.6287 163.752 78.5846 163.73 78.5515 163.686C78.5073 163.653 78.4852 163.609 78.4852 163.554V162.03C78.4852 161.931 78.5184 161.848 78.5846 161.782C79.1255 161.252 79.6774 160.678 80.2403 160.06C80.8033 159.431 81.1565 159.039 81.3 158.885C81.6091 158.52 81.9237 158.173 82.2438 157.841C83.2482 156.727 83.7505 155.899 83.7505 155.358C83.7505 154.971 83.6125 154.651 83.3366 154.397C83.0606 154.155 82.7019 154.033 82.2603 154.033C81.8188 154.033 81.4601 154.155 81.1841 154.397C80.9081 154.651 80.7702 154.982 80.7702 155.391V155.805C80.7702 155.86 80.7536 155.91 80.7205 155.954C80.6763 155.987 80.6267 156.004 80.5715 156.004H78.6177C78.5625 156.004 78.5184 155.987 78.4852 155.954C78.4411 155.91 78.419 155.86 78.419 155.805V155.027C78.4521 154.431 78.6398 153.901 78.982 153.437C79.3242 152.985 79.7822 152.637 80.3562 152.394C80.9192 152.151 81.5539 152.03 82.2603 152.03C83.044 152.03 83.7284 152.173 84.3134 152.46C84.8874 152.758 85.3345 153.156 85.6546 153.652C85.9637 154.149 86.1182 154.701 86.1182 155.308C86.1182 155.772 86.0023 156.246 85.7705 156.732C85.5387 157.218 85.191 157.742 84.7274 158.305C84.3852 158.735 84.0154 159.16 83.618 159.58C83.2207 159.999 82.6301 160.606 81.8464 161.401L81.598 161.65ZM96.0526 158.702C96.1078 158.702 96.1575 158.719 96.2016 158.752C96.2348 158.796 96.2513 158.846 96.2513 158.901V160.573C96.2513 160.629 96.2348 160.678 96.2016 160.722C96.1575 160.755 96.1078 160.772 96.0526 160.772H95.3407C95.2855 160.772 95.2579 160.8 95.2579 160.855V163.554C95.2579 163.609 95.2413 163.653 95.2082 163.686C95.164 163.73 95.1144 163.752 95.0592 163.752H93.122C93.0668 163.752 93.0226 163.73 92.9895 163.686C92.9454 163.653 92.9233 163.609 92.9233 163.554V160.855C92.9233 160.8 92.8957 160.772 92.8405 160.772H87.7574C87.7022 160.772 87.658 160.755 87.6249 160.722C87.5808 160.678 87.5587 160.629 87.5587 160.573V159.249C87.5587 159.183 87.5752 159.1 87.6084 159L90.5887 152.311C90.6328 152.212 90.7101 152.162 90.8205 152.162H92.8902C92.9674 152.162 93.0226 152.184 93.0557 152.228C93.0778 152.262 93.0723 152.317 93.0392 152.394L90.2741 158.603C90.2631 158.625 90.2631 158.647 90.2741 158.669C90.2851 158.691 90.3017 158.702 90.3238 158.702H92.8405C92.8957 158.702 92.9233 158.675 92.9233 158.62V156.566C92.9233 156.511 92.9454 156.467 92.9895 156.434C93.0226 156.39 93.0668 156.368 93.122 156.368H95.0592C95.1144 156.368 95.164 156.39 95.2082 156.434C95.2413 156.467 95.2579 156.511 95.2579 156.566V158.62C95.2579 158.675 95.2855 158.702 95.3407 158.702H96.0526Z"
                                    fill="#252530"></path>
                            </svg>