<svg width="24" height="24" viewBox="0 0 24 24"
                                fill="none" xmlns="http://www.w3.org/2000/svg">
                                <path
                                    d="M6.5 8.5H2.5C2.22386 8.5 2 8.72386 2 9V22C2 22.2761 2.22386 22.5 2.5 22.5H6.5C6.77614 22.5 7 22.2761 7 22V9C7 8.72386 6.77614 8.5 6.5 8.5Z"
                                    fill="#fff"></path>
                                <path
                                    d="M4.48 6.5C5.84967 6.5 6.96 5.38071 6.96 4C6.96 2.61929 5.84967 1.5 4.48 1.5C3.11033 1.5 2 2.61929 2 4C2 5.38071 3.11033 6.5 4.48 6.5Z"
                                    fill="#fff"></path>
                                <path
                                    d="M18.5 22.4999H21.5C21.6326 22.4999 21.7598 22.4472 21.8536 22.3534C21.9473 22.2597 22 22.1325 22 21.9999V13.5999C22 9.82988 19.87 7.99988 16.89 7.99988C16.3022 7.97839 15.7164 8.08029 15.1704 8.29903C14.6245 8.51778 14.1304 8.8485 13.72 9.26988C13.6652 9.33321 13.5923 9.37822 13.5111 9.39889C13.43 9.41955 13.3445 9.41486 13.266 9.38545C13.1876 9.35605 13.1201 9.30334 13.0725 9.2344C13.025 9.16547 12.9997 9.08363 13 8.99988C13 8.86728 12.9473 8.7401 12.8536 8.64633C12.7598 8.55256 12.6326 8.49988 12.5 8.49988H9.5C9.36739 8.49988 9.24021 8.55256 9.14645 8.64633C9.05268 8.7401 9 8.86728 9 8.99988V21.9999C9 22.1325 9.05268 22.2597 9.14645 22.3534C9.24021 22.4472 9.36739 22.4999 9.5 22.4999H12.5C12.6326 22.4999 12.7598 22.4472 12.8536 22.3534C12.9473 22.2597 13 22.1325 13 21.9999V14.4999C13 13.8368 13.2634 13.201 13.7322 12.7321C14.2011 12.2633 14.837 11.9999 15.5 11.9999C16.163 11.9999 16.7989 12.2633 17.2678 12.7321C17.7366 13.201 18 13.8368 18 14.4999V21.9999C18 22.1325 18.0527 22.2597 18.1464 22.3534C18.2402 22.4472 18.3674 22.4999 18.5 22.4999Z"
                                    fill="#fff"></path>
                            </svg>