<svg width="48" height="48" viewBox="0 0 48 48" fill="none" xmlns="http://www.w3.org/2000/svg">
<path d="M39.8016 6.56222C39.672 6.43262 39.5376 6.30782 39.408 6.17822C39.5328 6.30782 39.672 6.43742 39.8016 6.56222Z" fill="#a4a6f1"></path>
<path d="M2.31301 19.2065C2.31301 19.2065 2.24581 19.2881 2.14501 19.4273C2.13061 19.4993 2.11621 19.5761 2.10181 19.6481C2.16421 19.4753 2.23621 19.3265 2.31301 19.2065Z" fill="#a4a6f1"></path>
<path d="M8.15621 8.51632C8.19941 8.47792 8.24261 8.42992 8.28581 8.38672C10.2826 6.38512 12.6058 4.81072 15.193 3.71152C17.8666 2.57872 20.7082 1.99792 23.641 1.99792C26.4058 1.99792 29.1034 2.51152 31.6378 3.52912C33.1258 3.78832 35.1082 4.28272 36.7546 5.22352C33.0538 2.58352 28.5274 1.02832 23.6362 1.02832C17.305 1.02832 11.5786 3.63472 7.46021 7.84432C7.65221 8.07952 7.88261 8.30992 8.15621 8.51632Z" fill="#a4a6f1"></path>
<path d="M16.2 25.6383C16.0464 25.5087 15.912 25.3647 15.7968 25.2159C15.7584 25.5375 15.7344 25.8879 15.7344 26.2575C15.7344 26.9439 15.8208 27.6735 16.0512 28.4127C16.2816 29.1471 16.6608 29.8719 17.2608 30.5487C17.6592 30.9999 18.1536 31.4271 18.7776 31.8207L18.744 31.8735C19.9104 31.9023 21.8064 31.8735 22.7664 31.5519C24.216 31.0623 26.5296 29.2287 26.5296 29.2287C27.1056 28.6527 27.7872 28.9407 28.3632 28.9407C28.9392 28.9407 29.136 28.0623 28.3632 27.1935C27.5904 26.3199 24.888 25.4511 22.8624 26.8047C20.8368 28.1535 17.9424 27.0879 16.2 25.6383ZM17.6016 12.8559C17.472 13.3407 17.3616 13.9503 17.3616 14.6223C17.3616 15.2943 17.4768 16.0191 17.7936 16.7247C18.048 17.2959 18.2832 17.7183 18.4992 18.0495C18.6576 18.2895 18.8016 18.4815 18.9312 18.6639C19.2 18.4143 19.5216 18.1599 19.7808 17.9871C20.3568 17.5983 22.5744 16.5327 22.8672 16.2447C23.1552 15.9567 23.736 14.4015 23.2512 13.9215C22.7712 13.4367 19.6848 13.7247 18.72 13.5327C18.3072 13.4511 17.9184 13.1583 17.6016 12.8559ZM18.2256 22.3311C18.2304 22.3359 18.2304 22.3455 18.2304 22.3455C18.2352 22.3407 18.24 22.3263 18.2448 22.3263L18.2256 22.3311ZM46.7904 17.9871C46.7904 18.7743 46.08 19.8735 45.9456 20.0847C45.9744 20.0127 46.0224 19.7823 46.0224 19.0575C46.0224 17.9919 46.3104 15.2751 44.9616 12.2751C43.6032 9.27028 41.5728 7.82068 41.5728 7.82068V8.49748C41.2896 7.52788 38.5872 5.68948 38.5872 5.68948V6.65908C43.4112 11.1087 43.896 14.2095 43.896 14.2095C43.0224 11.4015 40.5168 9.27028 38.3952 7.23028C36.2688 5.19508 31.824 4.13428 31.824 4.13428C36.5616 6.84628 38.88 11.1087 38.88 11.1087C36.4656 8.78548 34.536 8.97748 34.536 8.97748C35.9808 10.0383 36.6576 11.2095 38.0064 13.3359C39.3552 15.4671 39.2592 20.5071 39.2592 20.5071C38.5824 18.8607 37.2288 18.1839 37.2288 18.1839C37.2288 18.1839 37.5168 21.0927 37.7088 22.7391C37.9056 24.3903 37.0416 27.4911 37.0416 27.4911C37.0416 26.3247 36.3648 26.0367 36.3648 26.0367C36.3648 26.0367 36.5616 26.7135 35.5968 29.8191C34.632 32.9247 32.7936 33.9855 32.5056 33.8895C32.2176 33.7935 32.5056 33.3135 32.5056 33.3135C32.5056 33.3135 32.016 32.9247 31.3488 33.9903C30.7776 34.8927 29.7984 35.3727 29.496 35.4975C29.8176 35.3247 29.8944 34.6671 29.8944 34.6671C29.8944 34.6671 29.2176 35.0511 26.1312 35.5359C23.0448 36.0255 21.5952 34.6671 21.5952 34.6671C21.8832 34.3743 23.2368 34.6671 23.2368 34.6671C23.2368 34.3743 21.6912 33.8895 20.1504 33.6975C18.8928 33.5391 18.288 32.9583 17.9952 32.4879C17.4192 32.0991 16.9296 31.6671 16.5216 31.2159C16.0608 30.6927 15.7104 30.1407 15.4464 29.5791C14.928 28.4511 14.7648 27.2991 14.76 26.2767C14.7648 25.3119 14.9136 24.4671 15.0624 23.8575C15.2112 23.2479 15.36 22.8735 15.3648 22.8543L15.384 22.8591C15.5712 22.2975 15.9216 21.8511 16.344 21.6639C16.2144 21.5775 16.0752 21.4911 15.936 21.4191C15.3024 21.0783 14.592 20.9391 13.8912 21.0543C13.1904 21.1647 12.5136 21.5199 11.9184 21.9807C11.3424 22.4175 10.8864 23.0463 10.5888 23.7375C10.2864 24.4335 10.1328 25.2015 10.1328 25.9647C10.1328 26.7327 10.2816 27.5055 10.56 28.2447C10.8384 28.9743 11.2368 29.6511 11.7264 30.2751C12.216 30.8991 12.7824 31.4559 13.4016 31.9503C12.7584 31.4895 12.1536 30.9615 11.6256 30.3663C11.0928 29.7567 10.6464 29.0895 10.3152 28.3503C9.98398 27.6063 9.78238 26.7999 9.73438 25.9791C9.69118 25.1583 9.80158 24.3279 10.0944 23.5407C10.3824 22.7583 10.848 22.0287 11.5008 21.4623C11.8176 21.1935 12.1632 20.9535 12.5376 20.7519C12.912 20.5503 13.32 20.3967 13.752 20.3103C14.1744 20.2239 14.6256 20.2047 15.0624 20.2671C15.504 20.3247 15.9312 20.4591 16.32 20.6463C16.7184 20.8335 17.0784 21.0687 17.4144 21.3423C17.5776 21.4815 17.7408 21.6207 17.8896 21.7743C17.9664 21.8511 18.0432 21.9279 18.1152 22.0095C18.1728 22.0815 18.2256 22.1391 18.2928 22.2159C18.6336 21.3231 18.3936 19.8255 18.336 19.5087C18.1536 19.2543 17.8944 18.9279 17.6064 18.4623C17.3856 18.1071 17.1504 17.6799 16.9056 17.1327C16.5216 16.2735 16.3968 15.4095 16.3968 14.6271C16.3968 13.7151 16.5696 12.9183 16.7472 12.3375C16.8 12.1599 16.8576 12.0063 16.9104 11.8719C17.4528 9.49108 20.064 7.14868 20.064 7.14868C16.3968 6.66388 13.8864 10.0527 13.8864 10.0527C13.872 10.0479 13.8624 10.0431 13.8528 10.0335C13.5936 10.3215 12.7152 11.3631 12.6288 12.1839C12.6288 12.1839 12.6576 10.7055 13.0272 9.66868C11.6304 9.22228 9.98398 9.45268 9.14398 9.63028L9.14878 9.65908C8.27998 9.81748 7.49278 10.1487 6.78718 10.5711C6.08638 10.9935 5.47198 11.4975 4.97278 11.9871C3.96478 12.9663 3.39838 13.8783 3.39358 13.8927L3.36478 13.8735C1.59358 16.4463 0.47998 21.9615 0.47998 21.9615C0.67678 21.0879 1.54078 20.0223 1.54078 20.0223C0.57598 21.4767 0.76798 28.1535 0.76798 28.1535C0.76798 27.0879 1.34398 25.8351 1.34398 25.8351C1.54078 28.0575 2.50558 35.2287 8.77438 40.6527C15.048 46.0815 20.352 46.5663 20.352 46.5663C19.0944 46.1775 18.8112 45.5967 18.8112 45.5967C22.8624 47.2431 25.368 46.9503 25.368 46.9503C24.6912 46.5615 24.6 46.2735 24.6 46.2735C28.9392 46.4703 34.7328 44.9199 36.0816 43.9455C37.4256 42.9855 38.5872 41.0463 38.5872 41.0463C42.0672 39.3951 44.472 36.0111 45.1584 34.2639C45.8256 32.5167 45.1584 30.6735 45.1584 30.6735C45.1584 30.6735 45.1584 30.5775 46.7904 26.8959C48.432 23.2191 46.7904 17.9871 46.7904 17.9871ZM6.27838 9.73588C6.68638 9.49108 7.12318 9.27028 7.59358 9.08788C5.73598 7.53748 5.87518 5.48788 5.87518 5.48788C4.01758 7.28788 3.56158 10.3311 3.47038 12.1695C3.49918 12.1407 3.52318 12.1071 3.55198 12.0783C4.18078 11.3535 5.10238 10.4511 6.27838 9.73588Z" fill="#a4a6f1"></path>
</svg>