<svg xmlns="http://www.w3.org/2000/svg" xml:space="preserve" width="2048" height="2048" style="shape-rendering:geometricPrecision;text-rendering:geometricPrecision;image-rendering:optimizeQuality;fill-rule:evenodd;clip-rule:evenodd"><defs><style>.fil1{fill=#3A3DB3}</style></defs><g id="Layer_x0020_1"><g id="_265337216"><path id="_265337792" d="M326.508 255.999h835.132c33.774 0 61.406 27.65 61.406 61.406v1413.19c0 33.756-27.65 61.405-61.406 61.405H326.508c-33.756 0-61.406-27.632-61.406-61.405V317.405c0-33.774 27.632-61.406 61.406-61.406z" style="fill:#3A3DB3"/><path id="_265337192" class="fil1" d="M682.541 324.861c-14.254 0-25.807 11.555-25.807 25.807 0 14.254 11.554 25.807 25.807 25.807h123.066c14.254 0 25.807-11.553 25.807-25.807 0-14.252-11.553-25.807-25.807-25.807H682.541z"/><path id="_265337528" style="fill=#3A3DB3" d="M347.684 456.761h792.776V1522.06H347.684z"/><path id="_265337744" class="fil1" d="M744.074 1595.53c31.45 0 56.947 25.498 56.947 56.95 0 31.45-25.497 56.946-56.947 56.946-31.45 0-56.948-25.496-56.948-56.947 0-31.451 25.498-56.949 56.948-56.949z"/></g><path style="fill=#3A3DB3" d="M928.001 767.999h864.001v512H928.001z"/><path style="fill=#3A3DB3" d="M928.001 767.999H1792L1360 1120z"/></g><path style="fill:none" d="M0 0h2048v2048H0z"/></svg>