<svg xmlns="http://www.w3.org/2000/svg" xml:space="preserve" width="2048" height="2048" style="shape-rendering:geometricPrecision;text-rendering:geometricPrecision;image-rendering:optimizeQuality;fill-rule:evenodd;clip-rule:evenodd"><defs><style>.fil1{fill:#414141}</style></defs><g id="Layer_x0020_1"><g id="_265313000"><path id="_265314008" d="M606.434 255.999h835.132c33.774 0 61.406 27.65 61.406 61.406v1413.19c0 33.756-27.65 61.405-61.406 61.405H606.434c-33.756 0-61.406-27.632-61.406-61.405V317.405c0-33.774 27.632-61.406 61.406-61.406z" style="fill:#202020"/><path id="_265313624" class="fil1" d="M962.467 324.861c-14.254 0-25.807 11.555-25.807 25.807 0 14.254 11.554 25.807 25.807 25.807h123.066c14.254 0 25.807-11.553 25.807-25.807 0-14.252-11.554-25.807-25.807-25.807H962.467z"/><path id="_265313744" style="fill:#fff" d="M627.61 456.761h792.78V1522.06H627.61z"/><path id="_265313048" class="fil1" d="M1024 1595.53c31.45 0 56.947 25.498 56.947 56.95 0 31.45-25.497 56.946-56.947 56.946-31.45 0-56.948-25.496-56.948-56.947 0-31.451 25.498-56.949 56.948-56.949z"/></g><path d="M1264.62 1204.47c-9.902 0-19.247 2.394-27.485 6.633l1.202-1.143-92.628-96.842c19.854-25.852 31.663-58.208 31.663-93.324 0-35.117-11.808-67.472-31.663-93.324l87.68-91.67c9.103 5.54 19.794 8.733 31.231 8.733 33.223 0 60.156-26.933 60.156-60.156s-26.933-60.156-60.156-60.156-60.156 26.933-60.156 60.156c0 10.181 2.532 19.768 6.997 28.174l-87.734 91.726c-26.815-22.975-61.65-36.86-99.732-36.86-38.081 0-72.917 13.881-99.731 36.859l-87.731-91.724c4.464-8.404 6.996-17.994 6.996-28.175 0-33.223-26.932-60.156-60.156-60.156-33.223 0-60.156 26.933-60.156 60.156s26.933 60.156 60.156 60.156c11.436 0 22.127-3.191 31.23-8.732l87.68 91.668c-19.855 25.853-31.665 58.208-31.665 93.325 0 35.117 11.81 67.47 31.663 93.324l-92.627 96.842 1.199 1.14c-8.237-4.237-17.578-6.63-27.48-6.63-33.223 0-60.156 26.933-60.156 60.156s26.933 60.156 60.156 60.156c33.224 0 60.156-26.933 60.156-60.156 0-12.34-3.718-23.81-10.09-33.358l90.824-94.957c26.813 22.977 61.65 36.86 99.732 36.86 38.081 0 72.915-13.885 99.732-36.86l90.827 94.96c-6.372 9.545-10.09 21.015-10.09 33.355 0 33.223 26.933 60.156 60.156 60.156s60.156-26.933 60.156-60.156-26.933-60.156-60.156-60.156z" style="fill:#7e7e7e"/></g><path style="fill:none" d="M0 0h2048v2048H0z"/></svg>