<svg xmlns="http://www.w3.org/2000/svg" viewBox="0 0 218.8 165.1" style="enable-background:new 0 0 218.8 165.1" xml:space="preserve"><style>.st11{fill:none;stroke:#0561fc;stroke-width:6.8376}</style><g id="Layer_4"><path style="fill:#c5e1f9" d="M30.7 28.2h157.4v106.4H30.7z"/><path class="st11" d="M85.5 120.7h6.8M99.1 120.7h6.9M112.8 120.7h6.9M126.5 120.7h6.8M201.7 82.8v55M17.1 137.8V24.9c0-5.7 4.4-10.3 9.8-10.3h84.5M99.1 148H3.4v3.4c0 5.7 4.4 10.3 9.8 10.3h192.4c5.4 0 9.8-4.6 9.8-10.3V148h-95.7M95.7 148h30.8"/><path d="M200.5 0h-75.2c-7.6 0-13.7 6.1-13.7 13.7v54.7c0 7.6 6.1 13.7 13.7 13.7h6.8V106L156 82.1h44.4c7.6 0 13.7-6.1 13.7-13.7V13.7c.1-7.6-6-13.7-13.6-13.7z" style="fill:#9ac7f7"/><path class="st11" d="M145.8 23.9h6.9M173.2 23.9h6.8M142.4 41v6.8c0 9.4 7.7 17.1 17.1 17.1h6.8c9.4 0 17.1-7.7 17.1-17.1V41h-41z"/></g></svg>