<svg width="54" height="48" viewBox="0 0 54 48" fill="none" xmlns="http://www.w3.org/2000/svg">
<path fill-rule="evenodd" clip-rule="evenodd" d="M42.5541 14.9192C49.3943 17.0129 53.8558 20.3891 53.8558 23.9518C53.8558 27.5034 49.4162 30.8797 42.6198 32.9734C44.2093 39.9233 43.5187 45.459 40.4384 47.2349C39.7149 47.6514 38.8818 47.8487 37.961 47.8487C34.9465 47.8487 31.0002 45.7221 27.0101 42.017C23.0199 45.744 19.0736 47.8926 16.0591 47.8926C15.1383 47.8926 14.3052 47.6953 13.5927 47.2787C10.5014 45.5029 9.79987 39.9562 11.3784 32.9844C4.53816 30.8907 0.0766602 27.5144 0.0766602 23.9518C0.0766602 20.4001 4.51623 17.0348 11.3345 14.9301C9.74506 7.98027 10.4357 2.44451 13.516 0.668676C14.2394 0.252124 15.0725 0.0548095 15.9934 0.0548095V0.0438476C19.0079 0.0438476 22.9542 2.17046 26.9443 5.87558C30.9344 2.14853 34.8807 0 37.8952 0V0.0109715C38.8008 0.0125505 39.6301 0.209949 40.3397 0.624829C43.431 2.40066 44.1326 7.94738 42.5541 14.9192ZM37.8843 2.44452C35.6044 2.45034 32.2551 4.2695 28.6872 7.58564C30.2329 9.19704 31.7675 11.0386 33.2474 13.0666C35.7138 13.3297 38.0597 13.7353 40.2082 14.2614C40.4494 13.1543 40.6467 12.0691 40.7673 11.0386C41.2715 6.85119 40.6248 3.59551 39.1339 2.74048C38.7941 2.55412 38.3885 2.45547 37.8843 2.45547V2.44452ZM25.2014 7.5966C21.6278 4.29707 18.2625 2.48835 15.9934 2.48835V2.49931C15.4891 2.49931 15.0616 2.58701 14.7327 2.78432C13.2529 3.65032 12.6171 6.906 13.1323 11.0934C13.2638 12.1129 13.4502 13.1762 13.7023 14.2724C15.8508 13.7353 18.1967 13.3297 20.6741 13.0666C22.132 11.0386 23.6667 9.208 25.2014 7.5966ZM38.1036 20.9707C38.6737 19.5127 39.1779 18.0548 39.5835 16.6407C38.1475 16.2899 36.6457 16.0049 35.0891 15.7747C35.6263 16.6078 36.1634 17.4628 36.6676 18.3398C37.1828 19.2168 37.6542 20.0937 38.1036 20.9707ZM34.5625 28.3145C33.7074 29.7944 32.8305 31.1975 31.9206 32.502C30.2873 32.6445 28.6321 32.7212 26.9659 32.7212C25.3106 32.7212 23.6554 32.6445 22.033 32.5129C21.1232 31.2085 20.2352 29.8163 19.3802 28.3474C18.5471 26.9114 17.7907 25.4535 17.1001 23.9846C17.7798 22.5157 18.5471 21.0468 19.3693 19.6108C20.2243 18.1309 21.1012 16.7278 22.0111 15.4233C23.6444 15.2808 25.2996 15.2041 26.9659 15.2041C28.6211 15.2041 30.2764 15.2808 31.8987 15.4124C32.8086 16.7168 33.6965 18.109 34.5515 19.5779C35.3846 21.0139 36.141 22.4718 36.8316 23.9407C36.141 25.4096 35.3846 26.8785 34.5625 28.3145ZM39.6165 31.252C39.1999 29.8269 38.6957 28.358 38.1037 26.8891C37.6543 27.7661 37.1829 28.654 36.6787 29.531C36.1744 30.4189 35.6373 31.2849 35.1002 32.1289C36.6677 31.8987 38.1805 31.6028 39.6165 31.252ZM26.9886 38.5864C25.9691 37.534 24.9497 36.3611 23.9412 35.0785C24.9278 35.1224 25.9363 35.1553 26.9557 35.1553C27.9861 35.1553 29.0056 35.1334 30.0031 35.0785C29.0166 36.3611 27.9971 37.534 26.9886 38.5864ZM14.3386 31.2636C15.7746 31.6144 17.2764 31.8994 18.833 32.1296C18.2959 31.2965 17.7697 30.4415 17.2545 29.5645C16.7393 28.6876 16.2679 27.8106 15.8185 26.9337C15.2485 28.3916 14.7442 29.8495 14.3386 31.2636ZM26.9333 9.31745C27.9527 10.3698 28.9722 11.5427 29.9807 12.8253C28.9941 12.7814 27.9856 12.7485 26.9661 12.7485C25.9357 12.7485 24.9163 12.7704 23.9187 12.8253C24.9053 11.5427 25.9248 10.3698 26.9333 9.31745ZM17.2429 18.3727C17.7471 17.4848 18.2843 16.6188 18.8214 15.7747C17.2538 16.0049 15.7411 16.3009 14.3051 16.6407C14.7216 18.0658 15.2259 19.5347 15.8178 21.0035C16.2673 20.1266 16.7386 19.2496 17.2429 18.3727ZM8.90115 29.4982C5.02063 27.8429 2.51035 25.6725 2.51035 23.9515C2.51035 22.2304 5.02063 20.049 8.90115 18.4047C9.84387 17.9991 10.8743 17.6374 11.9376 17.2976C12.5624 19.4461 13.3846 21.6823 14.404 23.9734C13.3955 26.2535 12.5843 28.4787 11.9705 30.6163C10.8853 30.2765 9.85483 29.9038 8.90115 29.4982ZM13.1657 36.8648C12.6614 41.0522 13.3082 44.3079 14.799 45.1629C15.1279 45.3493 15.5444 45.4479 16.0377 45.4589C18.3178 45.4589 21.6721 43.6392 25.2457 40.3178C23.7001 38.7064 22.1654 36.8648 20.6856 34.8368C18.2191 34.5737 15.8733 34.1681 13.7247 33.642C13.4836 34.7491 13.2863 35.8344 13.1657 36.8648ZM40.8005 36.8103C41.3157 40.9978 40.6799 44.2535 39.2001 45.1195C38.8712 45.3168 38.4437 45.4045 37.9394 45.4045C35.6703 45.4045 32.305 43.5958 28.7314 40.2962C30.2661 38.6848 31.8008 36.8542 33.2587 34.8262C35.7361 34.5632 38.082 34.1576 40.2305 33.6204C40.4826 34.7276 40.6799 35.7909 40.8005 36.8103ZM41.9844 30.6053C43.0477 30.2654 44.0782 29.9037 45.0209 29.4981C48.9014 27.8538 51.4117 25.6724 51.4226 23.9514C51.4226 22.2304 48.9124 20.0599 45.0319 18.4047C44.0672 17.9991 43.0368 17.6264 41.9516 17.2865C41.3377 19.4241 40.5265 21.6494 39.518 23.9295C40.5375 26.2205 41.3596 28.4567 41.9844 30.6053Z" fill="#a4a6f1"></path>
<path d="M26.9556 28.9616C29.7224 28.9616 31.9652 26.7187 31.9652 23.952C31.9652 21.1853 29.7224 18.9424 26.9556 18.9424C24.1889 18.9424 21.946 21.1853 21.946 23.952C21.946 26.7187 24.1889 28.9616 26.9556 28.9616Z" fill="#a4a6f1"></path>
</svg>