<svg width="180" height="65" xmlns="http://www.w3.org/2000/svg" fill="none">
        <path fill="#404040" d="M53.13 19.66v-4.64c0-.36 0-.36.36-.36h3.47c.36 0 .36 0 .36.36v9.04a2.62 2.62 0 0 0 1.41 2.47c.84.45 2.38.41 3.17-.41a2.65 2.65 0 0 0 .72-1.9v-9.35a.18.18 0 0 1 .2-.2h3.77c.2 0 .2.11.2.24v2.15c0 2.22-.03 4.45 0 6.68.05.94-.1 1.88-.41 2.77a5.4 5.4 0 0 1-2.73 3c-.97.49-2.03.75-3.12.75-.68.01-1.36-.01-2.03-.09a6.16 6.16 0 0 1-4.23-2.48 5.82 5.82 0 0 1-1.11-3.4v-4.63h-.03ZM68.64 27.82l2.01-2.52c.43.3.82.6 1.25.84 1.1.66 2.4.96 3.68.86.33-.04.64-.13.93-.27a.98.98 0 0 0 .62-.93 1.09 1.09 0 0 0-.59-1.02 9.53 9.53 0 0 0-2.49-.97c-.92-.17-1.8-.5-2.62-.94a4.53 4.53 0 0 1-1.84-1.83 4.12 4.12 0 0 1-.36-2.39 4.37 4.37 0 0 1 2.32-3.36c.93-.51 1.97-.8 3.03-.86a9.4 9.4 0 0 1 5.8 1.57c.3.2.57.43.86.63.1.08.14.14.04.26l-1.98 2.5-.4-.3a7 7 0 0 0-2.47-1.24 3.72 3.72 0 0 0-2.52.1 1.09 1.09 0 0 0-.14 1.88c.44.27.92.5 1.41.66.97.32 2 .5 2.95.89a4.88 4.88 0 0 1 2.66 2.16 4.43 4.43 0 0 1-.82 5.1 5.75 5.75 0 0 1-2.26 1.3 9 9 0 0 1-3.78.27 9.37 9.37 0 0 1-4.26-1.57c-.34-.25-.67-.55-1.03-.82ZM82.15 30.06l.24-.72 2.82-7.69 2.46-6.7a.26.26 0 0 1 .28-.2h4.45a.3.3 0 0 1 .33.23l2.56 7.07 1.9 5.22.9 2.47.06.21c-.11 0-.21.03-.3.03h-3.62a.36.36 0 0 1-.39-.28c-.25-.76-.53-1.52-.79-2.28a.3.3 0 0 0-.32-.24h-5.3a.26.26 0 0 0-.28.22l-.83 2.47a.22.22 0 0 1-.25.2h-3.66l-.26-.01Zm8-11.33-.1.2-.4 1.09c-.44 1.27-.9 2.52-1.35 3.8-.06.2 0 .25.19.25h3.09c.09 0 .18 0 .27-.03a390.3 390.3 0 0 0-1.7-5.31ZM110.08 14.7h6.3c.32 0 .32 0 .32.32v2.74c0 .2-.06.26-.26.25h-3.9c-.36 0-.36 0-.36.37v11.35c0 .22-.08.3-.3.3h-3.63c-.22 0-.29-.09-.28-.3V18.37c0-.34 0-.34-.36-.34h-3.97c-.22 0-.28-.07-.27-.29v-2.66c0-.36 0-.36.36-.36h6.29l.06-.03ZM125.6 30.28a7.75 7.75 0 0 1-4.89-1.49 7.49 7.49 0 0 1-2.84-4.26 8.83 8.83 0 0 1-.14-3.83 7.34 7.34 0 0 1 3.25-5 7.96 7.96 0 0 1 4.13-1.3 8.3 8.3 0 0 1 3.72.63 7.35 7.35 0 0 1 3.98 3.91 8.45 8.45 0 0 1 .11 6.81 7.61 7.61 0 0 1-1.84 2.54 7.9 7.9 0 0 1-5.48 1.99Zm-3.77-7.95c-.03.9.18 1.78.6 2.56a3.37 3.37 0 0 0 3.4 1.91 3.32 3.32 0 0 0 2.82-1.86 5.3 5.3 0 0 0 .62-2.78c0-1.16-.4-2.28-1.1-3.2a3.4 3.4 0 0 0-5.31.13 5.47 5.47 0 0 0-1.03 3.24ZM135.96 22.3v-7.42c0-.2.06-.25.24-.25 2.07 0 4.14-.03 6.21 0a7.37 7.37 0 0 1 5.44 2.39 7.1 7.1 0 0 1 1.69 3.32c.23.98.29 1.99.17 2.98a7.19 7.19 0 0 1-5.4 6.34c-.71.18-1.44.28-2.17.28l-5.83.03c-.36 0-.36 0-.36-.37v-7.3Zm4.1 0v4.1c0 .2.06.27.25.26.67 0 1.34.02 2 0a3 3 0 0 0 2.17-1.05 5.57 5.57 0 0 0 .5-5.86 3.05 3.05 0 0 0-2.49-1.75c-.75-.07-1.52-.03-2.28-.03-.18 0-.16.13-.16.25l.01 4.08ZM166.45 29.98l-.32.01h-3.67a.34.34 0 0 1-.39-.28c-.25-.8-.52-1.6-.78-2.39a.28.28 0 0 0-.31-.22h-5.28a.31.31 0 0 0-.34.25l-.8 2.41c-.05.15-.11.23-.28.23h-3.74c-.06 0-.13-.01-.19-.03l.46-1.27a5454 5454 0 0 1 2.74-7.47l2.32-6.33a.33.33 0 0 1 .36-.26h4.3a.36.36 0 0 1 .42.29c.6 1.69 1.22 3.37 1.84 5.05l1.84 5.05 1.7 4.62c.05.1.1.22.12.34Zm-8.03-11.22h-.1l-1.8 5.23h3.66l-1.76-5.23ZM164.9 14.66h4.44a.39.39 0 0 1 .4.27l2.6 5.63.13.24.41-.87 2.33-5a.34.34 0 0 1 .24-.17h4.42l.13.02-.24.46-4.35 7.8c-.23.4-.46.79-.66 1.2-.1.18-.15.38-.16.58v4.93c0 .22-.06.28-.28.28h-3.72c-.22 0-.29-.07-.28-.29 0-1.45-.03-2.88 0-4.32.01-.61-.14-1.21-.45-1.73l-3.48-6.32-1.42-2.55-.05-.16Z"></path>
        <path fill="#F03C4B" d="m52.86 47.44 2.02-2.52c.43.3.82.6 1.24.85 1.11.66 2.4.96 3.69.85.32-.04.63-.12.93-.26a.99.99 0 0 0 .62-.94 1.09 1.09 0 0 0-.6-1.01 9.33 9.33 0 0 0-2.49-.98c-.91-.17-1.8-.5-2.62-.94a4.5 4.5 0 0 1-1.83-1.84 4.12 4.12 0 0 1-.36-2.38 4.38 4.38 0 0 1 2.32-3.37 7 7 0 0 1 3.04-.84c2.05-.13 4.1.43 5.8 1.57.3.2.58.42.86.63.1.07.14.15.05.26l-1.98 2.5-.42-.31c-.73-.57-1.56-1-2.46-1.24a3.7 3.7 0 0 0-2.52.1 1.09 1.09 0 0 0-.14 1.88c.44.27.91.49 1.4.65.98.32 2 .51 2.96.89a4.92 4.92 0 0 1 2.65 2.18 4.43 4.43 0 0 1-.8 5.09 5.75 5.75 0 0 1-2.28 1.29 8.92 8.92 0 0 1-3.78.27 9.4 9.4 0 0 1-4.25-1.56c-.35-.24-.68-.53-1.05-.82ZM75.6 34.4c-2.38-.16-4.77-.04-7.35-.04v15.2h3.85v-5.11c1.2 0 2.2.04 3.2 0 3.06-.11 4.98-1.9 5.1-4.68.12-3.02-1.71-5.18-4.8-5.38Zm.8 5.06a1.9 1.9 0 0 1-1.9 1.9H72.2v-3.8h2.31a1.9 1.9 0 0 1 1.9 1.9ZM89.93 49.89a7.79 7.79 0 0 1-4.88-1.49 7.47 7.47 0 0 1-2.85-4.24 8.85 8.85 0 0 1-.14-3.83 7.35 7.35 0 0 1 3.24-5A7.97 7.97 0 0 1 89.44 34a8.3 8.3 0 0 1 3.72.62 7.36 7.36 0 0 1 3.98 3.92 8.47 8.47 0 0 1 .1 6.82 7.6 7.6 0 0 1-1.83 2.53 7.89 7.89 0 0 1-5.48 1.99Zm-3.78-7.93c-.02.9.19 1.78.61 2.56a3.37 3.37 0 0 0 3.4 1.92 3.33 3.33 0 0 0 2.81-1.88 5.71 5.71 0 0 0-.47-5.97 3.41 3.41 0 0 0-5.33.11 5.45 5.45 0 0 0-1.02 3.26ZM110.5 44.09c.32-.3.53-.52.76-.72 1.77-1.5 2.15-3.4 1.57-5.54a4.34 4.34 0 0 0-4.03-3.36c-2.72-.21-5.47-.05-8.26-.05v15.06h3.96v-4.9h1.94l2.57 4.91h4.4l-2.91-5.4Zm-1.67-4.62a1.9 1.9 0 0 1-1.9 1.9h-2.46v-3.81h2.46a1.9 1.9 0 0 1 1.9 1.9ZM121.05 34.37h6.31c.32 0 .32 0 .32.34v2.73c0 .2-.05.26-.25.26h-3.9c-.36 0-.36 0-.36.36V49.4c0 .22-.08.3-.3.3h-3.64c-.22 0-.28-.09-.28-.3V38.05c0-.34 0-.36-.34-.36h-3.97c-.22 0-.28-.07-.27-.28v-2.67c0-.36 0-.36.36-.36h6.32ZM128.51 47.38l2.01-2.52c.44.3.83.6 1.25.84 1.11.66 2.4.96 3.69.86.32-.04.63-.13.92-.27a.98.98 0 0 0 .62-.93 1.1 1.1 0 0 0-.6-1.03 9.34 9.34 0 0 0-2.49-.97 9.1 9.1 0 0 1-2.62-.94 4.5 4.5 0 0 1-1.83-1.84 4.1 4.1 0 0 1-.37-2.38 4.36 4.36 0 0 1 2.32-3.37c.94-.5 1.98-.8 3.04-.85a9.36 9.36 0 0 1 5.8 1.57c.3.19.57.42.86.63.1.07.14.14.05.26l-1.98 2.52-.43-.32a7 7 0 0 0-2.46-1.24 3.7 3.7 0 0 0-2.52.1 1.09 1.09 0 0 0-.52 1.44c.08.18.22.33.38.44.44.27.92.5 1.41.66.98.32 2 .5 2.95.88a4.92 4.92 0 0 1 2.66 2.19 4.43 4.43 0 0 1-.8 5.1 5.74 5.74 0 0 1-2.27 1.3 9 9 0 0 1-3.78.26 9.37 9.37 0 0 1-4.25-1.58c-.35-.25-.67-.53-1.04-.81ZM21.23 55.73l-3.3-.75C7.16 52.52-.4 42.51.02 31.28A23.4 23.4 0 0 1 19.4 9.33a23.3 23.3 0 0 1 26.88 18.97 23.25 23.25 0 0 1-19.71 27.08c-.47.09-.93.2-1.38.36h-3.96Z"></path>
        </svg>