<svg width="48" height="48" viewBox="0 0 48 48" fill="none" xmlns="http://www.w3.org/2000/svg" class="svg">
<path fill-rule="evenodd" clip-rule="evenodd" d="M30.5 41.8398C28.3352 41.8459 26.1872 41.4598 24.16 40.7L17.59 41.8799H17.08C16.3961 41.8762 15.7213 41.7231 15.1029 41.4312C14.4845 41.1392 13.9374 40.7156 13.5 40.1899C12.979 39.558 12.6365 38.7981 12.5082 37.9893C12.3798 37.1804 12.4703 36.352 12.77 35.5898L14.24 31.72C12.539 28.1982 12.0375 24.2163 12.8121 20.3828C13.5868 16.5493 15.595 13.0749 18.53 10.49C20.6056 8.66039 23.0731 7.33113 25.7429 6.60474C28.4127 5.87835 31.2135 5.774 33.9299 6.2998C34.8929 6.49136 35.8393 6.75891 36.76 7.09985V4.69995C36.7574 3.45597 36.2627 2.26338 35.384 1.38281C34.5053 0.502248 33.3139 0.00527952 32.0699 0H7.69995C6.45425 0.00264201 5.26037 0.498546 4.37952 1.37939C3.49867 2.26024 3.00264 3.45425 3 4.69995V43.1299C3.00264 44.3756 3.49867 45.5696 4.37952 46.4504C5.26037 47.3313 6.45425 47.8272 7.69995 47.8298H32.0699C33.3139 47.8246 34.5053 47.3273 35.384 46.4468C36.2627 45.5662 36.7574 44.3739 36.76 43.1299V40.6799C34.7588 41.4355 32.639 41.8282 30.5 41.8398Z" fill="#3A3DB3"></path>
<path fill-rule="evenodd" clip-rule="evenodd" d="M19.0082 31.4563C19.0115 31.5718 18.9847 31.6862 18.9306 31.788L17.0714 36.6639C17.0039 36.8203 16.9837 36.9933 17.0132 37.1612C17.0395 37.3204 17.1046 37.4705 17.2026 37.5981C17.3006 37.7258 17.4286 37.827 17.575 37.8926C17.7084 37.9568 17.8533 37.9933 18.001 38H18.1851L24.9639 36.781C25.1051 36.732 25.2584 36.732 25.3996 36.781C27.7843 37.8316 30.4129 38.191 32.9895 37.8188C35.566 37.4467 37.9884 36.3576 39.9838 34.6745C42.4958 32.5703 44.1843 29.6363 44.7482 26.3952C44.9143 25.5966 44.9987 24.783 45 23.967C44.9907 21.8138 44.4888 19.6916 43.5332 17.7653C42.5776 15.839 41.194 14.1605 39.4899 12.8599C37.7788 11.5556 35.793 10.6644 33.6859 10.2553C31.5787 9.84608 29.4064 9.92973 27.3364 10.4998C25.2696 11.0568 23.3587 12.0876 21.753 13.5115C20.1473 14.9354 18.8902 16.7137 18.0801 18.7078C17.27 20.702 16.9287 22.8578 17.083 25.0067C17.2373 27.1557 17.8829 29.2396 18.9694 31.0957C19.0187 31.2091 19.0323 31.3349 19.0082 31.4563ZM26.3195 26.3757C26.7792 26.3757 27.2286 26.2386 27.6108 25.9814C27.993 25.7243 28.291 25.3587 28.4669 24.931C28.6428 24.5034 28.6887 24.0327 28.599 23.5787C28.5094 23.1247 28.2881 22.7078 27.963 22.3805C27.638 22.0532 27.2238 21.8301 26.773 21.7398C26.3222 21.6495 25.8549 21.696 25.4302 21.8731C25.0055 22.0503 24.6425 22.3501 24.3871 22.735C24.1317 23.1199 23.9955 23.5725 23.9955 24.0354C23.998 24.6553 24.2437 25.2491 24.679 25.6874C25.1143 26.1258 25.7039 26.3731 26.3195 26.3757ZM35.6452 26.3757C36.1045 26.3738 36.5529 26.235 36.9339 25.9767C37.3148 25.7183 37.6112 25.3519 37.7856 24.9241C37.96 24.4963 38.0046 24.0261 37.9139 23.5728C37.8231 23.1194 37.601 22.7032 37.2756 22.3769C36.9502 22.0506 36.536 21.8286 36.0855 21.7391C35.6349 21.6496 35.1681 21.6966 34.744 21.8741C34.3199 22.0515 33.9575 22.3515 33.7025 22.7362C33.4476 23.1208 33.3115 23.5729 33.3115 24.0354C33.3115 24.3435 33.3719 24.6486 33.4893 24.9332C33.6067 25.2178 33.7787 25.4764 33.9956 25.6938C34.2124 25.9113 34.4697 26.0834 34.7528 26.2005C35.0359 26.3175 35.3392 26.377 35.6452 26.3757Z" fill="#ECECFC"></path>
<path fill-rule="evenodd" clip-rule="evenodd" d="M19.0082 31.4563C19.0115 31.5718 18.9847 31.6862 18.9306 31.788L17.0714 36.6639C17.0039 36.8203 16.9837 36.9933 17.0132 37.1612C17.0395 37.3204 17.1046 37.4705 17.2026 37.5981C17.3006 37.7258 17.4286 37.827 17.575 37.8926C17.7084 37.9568 17.8533 37.9933 18.001 38H18.1851L24.9639 36.781C25.1051 36.732 25.2584 36.732 25.3996 36.781C27.7843 37.8316 30.4129 38.191 32.9895 37.8188C35.566 37.4467 37.9884 36.3576 39.9838 34.6745C42.4958 32.5703 44.1843 29.6363 44.7482 26.3952C44.9143 25.5966 44.9987 24.783 45 23.967C44.9907 21.8138 44.4888 19.6916 43.5332 17.7653C42.5776 15.839 41.194 14.1605 39.4899 12.8599C37.7788 11.5556 35.793 10.6644 33.6859 10.2553C31.5787 9.84608 29.4064 9.92973 27.3364 10.4998C25.2696 11.0568 23.3587 12.0876 21.753 13.5115C20.1473 14.9354 18.8902 16.7137 18.0801 18.7078C17.27 20.702 16.9287 22.8578 17.083 25.0067C17.2373 27.1557 17.8829 29.2396 18.9694 31.0957C19.0187 31.2091 19.0323 31.3349 19.0082 31.4563ZM26.3195 26.3757C26.7792 26.3757 27.2286 26.2386 27.6108 25.9814C27.993 25.7243 28.291 25.3587 28.4669 24.931C28.6428 24.5034 28.6887 24.0327 28.599 23.5787C28.5094 23.1247 28.2881 22.7078 27.963 22.3805C27.638 22.0532 27.2238 21.8301 26.773 21.7398C26.3222 21.6495 25.8549 21.696 25.4302 21.8731C25.0055 22.0503 24.6425 22.3501 24.3871 22.735C24.1317 23.1199 23.9955 23.5725 23.9955 24.0354C23.998 24.6553 24.2437 25.2491 24.679 25.6874C25.1143 26.1258 25.7039 26.3731 26.3195 26.3757ZM35.6452 26.3757C36.1045 26.3738 36.5529 26.235 36.9339 25.9767C37.3148 25.7183 37.6112 25.3519 37.7856 24.9241C37.96 24.4963 38.0046 24.0261 37.9139 23.5728C37.8231 23.1194 37.601 22.7032 37.2756 22.3769C36.9502 22.0506 36.536 21.8286 36.0855 21.7391C35.6349 21.6496 35.1681 21.6966 34.744 21.8741C34.3199 22.0515 33.9575 22.3515 33.7025 22.7362C33.4476 23.1208 33.3115 23.5729 33.3115 24.0354C33.3115 24.3435 33.3719 24.6486 33.4893 24.9332C33.6067 25.2178 33.7787 25.4764 33.9956 25.6938C34.2124 25.9113 34.4697 26.0834 34.7528 26.2005C35.0359 26.3175 35.3392 26.377 35.6452 26.3757Z" fill="url(#paint0_linear_3190_6090)"></path>
<defs>
<linearGradient id="paint0_linear_3190_6090" x1="31" y1="10" x2="31" y2="38" gradientUnits="userSpaceOnUse">
<stop stop-color="#C0C1F5"></stop>
<stop offset="1" stop-color="#8183EC"></stop>
</linearGradient>
</defs>
</svg>