 <svg width="180"
                            height="66" fill="none" xmlns="http://www.w3.org/2000/svg">
                            <path
                                d="M177.189 31.959a2.808 2.808 0 0 1-2.812-2.812 2.808 2.808 0 0 1 2.812-2.811A2.808 2.808 0 0 1 180 29.147c.012 1.544-1.256 2.812-2.811 2.812Zm0-5.347c-1.372 0-2.489 1.153-2.489 2.524s1.117 2.523 2.489 2.523c1.371 0 2.489-1.152 2.489-2.523 0-1.371-1.118-2.524-2.489-2.524Zm.749 4.01-.772-1.267h-.519v1.267h-.346V27.58h.991c.519 0 .968.38.968.899 0 .45-.299.737-.703.853l.784 1.302h-.403v-.012Zm-.68-2.708h-.611v1.106h.611c.368 0 .657-.218.657-.553 0-.334-.277-.553-.657-.553ZM136.847 26.393c-.092 0-.127.035-.98.07-.876.034-2.523.069-5.876.069h-4.057c-3.341 0-5.001-.035-5.876-.07-.841-.034-.876-.069-.98-.069-.391 0-.391.265-.391 1.003v2.984c0 .162 0 .553.322.553.357 0 .427-.126 1.003-1.325.38-.83 1.152-2.04 5.565-2.074.461.012.657.115.657.841V43.47c0 1.268 0 2.144-1.625 2.236-.68.069-1.129.092-1.129.553 0 .484.415.484.68.484.622 0 3.249-.127 3.791-.127 1.072 0 2.765.127 3.826.127.265 0 .679 0 .679-.484s-.449-.519-1.14-.553c-1.625-.092-1.625-.98-1.625-2.305V28.606c0-.841.104-1.026 1.049-1.06 4.044.103 4.77 1.267 5.139 2.062.587 1.199.645 1.325 1.002 1.325.323 0 .323-.391.323-.553v-2.984c.034-.75.034-1.003-.357-1.003ZM101.771 41.58c-.288 0-.357.128-.945 1.268-1.429 2.766-3.434 2.766-4.863 2.766-2.73 0-3.41-.357-3.41-2.662v-5.577c0-.968.253-.968 1.809-.968 2.661 0 3.572.035 4.252 2.535.16.622.357.783.61.783.392 0 .392-.449.392-.645 0-.265-.092-1.394-.092-1.624 0-.715.23-4.057.23-4.506 0-.357-.161-.46-.357-.46-.161 0-.323.068-.484.483-.587 1.717-.876 2.431-4.482 2.431-1.879 0-1.879-.265-1.879-1.302v-4.701c0-1.625.127-1.844 1.752-1.844 4.61 0 5.393 1.233 5.773 2.074.588 1.199.645 1.325 1.002 1.325.323 0 .323-.391.323-.553V27.42c0-.749 0-1.003-.392-1.003-.092 0-.126.035-.968.07-.875.034-2.535.069-5.876.069H92.61c-2.765 0-4.16-.035-4.874-.07-.715-.034-.75-.069-.818-.069-.23 0-.646 0-.646.461 0 .484.461.519 1.164.553 1.625.104 1.625.968 1.625 2.305v13.7c0 1.326 0 2.213-1.625 2.305-.68.07-1.164.093-1.164.554 0 .484.427.484.68.484.23 0 .484-.035 1.003-.07.518-.034 1.325-.069 2.662-.069h.391c.196 0 1.717.035 3.573.07 1.878.034 4.148.069 5.807.069.945 0 1.268-.358 1.302-.98.104-1.198.461-3.284.461-3.699 0-.219-.092-.518-.38-.518ZM154.742 41.58c-.289 0-.358.128-.945 1.268-1.429 2.766-3.434 2.766-4.863 2.766-2.731 0-3.411-.357-3.411-2.662v-5.577c0-.968.254-.968 1.809-.968 2.662 0 3.572.035 4.252 2.535.162.622.357.783.611.783.392 0 .392-.449.392-.645 0-.265-.092-1.394-.092-1.624 0-.715.23-4.057.23-4.506 0-.357-.161-.46-.357-.46-.162 0-.323.068-.484.483-.588 1.717-.876 2.431-4.483 2.431-1.878 0-1.878-.265-1.878-1.302v-4.701c0-1.625.127-1.844 1.752-1.844 4.609 0 5.392 1.233 5.773 2.074.587 1.199.645 1.325 1.002 1.325.323 0 .323-.391.323-.553V27.42c0-.749 0-1.003-.392-1.003-.092 0-.127.035-.968.07-.876.034-2.535.069-5.877.069h-1.555c-2.766 0-4.16-.035-4.874-.07-.715-.034-.749-.069-.819-.069-.23 0-.645 0-.645.461 0 .484.461.519 1.164.553 1.625.104 1.625.968 1.625 2.305v13.7c0 1.326 0 2.213-1.625 2.305-.68.07-1.164.093-1.164.554 0 .484.427.484.68.484.23 0 .484-.035 1.003-.07.518-.034 1.325-.069 2.661-.069h.392c.196 0 1.717.035 3.572.07 1.878.034 4.148.069 5.808.069.945 0 1.267-.358 1.302-.98.104-1.198.461-3.284.461-3.699 0-.219-.092-.518-.38-.518ZM111.992 34.229c-2.651-1.095-4.575-1.925-4.575-4.275 0-1.29 1.037-3.17 3.607-3.135 2.754.024 3.341 1.856 3.745 3.135.334 1.025.46 1.221.795 1.221.461 0 .461-.265.461-.99 0-2.916 0-3.216-.404-3.446-.461-.23-2.42-.76-4.332-.76-4.206 0-6.522 2.65-6.522 5.692 0 3.514 2.615 4.805 5.3 5.992 2.385 1.094 4.632 2.35 4.632 4.931 0 2.685-2.615 3.596-3.998 3.596-2.351 0-4.621-1.982-5.255-4.875-.069-.3-.103-.633-.403-.633-.403 0-.415.46-.415.599-.023 1.198.127 2.616.173 3.042.092.818.219 1.486.588 1.763.599.426 2.235 1.06 4.816 1.06 4.402 0 7.122-3.077 7.122-6.752 0-3.745-3.48-5.37-5.335-6.165ZM33.97 25.99c-6.361 0-11.155 4.563-11.155 10.532 0 6.326 5.324 10.624 11.062 10.624 5.578 0 11.028-4.505 11.028-10.924C44.893 30.53 40.11 25.99 33.97 25.99Zm.161 20.246c-4.367 0-7.49-5.07-7.49-10.405 0-4.679 2.927-8.93 6.937-8.93 5.15 0 7.467 5.53 7.467 9.448 0 4.782-2.374 9.887-6.914 9.887ZM20.741 18.5c-.046 0-.092.046-1.36.092-1.22.046-3.675.092-8.55.092H9.807c-4.644 0-6.338-.046-7.559-.092-1.175-.046-1.221-.092-1.314-.092-.322 0-.933 0-.933.657s.703.703 1.682.795c2.351.138 2.351 1.406 2.351 3.33V42.71c0 1.555 0 2.639-2.005 2.754-.841.08-1.394.115-1.394.68 0 .599.518.599.84.599.761 0 4.069-.162 4.748-.162 1.326 0 3.469.162 4.782.162.323 0 .842 0 .842-.6 0-.599-.553-.645-1.395-.68-1.993-.114-1.993-1.198-1.993-2.834v-7.202c0-1.325 0-1.855.76-2.062.496-.139 2.662-.139 4.045-.139 1.175 0 4.171 0 4.828 2.535.092.23.403 1.452.519 1.786.08.23.265.773.748.75.565-.024.565-.565.565-.888l-.184-2.2c-.092-1.084-.092-1.879-.092-2.294 0-.703.138-3.895.138-4.551 0-.473-.138-.772-.565-.795-.415-.023-.656.38-.749.748-.599 2.432-1.267 3.469-5.07 3.469-.703 0-3.491 0-4.194-.092-.61-.092-.75-.139-.75-2.674v-6.556c0-2.201.796-2.293 2.398-2.293 7.294 0 7.904 1.002 9.31 4.125.173.392.357.933.876.933.518 0 .518-.749.518-.887v-4.966c-.023-.646-.069-.876-.818-.876ZM63.85 45.763c-.911-.138-1.36-.944-2.006-2.074l-3.146-5.577c-.749-1.36-1.14-1.556-1.555-1.82 1.106-.23 4.448-1.003 4.448-4.806 0-1.14-.484-5.093-6.234-5.093-.98 0-5.29.127-6.165.127-.392 0-1.982-.127-2.305-.127-1.071 0-1.198 0-1.198.461 0 .45.46.484 1.164.519 1.59.092 1.59.98 1.59 2.304v13.759c0 1.36 0 2.212-1.59 2.339-.68.035-1.164.069-1.164.518 0 .484.426.45.68.45.587 0 3.215-.127 3.768-.127.127 0 3.284.127 3.895.127.253 0 .68.034.68-.427 0-.483-.462-.518-1.164-.553-1.625-.092-1.625-.98-1.625-2.339v-5.842c0-.553.069-.749.622-.749 1.463 0 1.625.127 2.34 1.521l3.929 7.398c.357.68.484.98 1.071.98h4.275c.23 0 .553-.058.553-.392-.034-.346-.184-.473-.864-.577Zm-10.325-9.76c-1.625 0-1.625-.069-1.625-1.198v-5.45c0-1.268.034-2.04 1.52-2.04 4.022 0 4.483 3.469 4.483 4.644 0 4.044-3.203 4.044-4.378 4.044ZM84.21 45.763c-.91-.138-1.36-.944-2.005-2.074l-3.146-5.577c-.749-1.36-1.14-1.556-1.555-1.82 1.106-.23 4.447-1.003 4.447-4.806 0-1.14-.483-5.093-6.233-5.093-.98 0-5.29.127-6.165.127-.392 0-1.982-.127-2.305-.127-1.071 0-1.198 0-1.198.461 0 .45.46.484 1.164.519 1.59.092 1.59.98 1.59 2.304v13.759c0 1.36 0 2.212-1.59 2.339-.68.035-1.164.069-1.164.518 0 .484.426.45.68.45.587 0 3.215-.127 3.768-.127.126 0 3.284.127 3.894.127.254 0 .68.034.68-.427 0-.483-.46-.518-1.163-.553-1.625-.092-1.625-.98-1.625-2.339v-5.842c0-.553.069-.749.622-.749 1.463 0 1.625.127 2.34 1.521l3.928 7.398c.358.68.484.98 1.072.98h4.275c.23 0 .553-.058.553-.392-.034-.346-.184-.473-.864-.577Zm-10.325-9.76c-1.624 0-1.624-.069-1.624-1.198v-5.45c0-1.268.034-2.04 1.52-2.04 4.022 0 4.483 3.469 4.483 4.644 0 4.044-3.203 4.044-4.379 4.044ZM175.126 45.763c-.911-.138-1.36-.944-2.005-2.074l-3.146-5.577c-.749-1.36-1.141-1.556-1.556-1.82 1.106-.23 4.448-1.003 4.448-4.806 0-1.14-.484-5.093-6.234-5.093-.979 0-5.289.127-6.165.127-.391 0-1.982-.127-2.304-.127-1.072 0-1.199 0-1.199.461 0 .45.461.484 1.164.519 1.59.092 1.59.98 1.59 2.304v13.759c0 1.36 0 2.212-1.59 2.339-.68.035-1.164.069-1.164.518 0 .484.427.45.68.45.588 0 3.215-.127 3.768-.127.127 0 3.284.127 3.895.127.253 0 .68.034.68-.427 0-.483-.461-.518-1.164-.553-1.625-.092-1.625-.98-1.625-2.339v-5.842c0-.553.069-.749.622-.749 1.464 0 1.625.127 2.34 1.521l3.929 7.398c.357.68.484.98 1.072.98h4.275c.23 0 .553-.058.553-.392-.023-.346-.185-.473-.864-.577Zm-10.314-9.76c-1.624 0-1.624-.069-1.624-1.198v-5.45c0-1.268.034-2.04 1.521-2.04 4.021 0 4.482 3.469 4.482 4.644 0 4.044-3.215 4.044-4.379 4.044Z"
                                fill="#fff"></path>
                        </svg>