<svg width="41" height="48" viewBox="0 0 41 48" fill="none" xmlns="http://www.w3.org/2000/svg">
<path fill-rule="evenodd" clip-rule="evenodd" d="M28.8584 1.05329L26.4936 4.48354C30.2516 6.22793 32.8858 9.5528 33.2136 13.4162H7.65649C7.99601 9.5528 10.6184 6.22793 14.3765 4.48354L12.0116 1.05329C11.8828 0.854268 11.9063 0.585 12.0936 0.456219C12.2809 0.327439 12.5384 0.397682 12.6789 0.596707L15.1258 4.15573C16.7414 3.51183 18.5326 3.16061 20.4292 3.16061C22.3258 3.16061 24.117 3.52354 25.7326 4.15573L28.1911 0.596707C28.3316 0.397682 28.5892 0.327439 28.7765 0.456219C28.9638 0.585 28.9989 0.854268 28.8584 1.05329ZM25.7793 9.88053C24.9949 9.88053 24.3627 9.24834 24.3627 8.46395C24.3627 7.67956 24.9949 7.04736 25.7793 7.04736C26.5637 7.04736 27.1959 7.67956 27.1959 8.46395C27.1842 9.24834 26.552 9.88053 25.7793 9.88053ZM15.1031 9.88004C14.3187 9.88004 13.6865 9.24785 13.6865 8.47516C13.6865 7.69077 14.3187 7.05858 15.1031 7.05858C15.8875 7.05858 16.5197 7.69077 16.5197 8.47516C16.5079 9.24785 15.8758 9.88004 15.1031 9.88004Z" fill="#a4a6f1"></path>
<path d="M6.01786 29.5719C6.01786 31.1407 4.74176 32.4285 3.16127 32.4285V32.4285C1.59249 32.4285 0.304688 31.1524 0.304688 29.5719V18.0402C0.304688 16.4714 1.58079 15.1836 3.16127 15.1836V15.1836C4.74176 15.1836 6.01786 16.4597 6.01786 18.0402V29.5719Z" fill="#a4a6f1"></path>
<path d="M7.65698 15.2773V36.1047C7.65698 37.3456 8.66381 38.3408 9.89308 38.3408H12.5389V44.7447C12.5389 46.3251 13.815 47.6012 15.3955 47.6012C16.976 47.6012 18.2521 46.3251 18.2521 44.7447V38.3408H22.6306V44.7447C22.6306 46.3251 23.9067 47.6012 25.4872 47.6012C27.0677 47.6012 28.3438 46.3251 28.3438 44.7447V38.3408H30.9897C32.2306 38.3408 33.2258 37.3339 33.2258 36.1047V15.2773H7.65698Z" fill="#a4a6f1"></path>
<path d="M34.8528 29.5719C34.8528 31.1524 36.1289 32.4285 37.7094 32.4285V32.4285C39.2899 32.4285 40.566 31.1524 40.566 29.5719V18.0402C40.566 16.4714 39.2899 15.1836 37.7094 15.1836V15.1836C36.1289 15.1836 34.8528 16.4597 34.8528 18.0402V29.5719Z" fill="#a4a6f1"></path>
</svg>