<svg xmlns="http://www.w3.org/2000/svg" fill="none" viewBox="0 0 24 24"
                                width="24px" height="24px">
                                <path fill="#fff"
                                    d="M9.078 13.021 0 1.162c.08-.003.131-.008.183-.008 2.415 0 4.83 0 7.245-.003.116 0 .188.033.26.127 1.687 2.234 3.378 4.466 5.068 6.699l.084.107.657-.747c1.774-2.026 3.547-4.052 5.323-6.075a.32.32 0 0 1 .208-.104c1.133-.007 2.267-.005 3.4-.004.038 0 .077.005.152.01l-8.036 9.185L24 22.852c-.047.006-.078.014-.109.014-2.39 0-4.78 0-7.171.002-.091 0-.142-.035-.194-.103-1.878-2.456-3.757-4.912-5.637-7.367-.03-.039-.061-.076-.115-.142-.024.038-.037.07-.06.095L5.08 21.802c-.286.328-.572.658-.862.982a.245.245 0 0 1-.16.079c-1.169.004-2.336.003-3.505.003-.017 0-.035-.003-.081-.007l8.607-9.838ZM4.3 3.237l.12.168 6.797 8.892c2.1 2.747 4.2 5.495 6.299 8.244.065.085.128.127.243.126.579-.007 1.158-.003 1.737-.004.042 0 .085-.006.151-.01-.047-.065-.08-.112-.115-.158L9.642 7.411c-1.02-1.35-2.04-2.7-3.062-4.048-.04-.053-.109-.12-.165-.12-.693-.01-1.386-.006-2.115-.006Z">
                                </path>
                            </svg>