<svg width="48" height="48" viewBox="0 0 48 48" fill="none" xmlns="http://www.w3.org/2000/svg">
<path fill-rule="evenodd" clip-rule="evenodd" d="M35.88 17.1268C36.6546 18.485 37.56 20.2359 37.56 22.7559C37.56 24.5014 37.0419 26.6995 36.011 29.3559L33.9764 36.1577L26.6019 14.2195C27.8291 14.1541 28.9364 14.0232 28.9364 14.0232C30.0328 13.8923 29.9073 12.2777 28.8055 12.3432C28.8055 12.3432 25.5 12.605 23.3673 12.605C21.3655 12.605 17.9946 12.3432 17.9946 12.3432C16.8928 12.2777 16.7619 13.9577 17.8637 14.0232C17.8637 14.0232 18.9 14.1541 20.0019 14.2195L23.1819 22.9304L18.7146 36.3214L11.2855 14.2195C12.5128 14.1541 13.62 14.0232 13.62 14.0232C14.7164 13.8923 14.5909 12.2777 13.4891 12.3432C13.4891 12.3432 10.1837 12.605 8.05095 12.605C7.66913 12.605 7.2164 12.5941 6.7364 12.5777C10.3855 7.04135 16.6582 3.38135 23.7873 3.38135C29.1 3.38135 33.9382 5.41044 37.5655 8.73771C37.5364 8.73589 37.5079 8.73347 37.4794 8.73105C37.4225 8.7262 37.3655 8.72135 37.3037 8.72135C35.3019 8.72135 33.8782 10.4668 33.8782 12.3432C33.8782 13.901 34.7083 15.2383 35.6554 16.7641C35.7297 16.8838 35.8047 17.0046 35.88 17.1268ZM14.8795 42.1528C8.07226 38.8474 3.38135 31.8655 3.38135 23.7874C3.38135 20.8255 4.01408 18.0219 5.14862 15.4801L14.8795 42.1528ZM24.1467 25.5708L18.0212 43.3636C19.8485 43.9036 21.7849 44.1981 23.7867 44.1981C26.1649 44.1981 28.4449 43.789 30.5612 43.0418C30.5067 42.9545 30.4576 42.8618 30.414 42.7581L24.1467 25.5708ZM41.8302 16.0959C41.8302 15.3432 41.7811 14.645 41.6938 13.9959C43.2866 16.9032 44.192 20.2359 44.192 23.7814C44.192 31.3141 40.112 37.8868 34.0466 41.4214L40.2757 23.405C41.4429 20.4923 41.8302 18.1686 41.8302 16.0959Z" fill="#a4a6f1"></path>
<path fill-rule="evenodd" clip-rule="evenodd" d="M23.7873 47.5745C10.6691 47.5745 0 36.9055 0 23.7873C0 10.6691 10.6691 0 23.7873 0C36.9055 0 47.5745 10.6691 47.5745 23.7873C47.5745 36.9055 36.9055 47.5745 23.7873 47.5745ZM23.7867 1.09044C11.274 1.09044 1.09038 11.2741 1.09038 23.7868C1.09038 36.2995 11.274 46.4832 23.7867 46.4832C36.2995 46.4832 46.4831 36.2995 46.4831 23.7868C46.4831 11.2741 36.2995 1.09044 23.7867 1.09044Z" fill="#a4a6f1"></path>
</svg>