<svg xmlns="http://www.w3.org/2000/svg" width="180" height="65" fill="none">
<path fill="#D7D8F9" d="M28.39 10.17s2.87-.27 5.13 1.2c.82-.03 1.48.32 1.9 1.1.44.78 1.21 2.65.6 3.78-.2.23-.63-.7-.63-.7s-.31 1.13-.9 1.56c.08 2.33-.85 3.97-1.12 4.51-.12.32-.04.59.07.9.12.31 1.68 5.8 1.6 7.63-.08 1.84-1.01 4.02-1.75 4.76a5.84 5.84 0 0 1-.9 3.42c-.35.63-1.13 2.97-1.32 4.06-.2 1.09-.27 2.26-.04 2.6.23.36 1.29 1.45 1.2 2-.07.54-1.2 1.16-1.74 1.16-.55 0-1.68-.35-1.95-1.09a5.55 5.55 0 0 1-.12-2.76c.2-.75 1.52-6.16.74-9.35-1.9.85-5.1.81-5.1.81s-.54 2.85-1.2 4.48c-.23.4-.2 3.04-.2 4.72 0 1.67.59 4.28.59 4.28s.82.59.7 1.33c-.12.74-1.05 1.17-1.87 1.17-.82 0-1.9-.63-1.9-1.64 0-1.01.15-3.31.07-4.99-.07-1.67-.04-2.76-.3-3.81-.28-1.06-1.06-3.82-1.14-5.96-.27 0-.54-.2-.54-.2s-1.29 1.48-2.18 2.34c.12.58.43 1.63.43 1.87 0 .23.23.43.62.58.39.16 1.6.82 1.56 1.48-.04.66-1.56.78-2.88.2-.31-.16-1.44-3.94-1.6-4.44-.15-.51-.27-.78-.08-1.21.2-.43.74-1.83.67-2.65-.08-.82-1.6-2.1-2.61-2.1-.78 0-1.97 1.19-2.84 1.87-1.05.81-2.26 2.06-2.57 2.26-.31.19-2.76 4.63-3.23 5.92-.2.5-.58 3.04-2.65 2.96-.93-.08-1.79-1.1.86-2.92.67-1.55 1.6-3.16 1.66-3.48.06-.32.76-4.33 1.93-8.12 1.17-3.8 2.89-5.61 3.21-5.88.26-.2.4-.32.15-.46-.27-.15-3.04-2.52-2.51-7.54.09-.59.35-.44.52.9.18 1.35 1.26 4.5 3.65 5.5.23.09 1.95-1.23 10.74-1.87.06-1.55.3-3.19.3-3.19s-.62-.46-.71-1.4c-.3.47-.47.59-.85.53-.38-.06-.35-1.87-.26-3.16.09-1.28 1.58-1.84 2.13-1.9.73-.38 1.52-.32 1.52-.32s1.34-1.36 5.13-.74Zm16.57 7.99h24.55L56.8 38.92h13v5.73H44.96l13.23-20.73H44.96v-5.76Zm25.68 0h7.43l6.03 15.77 6.39-15.81h6.88L83.3 53.45h-7.4l4.52-10.05-9.77-25.24Zm27.88.04h6.9v2.25s2.7-2.84 7.44-2.84c4.75 0 7.86 3.9 7.86 8.18v18.93h-6.93V26.57c0-4.05-4.63-3.66-8.4 1.75v16.4H98.5l.02-26.52Zm49.6 18.93V18.16h-6.93v1.13s-2.73-1.47-5.3-1.64c-4.08-.27-11.98 2.88-12.02 13.44-.04 11.49 8.1 13.05 10.54 13.05 1.52 0 4.17-.2 6.78-2.38 0 5.42-3 6.39-5.65 6.39h-7.23l-.04 5.96s3.89-.04 8.05-.2c12.26-.73 11.8-10.55 11.8-16.78Zm-6.93-2.5s-2.14 3.12-5.96 3.12c-3.81 0-4.2-3.7-4.2-6.47 0-2.76.82-7.86 5.14-7.86a7.15 7.15 0 0 1 5.02 2.25v8.96Zm33.34 4.76c-3 .77-2.95-.55-2.95-2.42V25.71c0-5.72-4.2-8.14-9.07-8.14-4.86 0-9.5 2.3-9.5 2.3v6.47s4.28-2.92 8.49-2.92c4.2 0 3.23 3.23 3.23 4.55-9.03.16-13.85 3.59-13.85 9.47 0 5.88 5.6 7.83 8.05 7.83 2.45 0 5.1-1.17 7.12-2.69a5.2 5.2 0 0 0 4.51 2.69c2.18 0 4.6-1.29 4.6-1.29s-.43-3.23-.63-4.6Zm-9.84-1.99s-1.95 1.75-4.28 1.75c-2.34 0-2.65-1.75-2.65-2.34 0-.58.31-3.97 6.93-3.73v4.32Zm10.8-15.95V18.8h1.16c.24 0 .42.02.54.07.13.05.23.13.3.25.07.12.11.26.1.4 0 .19-.05.35-.17.48a.92.92 0 0 1-.57.24c.1.05.17.1.22.14.1.09.2.2.28.35l.47.72h-.44l-.35-.55a5.86 5.86 0 0 0-.26-.37.82.82 0 0 0-.18-.18.53.53 0 0 0-.16-.07 1.08 1.08 0 0 0-.19-.01h-.4v1.18h-.36Zm.34-1.48h.75c.16 0 .3-.02.38-.05a.4.4 0 0 0 .2-.16.44.44 0 0 0 .04-.41.39.39 0 0 0-.1-.14c-.09-.08-.23-.12-.43-.12h-.84v.88Z"></path>
<path fill="#D7D8F9" d="M174.15 20.12a2.5 2.5 0 1 1 5 0 2.5 2.5 0 0 1-5 0Zm.4 0a2.1 2.1 0 0 0 3.09 1.86 2.1 2.1 0 1 0-3.09-1.86Z"></path>
</svg>